<svg width="1110" height="120" viewBox="0 0 1110 120" fill="none" xmlns="http://www.w3.org/2000/svg">
<rect width="1110" height="120" fill="#FBFBFF"/>
<path d="M683.97 67.28H676.11L674.85 71H669.48L677.1 49.94H683.04L690.66 71H685.23L683.97 67.28ZM682.65 63.32L680.04 55.61L677.46 63.32H682.65ZM692.259 62.6C692.259 60.88 692.579 59.37 693.219 58.07C693.879 56.77 694.769 55.77 695.889 55.07C697.009 54.37 698.259 54.02 699.639 54.02C700.739 54.02 701.739 54.25 702.639 54.71C703.559 55.17 704.279 55.79 704.799 56.57V48.8H709.929V71H704.799V68.6C704.319 69.4 703.629 70.04 702.729 70.52C701.849 71 700.819 71.24 699.639 71.24C698.259 71.24 697.009 70.89 695.889 70.19C694.769 69.47 693.879 68.46 693.219 67.16C692.579 65.84 692.259 64.32 692.259 62.6ZM704.799 62.63C704.799 61.35 704.439 60.34 703.719 59.6C703.019 58.86 702.159 58.49 701.139 58.49C700.119 58.49 699.249 58.86 698.529 59.6C697.829 60.32 697.479 61.32 697.479 62.6C697.479 63.88 697.829 64.9 698.529 65.66C699.249 66.4 700.119 66.77 701.139 66.77C702.159 66.77 703.019 66.4 703.719 65.66C704.439 64.92 704.799 63.91 704.799 62.63ZM730.47 54.26V71H725.34V68.72C724.82 69.46 724.11 70.06 723.21 70.52C722.33 70.96 721.35 71.18 720.27 71.18C718.99 71.18 717.86 70.9 716.88 70.34C715.9 69.76 715.14 68.93 714.6 67.85C714.06 66.77 713.79 65.5 713.79 64.04V54.26H718.89V63.35C718.89 64.47 719.18 65.34 719.76 65.96C720.34 66.58 721.12 66.89 722.1 66.89C723.1 66.89 723.89 66.58 724.47 65.96C725.05 65.34 725.34 64.47 725.34 63.35V54.26H730.47ZM733.435 62.6C733.435 60.88 733.755 59.37 734.395 58.07C735.055 56.77 735.945 55.77 737.065 55.07C738.185 54.37 739.435 54.02 740.815 54.02C741.995 54.02 743.025 54.26 743.905 54.74C744.805 55.22 745.495 55.85 745.975 56.63V54.26H751.105V71H745.975V68.63C745.475 69.41 744.775 70.04 743.875 70.52C742.995 71 741.965 71.24 740.785 71.24C739.425 71.24 738.185 70.89 737.065 70.19C735.945 69.47 735.055 68.46 734.395 67.16C733.755 65.84 733.435 64.32 733.435 62.6ZM745.975 62.63C745.975 61.35 745.615 60.34 744.895 59.6C744.195 58.86 743.335 58.49 742.315 58.49C741.295 58.49 740.425 58.86 739.705 59.6C739.005 60.32 738.655 61.32 738.655 62.6C738.655 63.88 739.005 64.9 739.705 65.66C740.425 66.4 741.295 66.77 742.315 66.77C743.335 66.77 744.195 66.4 744.895 65.66C745.615 64.92 745.975 63.91 745.975 62.63ZM765.317 54.08C767.277 54.08 768.837 54.72 769.997 56C771.177 57.26 771.767 59 771.767 61.22V71H766.667V61.91C766.667 60.79 766.377 59.92 765.797 59.3C765.217 58.68 764.437 58.37 763.457 58.37C762.477 58.37 761.697 58.68 761.117 59.3C760.537 59.92 760.247 60.79 760.247 61.91V71H755.117V54.26H760.247V56.48C760.767 55.74 761.467 55.16 762.347 54.74C763.227 54.3 764.217 54.08 765.317 54.08ZM787.419 67.04H794.139V71H782.289V49.94H787.419V67.04ZM795.866 62.6C795.866 60.88 796.186 59.37 796.826 58.07C797.486 56.77 798.376 55.77 799.496 55.07C800.616 54.37 801.866 54.02 803.246 54.02C804.426 54.02 805.456 54.26 806.336 54.74C807.236 55.22 807.926 55.85 808.406 56.63V54.26H813.536V71H808.406V68.63C807.906 69.41 807.206 70.04 806.306 70.52C805.426 71 804.396 71.24 803.216 71.24C801.856 71.24 800.616 70.89 799.496 70.19C798.376 69.47 797.486 68.46 796.826 67.16C796.186 65.84 795.866 64.32 795.866 62.6ZM808.406 62.63C808.406 61.35 808.046 60.34 807.326 59.6C806.626 58.86 805.766 58.49 804.746 58.49C803.726 58.49 802.856 58.86 802.136 59.6C801.436 60.32 801.086 61.32 801.086 62.6C801.086 63.88 801.436 64.9 802.136 65.66C802.856 66.4 803.726 66.77 804.746 66.77C805.766 66.77 806.626 66.4 807.326 65.66C808.046 64.92 808.406 63.91 808.406 62.63ZM827.747 54.08C829.707 54.08 831.267 54.72 832.427 56C833.607 57.26 834.197 59 834.197 61.22V71H829.097V61.91C829.097 60.79 828.807 59.92 828.227 59.3C827.647 58.68 826.867 58.37 825.887 58.37C824.907 58.37 824.127 58.68 823.547 59.3C822.967 59.92 822.677 60.79 822.677 61.91V71H817.547V54.26H822.677V56.48C823.197 55.74 823.897 55.16 824.777 54.74C825.657 54.3 826.647 54.08 827.747 54.08ZM844.422 54.02C845.602 54.02 846.632 54.26 847.512 54.74C848.412 55.22 849.102 55.85 849.582 56.63V54.26H854.712V70.97C854.712 72.51 854.402 73.9 853.782 75.14C853.182 76.4 852.252 77.4 850.992 78.14C849.752 78.88 848.202 79.25 846.342 79.25C843.862 79.25 841.852 78.66 840.312 77.48C838.772 76.32 837.892 74.74 837.672 72.74H842.742C842.902 73.38 843.282 73.88 843.882 74.24C844.482 74.62 845.222 74.81 846.102 74.81C847.162 74.81 848.002 74.5 848.622 73.88C849.262 73.28 849.582 72.31 849.582 70.97V68.6C849.082 69.38 848.392 70.02 847.512 70.52C846.632 71 845.602 71.24 844.422 71.24C843.042 71.24 841.792 70.89 840.672 70.19C839.552 69.47 838.662 68.46 838.002 67.16C837.362 65.84 837.042 64.32 837.042 62.6C837.042 60.88 837.362 59.37 838.002 58.07C838.662 56.77 839.552 55.77 840.672 55.07C841.792 54.37 843.042 54.02 844.422 54.02ZM849.582 62.63C849.582 61.35 849.222 60.34 848.502 59.6C847.802 58.86 846.942 58.49 845.922 58.49C844.902 58.49 844.032 58.86 843.312 59.6C842.612 60.32 842.262 61.32 842.262 62.6C842.262 63.88 842.612 64.9 843.312 65.66C844.032 66.4 844.902 66.77 845.922 66.77C846.942 66.77 847.802 66.4 848.502 65.66C849.222 64.92 849.582 63.91 849.582 62.63ZM865.533 71.24C864.073 71.24 862.773 70.99 861.633 70.49C860.493 69.99 859.593 69.31 858.933 68.45C858.273 67.57 857.903 66.59 857.823 65.51H862.893C862.953 66.09 863.223 66.56 863.703 66.92C864.183 67.28 864.773 67.46 865.473 67.46C866.113 67.46 866.603 67.34 866.943 67.1C867.303 66.84 867.483 66.51 867.483 66.11C867.483 65.63 867.233 65.28 866.733 65.06C866.233 64.82 865.423 64.56 864.303 64.28C863.103 64 862.103 63.71 861.303 63.41C860.503 63.09 859.813 62.6 859.233 61.94C858.653 61.26 858.363 60.35 858.363 59.21C858.363 58.25 858.623 57.38 859.143 56.6C859.683 55.8 860.463 55.17 861.483 54.71C862.523 54.25 863.753 54.02 865.173 54.02C867.273 54.02 868.923 54.54 870.123 55.58C871.343 56.62 872.043 58 872.223 59.72H867.483C867.403 59.14 867.143 58.68 866.703 58.34C866.283 58 865.723 57.83 865.023 57.83C864.423 57.83 863.963 57.95 863.643 58.19C863.323 58.41 863.163 58.72 863.163 59.12C863.163 59.6 863.413 59.96 863.913 60.2C864.433 60.44 865.233 60.68 866.313 60.92C867.553 61.24 868.563 61.56 869.343 61.88C870.123 62.18 870.803 62.68 871.383 63.38C871.983 64.06 872.293 64.98 872.313 66.14C872.313 67.12 872.033 68 871.473 68.78C870.933 69.54 870.143 70.14 869.103 70.58C868.083 71.02 866.893 71.24 865.533 71.24ZM892.282 54.26V71H887.152V68.72C886.632 69.46 885.922 70.06 885.022 70.52C884.142 70.96 883.162 71.18 882.082 71.18C880.802 71.18 879.672 70.9 878.692 70.34C877.712 69.76 876.952 68.93 876.412 67.85C875.872 66.77 875.602 65.5 875.602 64.04V54.26H880.702V63.35C880.702 64.47 880.992 65.34 881.572 65.96C882.152 66.58 882.932 66.89 883.912 66.89C884.912 66.89 885.702 66.58 886.282 65.96C886.862 65.34 887.152 64.47 887.152 63.35V54.26H892.282ZM906.467 54.08C908.427 54.08 909.987 54.72 911.147 56C912.327 57.26 912.917 59 912.917 61.22V71H907.817V61.91C907.817 60.79 907.527 59.92 906.947 59.3C906.367 58.68 905.587 58.37 904.607 58.37C903.627 58.37 902.847 58.68 902.267 59.3C901.687 59.92 901.397 60.79 901.397 61.91V71H896.267V54.26H901.397V56.48C901.917 55.74 902.617 55.16 903.497 54.74C904.377 54.3 905.367 54.08 906.467 54.08ZM923.141 54.02C924.321 54.02 925.351 54.26 926.231 54.74C927.131 55.22 927.821 55.85 928.301 56.63V54.26H933.431V70.97C933.431 72.51 933.121 73.9 932.501 75.14C931.901 76.4 930.971 77.4 929.711 78.14C928.471 78.88 926.921 79.25 925.061 79.25C922.581 79.25 920.571 78.66 919.031 77.48C917.491 76.32 916.611 74.74 916.391 72.74H921.461C921.621 73.38 922.001 73.88 922.601 74.24C923.201 74.62 923.941 74.81 924.821 74.81C925.881 74.81 926.721 74.5 927.341 73.88C927.981 73.28 928.301 72.31 928.301 70.97V68.6C927.801 69.38 927.111 70.02 926.231 70.52C925.351 71 924.321 71.24 923.141 71.24C921.761 71.24 920.511 70.89 919.391 70.19C918.271 69.47 917.381 68.46 916.721 67.16C916.081 65.84 915.761 64.32 915.761 62.6C915.761 60.88 916.081 59.37 916.721 58.07C917.381 56.77 918.271 55.77 919.391 55.07C920.511 54.37 921.761 54.02 923.141 54.02ZM928.301 62.63C928.301 61.35 927.941 60.34 927.221 59.6C926.521 58.86 925.661 58.49 924.641 58.49C923.621 58.49 922.751 58.86 922.031 59.6C921.331 60.32 920.981 61.32 920.981 62.6C920.981 63.88 921.331 64.9 922.031 65.66C922.751 66.4 923.621 66.77 924.641 66.77C925.661 66.77 926.521 66.4 927.221 65.66C927.941 64.92 928.301 63.91 928.301 62.63Z" fill="black"/>
<line x1="501" y1="62.5" x2="451" y2="62.5" stroke="#C1292E" stroke-width="5"/>
<circle cx="558" cy="60" r="60" fill="#A50000"/>
<circle cx="558" cy="60" r="50" fill="#FE7059"/>
<path d="M556.149 89.5814C574.292 89.5814 589 89.0159 589 88.3183C589 87.6207 574.292 87.0552 556.149 87.0552C538.006 87.0552 523.299 87.6207 523.299 88.3183C523.299 89.0159 538.006 89.5814 556.149 89.5814Z" fill="#92E3A9"/>
<path opacity="0.8" d="M556.149 89.5814C574.292 89.5814 589 89.0159 589 88.3183C589 87.6207 574.292 87.0552 556.149 87.0552C538.006 87.0552 523.299 87.6207 523.299 88.3183C523.299 89.0159 538.006 89.5814 556.149 89.5814Z" fill="white"/>
<path d="M571.938 40.8384C571.873 40.8384 571.812 40.8649 571.766 40.9122C571.72 40.9594 571.695 41.0235 571.695 41.0903V42.382H567.244V41.0903C567.244 41.0235 567.218 40.9594 567.173 40.9122C567.127 40.8649 567.065 40.8384 567 40.8384C566.936 40.8384 566.874 40.8649 566.828 40.9122C566.782 40.9594 566.757 41.0235 566.757 41.0903V73.6259C566.757 73.6928 566.782 73.7568 566.828 73.8041C566.874 73.8513 566.936 73.8779 567 73.8779C567.065 73.8779 567.127 73.8513 567.173 73.8041C567.218 73.7568 567.244 73.6928 567.244 73.6259V66.3478H571.695V73.6259C571.695 73.6928 571.72 73.7568 571.766 73.8041C571.812 73.8513 571.873 73.8779 571.938 73.8779C572.003 73.8779 572.065 73.8513 572.11 73.8041C572.156 73.7568 572.182 73.6928 572.182 73.6259V41.0853C572.18 41.0193 572.154 40.9565 572.109 40.9104C572.063 40.8642 572.002 40.8384 571.938 40.8384ZM571.695 65.849H567.244V64.2163H571.695V65.849ZM571.695 63.7107H567.244V62.0797H571.695V63.7107ZM571.695 61.5742H567.244V59.9482H571.695V61.5742ZM571.695 59.4393H567.244V57.82H571.695V59.4393ZM571.695 57.3061H567.244V55.7053H571.695V57.3061ZM571.695 55.1796H567.244V53.5687H571.695V55.1796ZM571.695 53.0632H567.244V51.4372H571.695V53.0632ZM571.695 50.9266H567.244V49.3007H571.695V50.9266ZM571.695 48.7951H567.244V47.1641H571.695V48.7951ZM571.695 46.6585H567.244V45.0242H571.695V46.6585ZM571.695 44.5203H567.244V42.8859H571.695V44.5203Z" fill="white"/>
<path d="M529.78 67.0687C529.78 67.0687 533.426 61.907 531.648 60.6859C529.798 59.4244 528.93 63.2457 528.538 65.1219C527.704 69.1263 527.939 69.9762 528.499 69.0961L529.78 67.0687Z" fill="#92E3A9"/>
<path opacity="0.5" d="M529.78 67.0687C529.78 67.0687 533.426 61.907 531.648 60.6859C529.798 59.4244 528.93 63.2457 528.538 65.1219C527.704 69.1263 527.939 69.9762 528.499 69.0961L529.78 67.0687Z" fill="white"/>
<path d="M531.148 70.2434C531.148 70.2434 536.215 66.5851 534.915 64.8416C533.562 63.0258 531.54 66.3533 530.581 67.9927C528.533 71.4999 528.491 72.3834 529.297 71.7384L531.148 70.2434Z" fill="#92E3A9"/>
<path opacity="0.5" d="M531.148 70.2434C531.148 70.2434 536.215 66.5851 534.915 64.8416C533.562 63.0258 531.54 66.3533 530.581 67.9927C528.533 71.4999 528.491 72.3834 529.297 71.7384L531.148 70.2434Z" fill="white"/>
<path d="M531.258 74.4864C531.258 74.4864 535.642 72.4489 534.893 70.9204C534.114 69.3297 532.102 71.5671 531.139 72.679C529.082 75.0541 528.926 75.7226 529.633 75.3514L531.258 74.4864Z" fill="#92E3A9"/>
<path opacity="0.5" d="M531.258 74.4864C531.258 74.4864 535.642 72.4489 534.893 70.9204C534.114 69.3297 532.102 71.5671 531.139 72.679C529.082 75.0541 528.926 75.7226 529.633 75.3514L531.258 74.4864Z" fill="white"/>
<path d="M531.518 78.7478C531.518 78.7478 535.902 76.7104 535.155 75.1819C534.374 73.5929 532.364 75.8285 531.399 76.9422C529.344 79.3172 529.186 79.9858 529.894 79.6129L531.518 78.7478Z" fill="#92E3A9"/>
<path opacity="0.5" d="M531.518 78.7478C531.518 78.7478 535.902 76.7104 535.155 75.1819C534.374 73.5929 532.364 75.8285 531.399 76.9422C529.344 79.3172 529.186 79.9858 529.894 79.6129L531.518 78.7478Z" fill="white"/>
<path d="M526.376 69.2256C526.376 69.2256 521.556 65.2229 520.305 67.0033C519.006 68.851 522.652 69.931 524.447 70.4215C528.275 71.4679 529.107 71.2613 528.282 70.6432L526.376 69.2256Z" fill="#92E3A9"/>
<path opacity="0.5" d="M526.376 69.2256C526.376 69.2256 521.556 65.2229 520.305 67.0033C519.006 68.851 522.652 69.931 524.447 70.4215C528.275 71.4679 529.107 71.2613 528.282 70.6432L526.376 69.2256Z" fill="white"/>
<path d="M526.518 72.5697C526.518 72.5697 521.027 69.637 520.142 71.6409C519.221 73.7254 523.005 74.0277 524.851 74.1386C528.805 74.3771 529.581 74.0042 528.654 73.5675L526.518 72.5697Z" fill="#92E3A9"/>
<path opacity="0.5" d="M526.518 72.5697C526.518 72.5697 521.027 69.637 520.142 71.6409C519.221 73.7254 523.005 74.0277 524.851 74.1386C528.805 74.3771 529.581 74.0042 528.654 73.5675L526.518 72.5697Z" fill="white"/>
<path d="M527.183 76.3191C527.183 76.3191 522.474 73.9675 521.771 75.6858C521.038 77.4713 524.244 77.6359 525.814 77.6846C529.162 77.7921 529.81 77.4562 529.016 77.1203L527.183 76.3191Z" fill="#92E3A9"/>
<path opacity="0.5" d="M527.183 76.3191C527.183 76.3191 522.474 73.9675 521.771 75.6858C521.038 77.4713 524.244 77.6359 525.814 77.6846C529.162 77.7921 529.81 77.4562 529.016 77.1203L527.183 76.3191Z" fill="white"/>
<path d="M527.413 79.3474C527.413 79.3474 522.971 76.4919 522.096 78.1229C521.185 79.8177 524.356 80.3333 525.911 80.5551C529.23 81.0287 529.907 80.7684 529.159 80.3367L527.413 79.3474Z" fill="#92E3A9"/>
<path opacity="0.5" d="M527.413 79.3474C527.413 79.3474 522.971 76.4919 522.096 78.1229C521.185 79.8177 524.356 80.3333 525.911 80.5551C529.23 81.0287 529.907 80.7684 529.159 80.3367L527.413 79.3474Z" fill="white"/>
<path d="M526.993 64.1546C526.993 64.1546 526.158 56.6581 523.42 57.4241C520.577 58.2236 522.958 62.0163 524.166 63.8506C526.733 67.7542 527.678 68.1842 527.475 66.9647L526.993 64.1546Z" fill="#92E3A9"/>
<path opacity="0.5" d="M526.993 64.1546C526.993 64.1546 526.158 56.6581 523.42 57.4241C520.577 58.2236 522.958 62.0163 524.166 63.8506C526.733 67.7542 527.678 68.1842 527.475 66.9647L526.993 64.1546Z" fill="white"/>
<path d="M523.98 60.1553C523.98 60.1553 528.147 68.2312 528.793 71.9803C529.537 76.287 529.657 81.0976 529.144 84.8669" stroke="#92E3A9" stroke-width="1.25197" stroke-linecap="round" stroke-linejoin="round"/>
<path d="M528.136 69.4858L530.177 63.019" stroke="#92E3A9" stroke-width="1.25197" stroke-linecap="round" stroke-linejoin="round"/>
<path d="M528.793 71.9805L532.635 66.9834" stroke="#92E3A9" stroke-width="1.25197" stroke-linecap="round" stroke-linejoin="round"/>
<path d="M528.548 71.0719L522.985 68.6548" stroke="#92E3A9" stroke-width="1.25197" stroke-linecap="round" stroke-linejoin="round"/>
<path d="M529.275 75.365L533.458 72.0493" stroke="#92E3A9" stroke-width="1.25197" stroke-linecap="round" stroke-linejoin="round"/>
<path d="M529.053 73.9421L524.684 73.0015" stroke="#92E3A9" stroke-width="1.25197" stroke-linecap="round" stroke-linejoin="round"/>
<path d="M529.262 77.4039L525.879 76.8496" stroke="#92E3A9" stroke-width="1.25197" stroke-linecap="round" stroke-linejoin="round"/>
<path d="M529.548 79.6448L531.825 77.5352" stroke="#92E3A9" stroke-width="1.25197" stroke-linecap="round" stroke-linejoin="round"/>
<path d="M529.503 80.5937L525.614 79.5825" stroke="#92E3A9" stroke-width="1.25197" stroke-linecap="round" stroke-linejoin="round"/>
<path d="M526.622 81.8252H531.219V82.8095H530.818L529.988 88.1795H527.853L527.023 82.8095H526.622V81.8252Z" fill="#92E3A9"/>
<path opacity="0.5" d="M526.622 81.8252H531.219V82.8095H530.818L529.988 88.1795H527.853L527.023 82.8095H526.622V81.8252Z" fill="white"/>
<path d="M534.192 31.1165C533.993 30.9323 533.749 30.8066 533.487 30.7525C533.225 30.6985 532.954 30.718 532.702 30.8091C531.808 31.1165 530.953 32.4518 531.169 33.5823C531.32 34.365 532.021 35.5189 532.234 35.959C532.447 36.3991 532.148 37.1432 531.472 38.6885C530.797 40.2338 530.535 41.6834 532.494 42.96C534.452 44.2365 536.668 42.2108 537.805 40.7579C538.941 39.305 536.952 35.959 536.782 34.543C536.611 33.1271 536.319 30.4127 534.192 31.1165Z" fill="#263238"/>
<path d="M538.795 40.8555C538.308 41.3598 537.719 41.7468 537.071 41.9889C536.423 42.231 535.731 42.3223 535.044 42.2563L534.575 44.2804L535.468 48.9012L541.299 45.7753L539.979 42.2479L538.795 40.8555Z" fill="#92E3A9" stroke="#263238" stroke-linecap="round" stroke-linejoin="round"/>
<path opacity="0.3" d="M538.795 40.8555C538.308 41.3598 537.719 41.7468 537.071 41.9889C536.423 42.231 535.731 42.3223 535.044 42.2563L534.575 44.2804L535.468 48.9012L541.299 45.7753L539.979 42.2479L538.795 40.8555Z" fill="#263238"/>
<path d="M538.795 40.8552L537.902 34.7344L535.255 35.2954L533.935 36.1755C533.935 36.1755 532.36 37.4538 532.36 37.5848C532.36 37.7158 535.025 42.3283 535.025 42.3283C535.718 42.3707 536.412 42.2614 537.062 42.0076C537.711 41.7538 538.302 41.3611 538.795 40.8552Z" fill="white"/>
<path d="M538.795 40.8552L537.902 34.7344L535.255 35.2954L533.935 36.1755C533.935 36.1755 532.36 37.4538 532.36 37.5848C532.36 37.7158 535.025 42.3283 535.025 42.3283C535.718 42.3707 536.412 42.2614 537.062 42.0076C537.711 41.7538 538.302 41.3611 538.795 40.8552Z" stroke="#263238" stroke-linecap="round" stroke-linejoin="round"/>
<path opacity="0.5" d="M535.244 40.5934C535.244 40.5934 537.11 39.1623 536.938 39.5856C536.765 40.0089 535.476 41.0654 535.13 41.0973C534.785 41.1292 535.244 40.5934 535.244 40.5934Z" fill="#92E3A9"/>
<path d="M535.301 37.8757L535.374 37.9546L535.828 38.4518L535.945 40.3616L536.502 40.2709L536.062 38.4821L536.767 39.9971L537.353 39.3908L536.093 38.2083L536.062 37.2693L535.418 36.9351" fill="#263238"/>
<path d="M534.276 35.6081C534.276 35.6081 533.723 35.8718 533.723 36.3992C533.723 36.9267 534.322 38.1814 534.697 38.4451C535.072 38.7088 535.715 37.5011 535.715 37.5011C535.715 37.5011 536.689 37.9849 536.949 37.5448C537.209 37.1047 536.353 35.6518 535.801 35.2554C535.249 34.859 534.276 35.6081 534.276 35.6081Z" fill="white" stroke="#263238" stroke-linecap="round" stroke-linejoin="round"/>
<path d="M533.809 35.0791C533.961 35.4814 534.089 35.8932 534.192 36.312C534.276 36.752 535.426 37.5012 535.553 37.5448C535.679 37.5885 535.765 36.1356 535.765 36.1356L535.426 34.4189L533.809 35.0791Z" fill="white"/>
<g style="mix-blend-mode:multiply" opacity="0.5">
<path d="M535.462 34.6017C535.39 34.581 535.318 34.5653 535.244 34.5547L534.07 34.983L533.916 35.3996C533.994 35.6247 534.093 35.927 534.153 36.1722C534.346 36.3327 534.578 36.4335 534.824 36.4628C535.176 36.488 535.486 36.2058 535.705 35.8598L535.462 34.6017Z" fill="#92E3A9"/>
</g>
<path d="M533.809 35.0791C533.961 35.4814 534.089 35.8932 534.192 36.312C534.276 36.752 535.426 37.5012 535.553 37.5448C535.679 37.5885 535.765 36.1356 535.765 36.1356L535.426 34.4189L533.809 35.0791Z" stroke="#263238" stroke-linecap="round" stroke-linejoin="round"/>
<path d="M533.042 34.3297C533.042 34.3297 532.573 33.935 532.573 34.3297C532.573 34.7245 533 34.9462 533.339 34.9462" fill="white"/>
<path d="M533.042 34.3297C533.042 34.3297 532.573 33.935 532.573 34.3297C532.573 34.7245 533 34.9462 533.339 34.9462" stroke="#263238" stroke-linecap="round" stroke-linejoin="round"/>
<path d="M535.552 33.0532C535.552 33.0532 535.851 32.5695 535.936 33.0986C535.975 33.443 535.883 33.7897 535.681 34.0661L535.552 33.0532Z" fill="white" stroke="#263238" stroke-linecap="round" stroke-linejoin="round"/>
<g opacity="0.5">
<path d="M533.042 34.3297C533.042 34.3297 532.573 33.935 532.573 34.3297C532.573 34.7245 533 34.9462 533.339 34.9462" fill="#92E3A9"/>
<path d="M533.042 34.3297C533.042 34.3297 532.573 33.935 532.573 34.3297C532.573 34.7245 533 34.9462 533.339 34.9462" stroke="#263238" stroke-linecap="round" stroke-linejoin="round"/>
</g>
<path opacity="0.5" d="M535.552 33.0532C535.552 33.0532 535.851 32.5695 535.936 33.0986C535.975 33.443 535.883 33.7897 535.681 34.0661L535.552 33.0532Z" fill="#92E3A9" stroke="#263238" stroke-linecap="round" stroke-linejoin="round"/>
<path d="M532.515 33.0566C532.515 33.0566 532.88 34.6304 533.664 35.4081C534.448 36.1858 535.288 36.1926 535.579 34.8068C535.817 33.6646 535.225 32.1411 535.225 32.1411C535.225 32.1411 533.312 30.5118 532.515 33.0566Z" fill="white"/>
<g style="mix-blend-mode:multiply" opacity="0.5">
<path d="M533.877 31.6286L534.174 32.4012C534.174 32.4012 534.642 32.2937 534.905 32.8783C535.168 33.4628 535.432 34.3194 535.281 34.9829C535.137 35.6145 534.794 35.8228 534.267 35.8379C534.841 36.0915 535.363 35.8379 535.579 34.8032C535.817 33.661 535.225 32.1375 535.225 32.1375C535.225 32.1375 534.577 31.5883 533.877 31.6286Z" fill="#92E3A9"/>
</g>
<path d="M532.515 33.0566C532.515 33.0566 532.88 34.6304 533.664 35.4081C534.448 36.1858 535.288 36.1926 535.579 34.8068C535.817 33.6646 535.225 32.1411 535.225 32.1411C535.225 32.1411 533.312 30.5118 532.515 33.0566Z" stroke="#263238" stroke-linecap="round" stroke-linejoin="round"/>
<path d="M533.966 33.8878C534.012 33.9768 534.003 34.0725 533.948 34.1028C533.893 34.133 533.812 34.0843 533.768 33.9953C533.724 33.9062 533.731 33.8122 533.786 33.7819C533.841 33.7517 533.922 33.8004 533.966 33.8878Z" fill="#263238"/>
<path d="M534.814 33.6159C534.846 33.7099 534.825 33.804 534.767 33.8241C534.708 33.8443 534.634 33.7872 534.604 33.6931C534.575 33.5991 534.593 33.505 534.651 33.4848C534.71 33.4647 534.781 33.5252 534.814 33.6159Z" fill="#263238"/>
<path d="M534.872 33.1121C534.806 33.066 534.727 33.0436 534.647 33.0485C534.567 33.0534 534.491 33.0851 534.431 33.139C534.197 33.3271 534.639 34.2694 534.639 34.2694C534.639 34.2694 534.647 34.5667 534.278 34.429" stroke="#263238" stroke-width="0.5" stroke-linecap="round" stroke-linejoin="round"/>
<path d="M534.872 34.7344C534.847 34.7962 534.808 34.8512 534.759 34.8948C534.709 34.9385 534.651 34.9697 534.588 34.986C534.525 35.0023 534.459 35.0032 534.396 34.9887C534.332 34.9742 534.273 34.9446 534.223 34.9023" stroke="#263238" stroke-width="0.5" stroke-linecap="round" stroke-linejoin="round"/>
<path d="M533.883 33.3622C533.883 33.3622 533.468 32.9574 533.286 33.7384" stroke="#263238" stroke-width="0.5" stroke-linecap="round" stroke-linejoin="round"/>
<path d="M535.249 31.6421C534.793 31.2323 534.424 31.2373 534.263 31.2911C534.113 31.194 533.942 31.1363 533.765 31.1231C532.489 30.9468 532.318 31.963 532.318 32.9288C532.318 33.8946 531.506 35.0418 532.063 35.1745C532.216 35.2124 532.376 35.1933 532.516 35.1208C532.657 35.0483 532.768 34.927 532.83 34.7781C532.83 34.7781 533.426 33.7703 533.426 33.0598C533.426 32.3493 534.168 32.4165 534.168 32.4165C534.2 32.3676 534.242 32.3264 534.29 32.2958C534.339 32.2652 534.394 32.2458 534.451 32.2391C534.508 32.2324 534.565 32.2385 534.619 32.2569C534.674 32.2754 534.723 32.3057 534.765 32.3459C535.103 32.6449 535.142 32.996 535.415 33.0867C535.687 33.1774 536.144 32.7239 536.144 32.7239C535.884 32.3312 535.584 31.9685 535.249 31.6421Z" fill="#263238"/>
<path d="M534.203 31.906C534.203 31.906 533.69 31.4794 533.229 31.9581C532.768 32.4368 532.818 33.3422 532.664 33.9284C532.51 34.5146 532.097 34.6204 532.097 34.6204" stroke="white" stroke-width="0.5" stroke-linecap="round" stroke-linejoin="round"/>
<path d="M533.844 31.7466C533.844 31.7466 533.291 31.1788 532.594 31.8977C532.063 32.4487 532.3 32.8098 532.196 33.7152" stroke="white" stroke-width="0.5" stroke-linecap="round" stroke-linejoin="round"/>
<path d="M534.461 31.639C534.461 31.639 535.436 31.1603 535.851 32.3848" stroke="white" stroke-width="0.5" stroke-linecap="round" stroke-linejoin="round"/>
<path d="M532.36 37.5884L530.888 43.7192L535.207 44.9857L535.419 44.1929L532.583 42.8391L533.546 39.3117C533.546 39.3117 533.419 38.6516 532.734 37.9042" fill="white"/>
<g style="mix-blend-mode:multiply" opacity="0.5">
<path d="M535.426 44.1981L532.589 42.8443L533.552 39.3169C533.477 39.0241 533.354 38.7465 533.19 38.4956L533.097 38.4233V39.3976C533.097 40.0207 532.344 42.0078 532.079 42.4748C531.815 42.9417 531.402 43.5262 531.402 43.5262L532.23 43.1365L535.369 44.4366L535.426 44.1981Z" fill="#92E3A9"/>
</g>
<path d="M532.36 37.5884L530.888 43.7192L535.207 44.9857L535.419 44.1929L532.583 42.8391L533.546 39.3117C533.546 39.3117 533.419 38.6516 532.734 37.9042" stroke="#263238" stroke-linecap="round" stroke-linejoin="round"/>
<path d="M544.504 39.4292L541.234 38.7187L537.894 34.7261L538.388 37.9376L540.437 39.9566L544.554 40.1515L544.504 39.4292Z" fill="white"/>
<g style="mix-blend-mode:multiply" opacity="0.5">
<path d="M537.894 34.7261L538.292 37.2893L538.545 38.0905L538.578 38.1207C538.673 38.0183 539.214 37.4371 539.352 37.4371C539.49 37.4371 541.047 38.8396 540.822 38.9488L540.594 39.0647L544.473 39.7265L544.501 39.4191L541.237 38.7103L537.894 34.7261Z" fill="#92E3A9"/>
</g>
<path d="M544.504 39.4292L541.234 38.7187L537.894 34.7261L538.388 37.9376L540.437 39.9566L544.554 40.1515L544.504 39.4292Z" stroke="#263238" stroke-linecap="round" stroke-linejoin="round"/>
<path d="M575.031 73.4247L533.388 67.1124C533.256 67.0921 533.137 67.0182 533.057 66.907C532.977 66.7959 532.943 66.6565 532.963 66.5195L536.431 42.0447C536.441 41.977 536.463 41.9119 536.497 41.8531C536.531 41.7943 536.576 41.743 536.629 41.7021C536.682 41.6612 536.742 41.6316 536.806 41.6149C536.87 41.5981 536.937 41.5947 537.003 41.6047L537.792 41.7239C537.892 41.7394 537.994 41.7234 538.085 41.6778C538.176 41.6323 538.251 41.5593 538.302 41.4686L539.349 39.5958C539.381 39.537 539.424 39.4855 539.476 39.4446C539.721 39.2612 540.025 39.184 540.325 39.2296L550.822 40.8219C551.057 40.8569 551.277 40.966 551.45 41.1344C551.497 41.1823 551.533 41.2394 551.558 41.3023L552.491 43.6942C552.524 43.7788 552.578 43.853 552.647 43.9093C552.716 43.9656 552.799 44.0021 552.886 44.015L578.646 47.922C578.778 47.9419 578.897 48.0154 578.977 48.1262C579.058 48.2371 579.092 48.3763 579.073 48.5132L575.605 72.9863C575.584 73.123 575.513 73.2458 575.405 73.328C575.298 73.4102 575.164 73.4449 575.031 73.4247Z" fill="#263238" stroke="#263238" stroke-miterlimit="10"/>
<path d="M575.475 73.3051H534.198C534.079 73.3051 533.96 73.2807 533.849 73.2333C533.738 73.1858 533.638 73.1163 533.553 73.0286C533.468 72.941 533.401 72.8369 533.355 72.7224C533.309 72.6079 533.286 72.4851 533.286 72.3611V48.4692C533.286 48.2189 533.382 47.9788 533.553 47.8017C533.724 47.6247 533.956 47.5252 534.198 47.5252H534.31C534.493 47.5249 534.672 47.4681 534.823 47.3621C534.974 47.2562 535.091 47.1059 535.16 46.9306L535.788 45.2963C535.858 45.1077 535.987 44.9483 536.153 44.8428C536.332 44.7334 536.536 44.6754 536.744 44.6748H547.354C547.496 44.6747 547.638 44.7014 547.771 44.7538C547.956 44.8309 548.111 44.9706 548.209 45.1502L549.289 47.0532C549.37 47.1954 549.485 47.3133 549.623 47.3952C549.761 47.4771 549.917 47.5202 550.077 47.5202H575.475C575.717 47.5202 575.949 47.6197 576.12 47.7967C576.291 47.9737 576.387 48.2138 576.387 48.4642V72.3611C576.387 72.4851 576.363 72.6079 576.318 72.7224C576.272 72.8369 576.204 72.941 576.12 73.0286C576.035 73.1163 575.934 73.1858 575.824 73.2333C575.713 73.2807 575.594 73.3051 575.475 73.3051Z" fill="#92E3A9"/>
<path opacity="0.1" d="M575.475 73.3051H534.198C534.079 73.3051 533.96 73.2807 533.849 73.2333C533.738 73.1858 533.638 73.1163 533.553 73.0286C533.468 72.941 533.401 72.8369 533.355 72.7224C533.309 72.6079 533.286 72.4851 533.286 72.3611V48.4692C533.286 48.2189 533.382 47.9788 533.553 47.8017C533.724 47.6247 533.956 47.5252 534.198 47.5252H534.31C534.493 47.5249 534.672 47.4681 534.823 47.3621C534.974 47.2562 535.091 47.1059 535.16 46.9306L535.788 45.2963C535.858 45.1077 535.987 44.9483 536.153 44.8428C536.332 44.7334 536.536 44.6754 536.744 44.6748H547.354C547.496 44.6747 547.638 44.7014 547.771 44.7538C547.956 44.8309 548.111 44.9706 548.209 45.1502L549.289 47.0532C549.37 47.1954 549.485 47.3133 549.623 47.3952C549.761 47.4771 549.917 47.5202 550.077 47.5202H575.475C575.717 47.5202 575.949 47.6197 576.12 47.7967C576.291 47.9737 576.387 48.2138 576.387 48.4642V72.3611C576.387 72.4851 576.363 72.6079 576.318 72.7224C576.272 72.8369 576.204 72.941 576.12 73.0286C576.035 73.1163 575.934 73.1858 575.824 73.2333C575.713 73.2807 575.594 73.3051 575.475 73.3051Z" fill="#263238"/>
<path d="M575.475 73.3051H534.198C534.079 73.3051 533.96 73.2807 533.849 73.2333C533.738 73.1858 533.638 73.1163 533.553 73.0286C533.468 72.941 533.401 72.8369 533.355 72.7224C533.309 72.6079 533.286 72.4851 533.286 72.3611V48.4692C533.286 48.2189 533.382 47.9788 533.553 47.8017C533.724 47.6247 533.956 47.5252 534.198 47.5252H534.31C534.493 47.5249 534.672 47.4681 534.823 47.3621C534.974 47.2562 535.091 47.1059 535.16 46.9306L535.788 45.2963C535.858 45.1077 535.987 44.9483 536.153 44.8428C536.332 44.7334 536.536 44.6754 536.744 44.6748H547.354C547.496 44.6747 547.638 44.7014 547.771 44.7538C547.956 44.8309 548.111 44.9706 548.209 45.1502L549.289 47.0532C549.37 47.1954 549.485 47.3133 549.623 47.3952C549.761 47.4771 549.917 47.5202 550.077 47.5202H575.475C575.717 47.5202 575.949 47.6197 576.12 47.7967C576.291 47.9737 576.387 48.2138 576.387 48.4642V72.3611C576.387 72.4851 576.363 72.6079 576.318 72.7224C576.272 72.8369 576.204 72.941 576.12 73.0286C576.035 73.1163 575.934 73.1858 575.824 73.2333C575.713 73.2807 575.594 73.3051 575.475 73.3051V73.3051Z" stroke="#263238" stroke-miterlimit="10"/>
<path d="M544.949 47.4446H538.344C538.186 47.4446 538.035 47.3798 537.924 47.2645C537.812 47.1492 537.75 46.9929 537.75 46.8298C537.749 46.749 537.765 46.6688 537.794 46.594C537.824 46.5193 537.868 46.4513 537.923 46.394C537.978 46.3368 538.044 46.2913 538.116 46.2603C538.188 46.2293 538.266 46.2134 538.344 46.2134H544.949C545.107 46.2134 545.259 46.2783 545.37 46.3939C545.482 46.5095 545.545 46.6663 545.545 46.8298C545.545 46.9107 545.529 46.9908 545.5 47.0655C545.47 47.1402 545.426 47.208 545.37 47.2651C545.315 47.3222 545.249 47.3675 545.177 47.3983C545.105 47.4291 545.027 47.4448 544.949 47.4446Z" fill="white"/>
<path d="M575.475 77.4743H534.198C533.956 77.4743 533.724 77.3749 533.553 77.1978C533.382 77.0208 533.286 76.7807 533.286 76.5303V52.6384C533.286 52.3881 533.382 52.148 533.553 51.9709C533.724 51.7939 533.956 51.6945 534.198 51.6945H534.31C534.493 51.6943 534.672 51.6376 534.823 51.5316C534.974 51.4257 535.092 51.2753 535.16 51.0998L535.788 49.4672C535.858 49.2783 535.986 49.1188 536.153 49.0137C536.332 48.9036 536.536 48.8456 536.744 48.8457H547.354C547.496 48.8455 547.638 48.8723 547.771 48.9246C547.957 49.0019 548.111 49.1423 548.209 49.3227L549.289 51.2275C549.37 51.3697 549.485 51.4875 549.623 51.5695C549.761 51.6514 549.917 51.6945 550.077 51.6945H575.475C575.717 51.6945 575.949 51.7939 576.12 51.9709C576.291 52.148 576.387 52.3881 576.387 52.6384V76.5303C576.387 76.7807 576.291 77.0208 576.12 77.1978C575.949 77.3749 575.717 77.4743 575.475 77.4743Z" fill="#263238" stroke="#263238" stroke-miterlimit="10"/>
<path d="M548.114 42.518L541.56 41.6781C541.404 41.6576 541.261 41.5738 541.164 41.4451C541.067 41.3164 541.024 41.1532 541.042 40.9911C541.062 40.829 541.143 40.6817 541.268 40.5815C541.393 40.4813 541.551 40.4365 541.708 40.457L548.26 41.2968C548.416 41.317 548.559 41.4006 548.656 41.5295C548.753 41.6583 548.797 41.8217 548.778 41.9838C548.768 42.064 548.743 42.1415 548.705 42.2118C548.666 42.282 548.614 42.3438 548.553 42.3934C548.491 42.443 548.42 42.4795 548.345 42.5009C548.27 42.5223 548.191 42.5281 548.114 42.518Z" fill="#92E3A9"/>
<path opacity="0.5" d="M548.114 42.518L541.56 41.6781C541.404 41.6576 541.261 41.5738 541.164 41.4451C541.067 41.3164 541.024 41.1532 541.042 40.9911C541.062 40.829 541.143 40.6817 541.268 40.5815C541.393 40.4813 541.551 40.4365 541.708 40.457L548.26 41.2968C548.416 41.317 548.559 41.4006 548.656 41.5295C548.753 41.6583 548.797 41.8217 548.778 41.9838C548.768 42.064 548.743 42.1415 548.705 42.2118C548.666 42.282 548.614 42.3438 548.553 42.3934C548.491 42.443 548.42 42.4795 548.345 42.5009C548.27 42.5223 548.191 42.5281 548.114 42.518Z" fill="white"/>
<path d="M544.949 51.6152H538.344C538.266 51.6152 538.188 51.5993 538.116 51.5683C538.044 51.5373 537.978 51.4918 537.923 51.4346C537.868 51.3773 537.824 51.3093 537.794 51.2345C537.765 51.1598 537.749 51.0796 537.75 50.9988C537.75 50.8356 537.812 50.679 537.923 50.5635C538.035 50.4479 538.186 50.3828 538.344 50.3823H544.949C545.107 50.3823 545.259 50.4473 545.37 50.5629C545.482 50.6785 545.545 50.8353 545.545 50.9988C545.545 51.1623 545.482 51.3191 545.37 51.4347C545.259 51.5503 545.107 51.6152 544.949 51.6152Z" fill="#92E3A9"/>
<path opacity="0.5" d="M544.949 51.6152H538.344C538.266 51.6152 538.188 51.5993 538.116 51.5683C538.044 51.5373 537.978 51.4918 537.923 51.4346C537.868 51.3773 537.824 51.3093 537.794 51.2345C537.765 51.1598 537.749 51.0796 537.75 50.9988C537.75 50.8356 537.812 50.679 537.923 50.5635C538.035 50.4479 538.186 50.3828 538.344 50.3823H544.949C545.107 50.3823 545.259 50.4473 545.37 50.5629C545.482 50.6785 545.545 50.8353 545.545 50.9988C545.545 51.1623 545.482 51.3191 545.37 51.4347C545.259 51.5503 545.107 51.6152 544.949 51.6152Z" fill="white"/>
<path d="M576.824 58.8799H532.847C532.375 58.8799 531.992 59.2762 531.992 59.7651V87.2935C531.992 87.7824 532.375 88.1787 532.847 88.1787H576.824C577.296 88.1787 577.679 87.7824 577.679 87.2935V59.7651C577.679 59.2762 577.296 58.8799 576.824 58.8799Z" fill="white"/>
<g style="mix-blend-mode:multiply">
<path d="M577.68 66.7661C572.615 71.6625 566.861 75.7346 560.614 78.8431C551.384 83.4102 540.833 86.5579 534.686 88.1788H576.822C576.935 88.179 577.046 88.1563 577.15 88.1119C577.254 88.0675 577.349 88.0024 577.428 87.9201C577.508 87.8379 577.571 87.7403 577.614 87.6327C577.657 87.5252 577.68 87.41 577.68 87.2936V66.7661Z" fill="#92E3A9"/>
</g>
<path opacity="0.2" d="M577.68 66.7661C572.615 71.6625 566.861 75.7346 560.614 78.8431C551.384 83.4102 540.833 86.5579 534.686 88.1788H576.822C576.935 88.179 577.046 88.1563 577.15 88.1119C577.254 88.0675 577.349 88.0024 577.428 87.9201C577.508 87.8379 577.571 87.7403 577.614 87.6327C577.657 87.5252 577.68 87.41 577.68 87.2936V66.7661Z" fill="white"/>
<path d="M576.824 58.8799H532.847C532.375 58.8799 531.992 59.2762 531.992 59.7651V87.2935C531.992 87.7824 532.375 88.1787 532.847 88.1787H576.824C577.296 88.1787 577.679 87.7824 577.679 87.2935V59.7651C577.679 59.2762 577.296 58.8799 576.824 58.8799Z" stroke="#263238" stroke-miterlimit="10"/>
<path d="M532.653 61.4536V60.2778C532.653 60.0428 532.744 59.8177 532.904 59.6517C533.065 59.4858 533.283 59.3926 533.51 59.3926H535.369" stroke="#263238" stroke-miterlimit="10"/>
<path d="M532.653 79.3102V62.8862" stroke="#263238" stroke-miterlimit="10"/>
<path d="M577.017 84.9136V86.773C577.017 86.8894 576.995 87.0047 576.952 87.1123C576.909 87.2198 576.846 87.3176 576.767 87.4C576.687 87.4824 576.593 87.5477 576.489 87.5923C576.385 87.6369 576.274 87.6599 576.161 87.6599H574.663" stroke="#263238" stroke-miterlimit="10"/>
<path d="M577.017 61.04V83.5311" stroke="#263238" stroke-miterlimit="10"/>
<path d="M561.628 69.5933H548.042C547.797 69.5933 547.599 69.7986 547.599 70.0518V77.2224C547.599 77.4757 547.797 77.681 548.042 77.681H561.628C561.872 77.681 562.071 77.4757 562.071 77.2224V70.0518C562.071 69.7986 561.872 69.5933 561.628 69.5933Z" fill="#263238" stroke="#263238" stroke-miterlimit="10"/>
<path d="M561.628 69.5933H548.042C547.797 69.5933 547.599 69.7986 547.599 70.0518V71.5938C547.599 71.847 547.797 72.0523 548.042 72.0523H561.628C561.872 72.0523 562.071 71.847 562.071 71.5938V70.0518C562.071 69.7986 561.872 69.5933 561.628 69.5933Z" fill="white" stroke="#263238" stroke-miterlimit="10"/>
<path d="M535.207 44.9859L535.504 45.5587L536.136 46.029C536.175 46.0592 536.223 46.0763 536.272 46.0781C536.321 46.0799 536.37 46.0663 536.412 46.0391L536.467 46.0021C536.507 45.9769 536.537 45.9374 536.551 45.891C536.565 45.8447 536.562 45.7946 536.543 45.7502L536.184 44.8969L536.426 45.0917C536.465 45.1224 536.513 45.1363 536.561 45.1307C536.609 45.125 536.654 45.1002 536.684 45.0615C536.711 45.0269 536.726 44.984 536.726 44.9397C536.726 44.8955 536.711 44.8525 536.684 44.818L536.121 44.0806L535.416 44.1931L535.207 44.9859Z" fill="white" stroke="#263238" stroke-miterlimit="10"/>
<path d="M536.473 46.002L535.908 45.2344" stroke="#263238" stroke-width="0.5" stroke-linecap="round" stroke-linejoin="round"/>
<path d="M536.142 46.0289L535.699 45.4209" stroke="#263238" stroke-width="0.5" stroke-linecap="round" stroke-linejoin="round"/>
<path d="M544.504 39.4292L545.387 39.4829L546.462 40.1935C546.462 40.1935 546.522 40.4101 546.373 40.4404C546.224 40.4706 545.417 40.1632 545.417 40.1632L544.554 40.1515L544.504 39.4292Z" fill="white" stroke="#263238" stroke-miterlimit="10"/>
<path d="M544.55 40.0392L545.477 40.4725C545.477 40.4725 545.626 40.2558 545.417 40.1635L545.111 39.9468" fill="white"/>
<path d="M544.55 40.0392L545.477 40.4725C545.477 40.4725 545.626 40.2558 545.417 40.1635L545.111 39.9468" stroke="#263238" stroke-linejoin="round"/>
<path d="M577.304 56.4195L576.921 55.2336L576.491 54.6239C576.484 54.6128 576.473 54.6044 576.461 54.6C576.449 54.5956 576.436 54.5956 576.424 54.5998C576.411 54.604 576.401 54.6123 576.394 54.6233C576.386 54.6344 576.383 54.6475 576.384 54.6608V56.4178L576.708 56.8596L577.304 56.4195Z" fill="white"/>
<path d="M583.549 61.6046L580.334 61.7222C580.216 61.7265 580.098 61.6958 579.996 61.6336C579.894 61.5714 579.81 61.4804 579.756 61.3712L577.304 56.4194C577.304 56.4194 576.752 56.7285 576.71 56.8595C576.668 56.9905 578.525 61.8096 579.095 63.2894C579.143 63.4136 579.227 63.5194 579.336 63.5922C579.444 63.665 579.572 63.7012 579.701 63.6958L583.294 63.538" fill="white"/>
<path d="M583.549 61.6046L580.334 61.7222C580.216 61.7265 580.098 61.6958 579.996 61.6336C579.894 61.5714 579.81 61.4804 579.756 61.3712L577.304 56.4194C577.304 56.4194 576.752 56.7285 576.71 56.8595C576.668 56.9905 578.525 61.8096 579.095 63.2894C579.143 63.4136 579.227 63.5194 579.336 63.5922C579.444 63.665 579.572 63.7012 579.701 63.6958L583.294 63.538" stroke="#263238" stroke-miterlimit="10"/>
<path d="M577.54 57.0361L577.037 57.2511" stroke="#263238" stroke-width="0.75" stroke-miterlimit="10"/>
<g opacity="0.5">
<path d="M583.549 61.6046L580.334 61.7222C580.216 61.7265 580.098 61.6958 579.996 61.6336C579.894 61.5714 579.81 61.4804 579.756 61.3712L577.304 56.4194C577.304 56.4194 576.752 56.7285 576.71 56.8595C576.668 56.9905 578.525 61.8096 579.095 63.2894C579.143 63.4136 579.227 63.5194 579.336 63.5922C579.444 63.665 579.572 63.7012 579.701 63.6958L583.294 63.538" fill="#92E3A9"/>
<path d="M583.549 61.6046L580.334 61.7222C580.216 61.7265 580.098 61.6958 579.996 61.6336C579.894 61.5714 579.81 61.4804 579.756 61.3712L577.304 56.4194C577.304 56.4194 576.752 56.7285 576.71 56.8595C576.668 56.9905 578.525 61.8096 579.095 63.2894C579.143 63.4136 579.227 63.5194 579.336 63.5922C579.444 63.665 579.572 63.7012 579.701 63.6958L583.294 63.538" stroke="#263238" stroke-miterlimit="10"/>
<path d="M577.54 57.0356L577.037 57.2506" stroke="#263238" stroke-width="0.75" stroke-miterlimit="10"/>
</g>
<path d="M577.304 56.4195L576.921 55.2336L576.491 54.6239C576.484 54.6128 576.473 54.6044 576.461 54.6C576.449 54.5956 576.436 54.5956 576.424 54.5998C576.411 54.604 576.401 54.6123 576.394 54.6233C576.386 54.6344 576.383 54.6475 576.384 54.6608V56.4178L576.708 56.8596L577.304 56.4195Z" fill="#92E3A9"/>
<path opacity="0.5" d="M577.304 56.4195L576.921 55.2336L576.491 54.6239C576.484 54.6128 576.473 54.6044 576.461 54.6C576.449 54.5956 576.436 54.5956 576.424 54.5998C576.411 54.604 576.401 54.6123 576.394 54.6233C576.386 54.6344 576.383 54.6475 576.384 54.6608V56.4178L576.708 56.8596L577.304 56.4195Z" fill="white"/>
<path d="M577.304 56.4195L576.921 55.2336L576.491 54.6239C576.484 54.6128 576.473 54.6044 576.461 54.6C576.449 54.5956 576.436 54.5956 576.424 54.5998C576.411 54.604 576.401 54.6123 576.394 54.6233C576.386 54.6344 576.383 54.6475 576.384 54.6608V56.4178L576.708 56.8596L577.304 56.4195Z" stroke="#263238" stroke-miterlimit="10"/>
<path d="M584.544 58.4754C584.39 58.6778 584.279 58.9121 584.22 59.1624C584.173 59.4849 584.247 60.7262 584.247 60.7262L582.575 60.9211C582.575 60.9211 582.702 59.6596 582.708 59.4497C582.762 59.1893 582.868 58.9437 583.021 58.7294C583.173 58.515 583.369 58.3368 583.593 58.2067C584.168 57.9144 584.657 58.0572 584.544 58.4754Z" fill="white"/>
<g style="mix-blend-mode:multiply" opacity="0.5">
<path d="M584.533 58.4891C584.229 58.4035 583.861 58.3077 583.549 58.2305C583.335 58.3624 583.149 58.5387 583.004 58.7482C582.858 58.9577 582.756 59.196 582.703 59.4482C582.703 59.5289 582.68 59.764 582.658 60.0227C582.82 59.9841 583.078 59.9253 583.27 59.89C583.422 59.8647 583.571 59.8259 583.716 59.7741L583.66 60.7819H583.697L584.242 60.7181C584.242 60.7181 584.168 59.4768 584.215 59.1543C584.274 58.9118 584.383 58.685 584.533 58.4891Z" fill="#92E3A9"/>
</g>
<path d="M584.544 58.4754C584.39 58.6778 584.279 58.9121 584.22 59.1624C584.173 59.4849 584.247 60.7262 584.247 60.7262L582.575 60.9211C582.575 60.9211 582.702 59.6596 582.708 59.4497C582.762 59.1893 582.868 58.9437 583.021 58.7294C583.173 58.515 583.369 58.3368 583.593 58.2067C584.168 57.9144 584.657 58.0572 584.544 58.4754Z" stroke="#263238" stroke-width="1.00396" stroke-miterlimit="10"/>
<path d="M584.892 58.6889C586.278 56.7942 582.935 54.8256 582.057 56.7086C581.934 56.9408 581.837 57.1864 581.768 57.4409C581.635 57.5249 581.281 57.75 581.216 57.8121C581.151 57.8743 581.378 58.0338 581.503 58.1128C581.264 58.7191 581.3 59.3574 581.368 59.5019C581.487 59.7505 582.071 59.7538 582.456 59.6799C582.841 59.606 582.994 59.2247 583.106 59.1206C583.218 59.0165 583.776 59.1491 583.973 59.2096C584.169 59.2701 584.622 59.0635 584.892 58.6889Z" fill="white"/>
<g style="mix-blend-mode:multiply" opacity="0.5">
<path d="M583.52 58.5073C583.52 58.5073 583.549 58.6501 583.27 58.766C582.991 58.8819 582.935 58.7946 582.853 58.9961C582.817 59.1286 582.746 59.248 582.648 59.34C582.549 59.432 582.427 59.4927 582.296 59.5151C582.031 59.5671 581.764 59.6024 581.495 59.621C581.716 59.7486 582.154 59.7385 582.469 59.6797C582.853 59.6075 583.007 59.2246 583.119 59.1204C583.231 59.0163 583.789 59.149 583.986 59.2094C584.032 59.2189 584.079 59.2189 584.126 59.2094C584.199 59.0407 584.243 58.8598 584.255 58.6753L583.52 58.5073Z" fill="#92E3A9"/>
</g>
<path d="M584.892 58.6889C586.278 56.7942 582.935 54.8256 582.057 56.7086C581.934 56.9408 581.837 57.1864 581.768 57.4409C581.635 57.5249 581.281 57.75 581.216 57.8121C581.151 57.8743 581.378 58.0338 581.503 58.1128C581.264 58.7191 581.3 59.3574 581.368 59.5019C581.487 59.7505 582.071 59.7538 582.456 59.6799C582.841 59.606 582.994 59.2247 583.106 59.1206C583.218 59.0165 583.776 59.1491 583.973 59.2096C584.169 59.2701 584.622 59.0635 584.892 58.6889Z" stroke="#263238" stroke-miterlimit="10"/>
<path d="M582.184 57.6069C582.148 57.6875 582.088 57.7379 582.049 57.7194C582.01 57.7009 582.007 57.6203 582.049 57.5397C582.091 57.4591 582.145 57.4087 582.184 57.4272C582.223 57.4456 582.219 57.5263 582.184 57.6069Z" fill="#263238"/>
<path d="M582.151 57.0897C582.151 57.0897 582.313 56.9503 582.346 57.2711" stroke="#263238" stroke-width="0.5" stroke-linecap="round" stroke-linejoin="round"/>
<path d="M581.471 58.4385C581.471 58.4385 581.471 58.6064 581.763 58.6064" stroke="#263238" stroke-width="0.5" stroke-linecap="round" stroke-linejoin="round"/>
<path d="M581.075 69.4307L580.946 71.0734C580.946 71.0734 580.058 77.6141 580.1 78.3649C580.143 79.1158 580.238 86.8726 580.238 86.8726L581.308 87.0489L582.51 78.4456L584.197 69.7028L581.075 69.4307Z" fill="#92E3A9" stroke="#263238" stroke-miterlimit="10"/>
<path opacity="0.2" d="M581.075 69.4307L580.946 71.0734C580.946 71.0734 580.058 77.6141 580.1 78.3649C580.143 79.1158 580.238 86.8726 580.238 86.8726L581.308 87.0489L582.51 78.4456L584.197 69.7028L581.075 69.4307Z" fill="#263238"/>
<path d="M582.429 75.4053C582.429 75.4053 582.018 77.9063 581.708 79.1325C581.398 80.3587 581.399 81.5815 581.399 82.9118C581.399 84.2421 580.937 86.6945 580.937 86.6945" stroke="#263238" stroke-width="0.75" stroke-miterlimit="10"/>
<path d="M583.246 69.0271C583.95 68.6442 584.707 68.3905 584.923 68.8995C585.352 69.9174 584.839 71.4644 584.839 71.4644L585.23 78.5997L585.946 87.2081L584.876 87.0301C584.876 87.0301 583.233 79.7654 582.976 79.322C582.72 78.8785 582.315 72.6586 582.315 72.6586L581.503 71.8944" fill="#92E3A9"/>
<path d="M583.246 69.0271C583.95 68.6442 584.707 68.3905 584.923 68.8995C585.352 69.9174 584.838 71.4644 584.838 71.4644L585.23 78.5997L585.946 87.2081L584.876 87.0301C584.876 87.0301 583.233 79.7654 582.976 79.322C582.72 78.8785 582.315 72.6586 582.315 72.6586L581.503 71.8944" stroke="#263238" stroke-miterlimit="10"/>
<g opacity="0.2">
<path d="M583.246 69.0271C583.95 68.6442 584.707 68.3905 584.923 68.8995C585.352 69.9174 584.839 71.4644 584.839 71.4644L585.23 78.5997L585.946 87.2081L584.876 87.0301C584.876 87.0301 583.233 79.7654 582.976 79.322C582.72 78.8785 582.315 72.6586 582.315 72.6586L581.503 71.8944" fill="#263238"/>
</g>
<path d="M584.08 74.4326C584.104 76.0871 584.267 76.8833 584.393 77.32C584.548 77.8525 584.496 78.8636 584.496 79.3356C584.496 79.8076 584.29 79.2298 584.754 81.4134C585.218 83.597 585.525 86.6305 585.525 86.6305" stroke="#263238" stroke-width="0.75" stroke-miterlimit="10"/>
<path d="M584.08 70.8264C584.08 70.8264 584.13 70.7189 584.08 73.2216C584.08 73.356 584.08 73.4853 584.08 73.6113" stroke="#263238" stroke-width="0.75" stroke-miterlimit="10"/>
<path d="M581.705 70.3511L581.671 71.1002L581.503 71.6209L581.753 71.9233" stroke="#263238" stroke-width="0.75" stroke-linecap="round" stroke-linejoin="round"/>
<path d="M581.376 70.7979C581.376 70.7979 581.795 71.2312 582.883 71.1002" stroke="#263238" stroke-width="0.75" stroke-linecap="round" stroke-linejoin="round"/>
<path d="M583.947 70.4232C584.759 70.2553 584.811 70.0235 585.092 69.8286C585.097 69.511 585.042 69.1954 584.929 68.8997C584.717 68.3958 583.955 68.6444 583.252 69.0274L582.911 69.5851L581.081 69.4305L581.023 70.173C581.962 70.5064 582.967 70.5924 583.947 70.4232Z" fill="#263238"/>
<path d="M581.258 69.9443L581.24 70.24L581.705 70.3508L581.74 69.9628L581.258 69.9443Z" fill="white" stroke="#263238" stroke-width="0.75" stroke-miterlimit="10"/>
<path d="M584.499 70.3827L584.421 69.647L584.656 69.5664L584.775 70.2198" fill="#92E3A9"/>
<path d="M584.499 70.3827L584.421 69.647L584.656 69.5664L584.775 70.2198" stroke="#263238" stroke-miterlimit="10"/>
<path d="M582.684 70.6279L582.526 69.7695H582.921L583.078 70.5052" fill="#92E3A9"/>
<path d="M582.684 70.6279L582.526 69.7695H582.921L583.078 70.5052" stroke="#263238" stroke-miterlimit="10"/>
<g opacity="0.2">
<path d="M584.499 70.3827L584.421 69.647L584.656 69.5664L584.775 70.2198" fill="#263238"/>
<path d="M582.684 70.6279L582.526 69.7695H582.921L583.078 70.5052" fill="#263238"/>
</g>
<path d="M580.865 62.9199C580.865 62.9199 580.73 63.8521 580.326 65.4395C579.922 67.0268 579.514 68.9299 579.514 68.9299L579.74 69.9074L580.414 68.8828L580.865 62.9199Z" fill="#263238" stroke="#263238" stroke-miterlimit="10"/>
<path d="M581.99 61.5712C581.99 61.5712 581.045 61.803 580.956 62.2683C580.908 62.4824 580.878 62.7005 580.865 62.92L582.305 61.7106L584.106 60.9648L581.99 61.5712Z" fill="#263238" stroke="#263238" stroke-miterlimit="10"/>
<path d="M582.249 61.2117C582.249 61.2117 581.481 62.1104 581.175 62.4799C580.87 62.8494 580.868 66.8152 580.868 67.398C580.868 67.9809 580.563 69.5632 581.073 69.8806C581.583 70.1981 584.702 70.0923 585.009 69.5632C585.316 69.0341 585.519 62.6915 585.468 62.1104C585.43 61.8496 585.331 61.6025 585.179 61.3906C585.028 61.1786 584.828 61.0082 584.598 60.8943C584.243 60.7246 582.249 61.2117 582.249 61.2117Z" fill="white"/>
<g style="mix-blend-mode:multiply" opacity="0.5">
<path d="M584.598 60.894C584.556 60.8763 584.511 60.866 584.465 60.8638L584.244 60.983C584.616 61.2981 584.871 61.7357 584.968 62.2226C585.071 62.93 585.062 63.6499 584.941 64.3542C584.83 65.1319 583.047 64.3542 583.382 64.6431C583.716 64.932 584.968 65.4208 585.025 65.6794C585.082 65.9381 584.405 66.3698 584.161 66.4C583.918 66.4303 584.324 67.0047 584.578 67.4935C584.833 67.9823 584.741 68.6693 584.161 69.1362C583.582 69.6032 582.235 69.8333 581.654 69.8568C581.466 69.8568 581.349 69.9072 581.313 69.9643C582.206 70.1709 584.734 70.0366 585.009 69.5629C585.316 69.0338 585.519 62.6913 585.468 62.1101C585.43 61.8494 585.331 61.6023 585.179 61.3903C585.027 61.1783 584.828 61.008 584.598 60.894Z" fill="#92E3A9"/>
</g>
<path d="M582.249 61.2117C582.249 61.2117 581.481 62.1104 581.175 62.4799C580.87 62.8494 580.868 66.8152 580.868 67.398C580.868 67.9809 580.563 69.5632 581.073 69.8806C581.583 70.1981 584.702 70.0923 585.009 69.5632C585.316 69.0341 585.519 62.6915 585.468 62.1104C585.43 61.8496 585.331 61.6025 585.179 61.3906C585.028 61.1786 584.828 61.0082 584.598 60.8943C584.243 60.7246 582.249 61.2117 582.249 61.2117Z" stroke="#263238" stroke-miterlimit="10"/>
<path d="M583.819 65.2344C582.995 64.969 582.274 64.2266 582.274 64.2266C582.457 65.1088 582.953 65.888 583.664 66.4102" fill="white"/>
<path d="M583.819 65.2344C582.995 64.969 582.274 64.2266 582.274 64.2266C582.457 65.1088 582.953 65.888 583.664 66.4102" stroke="#263238" stroke-width="0.75" stroke-linecap="round" stroke-linejoin="round"/>
<path d="M584.445 60.313L581.992 60.8942L581.839 61.6349L584.598 60.8942L584.445 60.313Z" fill="white" stroke="#263238" stroke-miterlimit="10"/>
<path d="M581.451 88.1574L581.308 87.0421L580.238 86.8657L579.347 87.5225L578.548 87.976V88.1574H581.451Z" fill="#263238" stroke="#263238" stroke-miterlimit="10"/>
<path d="M586.079 88.2447L585.946 87.2083L584.876 87.0303L583.984 87.687L583.186 88.1422V88.2447H586.079Z" fill="#263238" stroke="#263238" stroke-miterlimit="10"/>
<path d="M576.837 55.4519L576.178 55.0572C576.178 55.0572 575.921 55.0252 576.032 55.3209L576.691 55.8466" fill="white"/>
<path d="M576.837 55.4519L576.178 55.0572C576.178 55.0572 575.921 55.0252 576.032 55.3209L576.691 55.8466" stroke="#263238" stroke-linecap="round" stroke-linejoin="round"/>
<path d="M576.739 56.4784C576.708 56.3974 576.663 56.3233 576.605 56.2601L576.481 56.1224L575.811 55.2623C575.811 55.2623 575.603 55.1179 575.648 55.4303L576.064 56.2702L575.325 55.5529C575.325 55.5529 575.185 55.4337 575.185 55.6016C575.185 55.7696 575.856 56.5104 575.856 56.5104L575.116 56.1509C575.116 56.1509 574.953 56.2702 575.07 56.3894C575.187 56.5087 575.809 56.7489 575.809 56.7489L575.255 56.7254C575.255 56.7254 575.093 56.8681 575.208 56.9168C575.323 56.9656 575.971 57.1066 575.971 57.1066C576.054 57.179 576.148 57.2359 576.249 57.2746L576.411 57.5854L577.033 57.2612L576.739 56.4784Z" fill="white" stroke="#263238" stroke-linecap="round" stroke-linejoin="round"/>
<path d="M583.379 63.9345L579.673 64.8332C579.484 64.8677 579.288 64.8332 579.12 64.7355C578.953 64.6378 578.823 64.483 578.753 64.2973L576.415 57.5786L577.036 57.2544L579.62 62.2044C579.678 62.3177 579.771 62.4084 579.883 62.4631C579.995 62.5179 580.122 62.5338 580.243 62.5085L583.077 61.6804" fill="white"/>
<path d="M583.379 63.9345L579.673 64.8332C579.484 64.8677 579.288 64.8332 579.12 64.7355C578.953 64.6378 578.823 64.483 578.753 64.2973L576.415 57.5786L577.036 57.2544L579.62 62.2044C579.678 62.3177 579.771 62.4084 579.883 62.4631C579.995 62.5179 580.122 62.5338 580.243 62.5085L583.077 61.6804" stroke="#263238" stroke-miterlimit="10"/>
<path d="M577.385 57.8877L576.665 58.2606" stroke="#263238" stroke-width="0.75" stroke-miterlimit="10"/>
<path d="M582.918 56.7284C582.918 56.7284 582.523 57.1366 582.72 57.4423C582.836 57.6189 582.925 57.8133 582.983 58.0184C582.983 58.0184 582.82 58.4266 582.95 58.4266C583.08 58.4266 583.015 58.1209 583.246 58.1898C583.476 58.2586 583.705 58.6651 583.509 58.8012C583.362 58.8862 583.206 58.9538 583.044 59.0027C583.024 59.0092 583.005 59.0218 582.992 59.039C582.978 59.0561 582.969 59.077 582.967 59.0992C582.964 59.1213 582.968 59.1437 582.978 59.1635C582.988 59.1834 583.003 59.1999 583.022 59.211C583.235 59.3603 583.481 59.4526 583.738 59.4798C583.947 59.4844 584.157 59.4618 584.361 59.4126C584.361 59.4126 585.011 58.4955 585.478 58.2569C585.946 58.0184 585.741 56.9317 585.741 56.7956C585.741 56.6596 585.282 56.3539 585.282 56.3539C585.282 56.3539 585.413 56.0482 584.822 55.3696C584.231 54.691 583.114 54.5532 583.082 54.7917C583.07 54.8549 583.077 54.9201 583.1 54.9796C583.123 55.0392 583.162 55.0906 583.213 55.1277C583.213 55.1277 582.228 54.6859 581.768 55.1613C581.309 55.6366 582.918 56.7284 582.918 56.7284Z" fill="#263238" stroke="#263238" stroke-miterlimit="10"/>
<path d="M582.917 56.7285C582.917 56.7285 583.716 57.7363 584.9 57.8337" stroke="white" stroke-width="0.5" stroke-linecap="round" stroke-linejoin="round"/>
<path d="M582.635 57.0361C582.635 57.0361 583.007 58.1548 584.544 58.4739" stroke="white" stroke-width="0.5" stroke-linecap="round" stroke-linejoin="round"/>
<rect x="2.5" y="12.5" width="445" height="95" rx="27.5" fill="white" stroke="#A50000" stroke-width="5"/>
<path d="M28.1 67L22.36 60.64V67H20.54V53.06H22.36V59.52L28.12 53.06H30.42L24.1 60.04L30.48 67H28.1ZM32.3327 61.48C32.3327 60.36 32.5593 59.38 33.0127 58.54C33.466 57.6867 34.086 57.0267 34.8727 56.56C35.6727 56.0933 36.5593 55.86 37.5327 55.86C38.4927 55.86 39.326 56.0667 40.0327 56.48C40.7393 56.8933 41.266 57.4133 41.6127 58.04V56.04H43.4527V67H41.6127V64.96C41.2527 65.6 40.7127 66.1333 39.9927 66.56C39.286 66.9733 38.4593 67.18 37.5127 67.18C36.5393 67.18 35.6593 66.94 34.8727 66.46C34.086 65.98 33.466 65.3067 33.0127 64.44C32.5593 63.5733 32.3327 62.5867 32.3327 61.48ZM41.6127 61.5C41.6127 60.6733 41.446 59.9533 41.1127 59.34C40.7793 58.7267 40.326 58.26 39.7527 57.94C39.1927 57.6067 38.5727 57.44 37.8927 57.44C37.2127 57.44 36.5927 57.6 36.0327 57.92C35.4727 58.24 35.026 58.7067 34.6927 59.32C34.3593 59.9333 34.1927 60.6533 34.1927 61.48C34.1927 62.32 34.3593 63.0533 34.6927 63.68C35.026 64.2933 35.4727 64.7667 36.0327 65.1C36.5927 65.42 37.2127 65.58 37.8927 65.58C38.5727 65.58 39.1927 65.42 39.7527 65.1C40.326 64.7667 40.7793 64.2933 41.1127 63.68C41.446 63.0533 41.6127 62.3267 41.6127 61.5ZM52.3683 55.84C53.7016 55.84 54.7816 56.2467 55.6083 57.06C56.4349 57.86 56.8483 59.02 56.8483 60.54V67H55.0483V60.8C55.0483 59.7067 54.7749 58.8733 54.2283 58.3C53.6816 57.7133 52.9349 57.42 51.9883 57.42C51.0283 57.42 50.2616 57.72 49.6883 58.32C49.1283 58.92 48.8483 59.7933 48.8483 60.94V67H47.0283V56.04H48.8483V57.6C49.2083 57.04 49.6949 56.6067 50.3083 56.3C50.9349 55.9933 51.6216 55.84 52.3683 55.84ZM59.6413 61.48C59.6413 60.36 59.8679 59.38 60.3213 58.54C60.7746 57.6867 61.3946 57.0267 62.1813 56.56C62.9813 56.0933 63.8679 55.86 64.8413 55.86C65.8013 55.86 66.6346 56.0667 67.3413 56.48C68.0479 56.8933 68.5746 57.4133 68.9213 58.04V56.04H70.7613V67H68.9213V64.96C68.5613 65.6 68.0213 66.1333 67.3013 66.56C66.5946 66.9733 65.7679 67.18 64.8213 67.18C63.8479 67.18 62.9679 66.94 62.1813 66.46C61.3946 65.98 60.7746 65.3067 60.3213 64.44C59.8679 63.5733 59.6413 62.5867 59.6413 61.48ZM68.9213 61.5C68.9213 60.6733 68.7546 59.9533 68.4213 59.34C68.0879 58.7267 67.6346 58.26 67.0613 57.94C66.5013 57.6067 65.8813 57.44 65.2013 57.44C64.5213 57.44 63.9013 57.6 63.3413 57.92C62.7813 58.24 62.3346 58.7067 62.0013 59.32C61.6679 59.9333 61.5013 60.6533 61.5013 61.48C61.5013 62.32 61.6679 63.0533 62.0013 63.68C62.3346 64.2933 62.7813 64.7667 63.3413 65.1C63.9013 65.42 64.5213 65.58 65.2013 65.58C65.8813 65.58 66.5013 65.42 67.0613 65.1C67.6346 64.7667 68.0879 64.2933 68.4213 63.68C68.7546 63.0533 68.9213 62.3267 68.9213 61.5ZM76.1569 52.2V67H74.3369V52.2H76.1569ZM95.3108 56.04V67H93.4908V65.38C93.1441 65.94 92.6574 66.38 92.0308 66.7C91.4174 67.0067 90.7374 67.16 89.9908 67.16C89.1374 67.16 88.3708 66.9867 87.6908 66.64C87.0108 66.28 86.4708 65.7467 86.0708 65.04C85.6841 64.3333 85.4908 63.4733 85.4908 62.46V56.04H87.2908V62.22C87.2908 63.3 87.5641 64.1333 88.1108 64.72C88.6574 65.2933 89.4041 65.58 90.3508 65.58C91.3241 65.58 92.0908 65.28 92.6508 64.68C93.2108 64.08 93.4908 63.2067 93.4908 62.06V56.04H95.3108ZM104.224 55.84C105.557 55.84 106.637 56.2467 107.464 57.06C108.29 57.86 108.704 59.02 108.704 60.54V67H106.904V60.8C106.904 59.7067 106.63 58.8733 106.084 58.3C105.537 57.7133 104.79 57.42 103.844 57.42C102.884 57.42 102.117 57.72 101.544 58.32C100.984 58.92 100.704 59.7933 100.704 60.94V67H98.8838V56.04H100.704V57.6C101.064 57.04 101.55 56.6067 102.164 56.3C102.79 55.9933 103.477 55.84 104.224 55.84ZM114.397 57.54V64C114.397 64.5333 114.51 64.9133 114.737 65.14C114.963 65.3533 115.357 65.46 115.917 65.46H117.257V67H115.617C114.603 67 113.843 66.7667 113.337 66.3C112.83 65.8333 112.577 65.0667 112.577 64V57.54H111.157V56.04H112.577V53.28H114.397V56.04H117.257V57.54H114.397ZM129.682 56.04V67H127.862V65.38C127.515 65.94 127.029 66.38 126.402 66.7C125.789 67.0067 125.109 67.16 124.362 67.16C123.509 67.16 122.742 66.9867 122.062 66.64C121.382 66.28 120.842 65.7467 120.442 65.04C120.055 64.3333 119.862 63.4733 119.862 62.46V56.04H121.662V62.22C121.662 63.3 121.935 64.1333 122.482 64.72C123.029 65.2933 123.775 65.58 124.722 65.58C125.695 65.58 126.462 65.28 127.022 64.68C127.582 64.08 127.862 63.2067 127.862 62.06V56.04H129.682ZM139.375 67L135.075 62.16V67H133.255V52.2H135.075V60.9L139.295 56.04H141.835L136.675 61.5L141.855 67H139.375ZM149.2 61.48C149.2 60.36 149.427 59.38 149.88 58.54C150.333 57.6867 150.953 57.0267 151.74 56.56C152.54 56.0933 153.427 55.86 154.4 55.86C155.36 55.86 156.193 56.0667 156.9 56.48C157.607 56.8933 158.133 57.4133 158.48 58.04V56.04H160.32V67H158.48V64.96C158.12 65.6 157.58 66.1333 156.86 66.56C156.153 66.9733 155.327 67.18 154.38 67.18C153.407 67.18 152.527 66.94 151.74 66.46C150.953 65.98 150.333 65.3067 149.88 64.44C149.427 63.5733 149.2 62.5867 149.2 61.48ZM158.48 61.5C158.48 60.6733 158.313 59.9533 157.98 59.34C157.647 58.7267 157.193 58.26 156.62 57.94C156.06 57.6067 155.44 57.44 154.76 57.44C154.08 57.44 153.46 57.6 152.9 57.92C152.34 58.24 151.893 58.7067 151.56 59.32C151.227 59.9333 151.06 60.6533 151.06 61.48C151.06 62.32 151.227 63.0533 151.56 63.68C151.893 64.2933 152.34 64.7667 152.9 65.1C153.46 65.42 154.08 65.58 154.76 65.58C155.44 65.58 156.06 65.42 156.62 65.1C157.193 64.7667 157.647 64.2933 157.98 63.68C158.313 63.0533 158.48 62.3267 158.48 61.5ZM163.215 61.48C163.215 60.36 163.442 59.38 163.895 58.54C164.349 57.6867 164.969 57.0267 165.755 56.56C166.555 56.0933 167.449 55.86 168.435 55.86C169.289 55.86 170.082 56.06 170.815 56.46C171.549 56.8467 172.109 57.36 172.495 58V52.2H174.335V67H172.495V64.94C172.135 65.5933 171.602 66.1333 170.895 66.56C170.189 66.9733 169.362 67.18 168.415 67.18C167.442 67.18 166.555 66.94 165.755 66.46C164.969 65.98 164.349 65.3067 163.895 64.44C163.442 63.5733 163.215 62.5867 163.215 61.48ZM172.495 61.5C172.495 60.6733 172.329 59.9533 171.995 59.34C171.662 58.7267 171.209 58.26 170.635 57.94C170.075 57.6067 169.455 57.44 168.775 57.44C168.095 57.44 167.475 57.6 166.915 57.92C166.355 58.24 165.909 58.7067 165.575 59.32C165.242 59.9333 165.075 60.6533 165.075 61.48C165.075 62.32 165.242 63.0533 165.575 63.68C165.909 64.2933 166.355 64.7667 166.915 65.1C167.475 65.42 168.095 65.58 168.775 65.58C169.455 65.58 170.075 65.42 170.635 65.1C171.209 64.7667 171.662 64.2933 171.995 63.68C172.329 63.0533 172.495 62.3267 172.495 61.5ZM187.631 56.04V67H185.811V65.38C185.464 65.94 184.978 66.38 184.351 66.7C183.738 67.0067 183.058 67.16 182.311 67.16C181.458 67.16 180.691 66.9867 180.011 66.64C179.331 66.28 178.791 65.7467 178.391 65.04C178.004 64.3333 177.811 63.4733 177.811 62.46V56.04H179.611V62.22C179.611 63.3 179.884 64.1333 180.431 64.72C180.978 65.2933 181.724 65.58 182.671 65.58C183.644 65.58 184.411 65.28 184.971 64.68C185.531 64.08 185.811 63.2067 185.811 62.06V56.04H187.631ZM190.524 61.48C190.524 60.36 190.751 59.38 191.204 58.54C191.657 57.6867 192.277 57.0267 193.064 56.56C193.864 56.0933 194.751 55.86 195.724 55.86C196.684 55.86 197.517 56.0667 198.224 56.48C198.931 56.8933 199.457 57.4133 199.804 58.04V56.04H201.644V67H199.804V64.96C199.444 65.6 198.904 66.1333 198.184 66.56C197.477 66.9733 196.651 67.18 195.704 67.18C194.731 67.18 193.851 66.94 193.064 66.46C192.277 65.98 191.657 65.3067 191.204 64.44C190.751 63.5733 190.524 62.5867 190.524 61.48ZM199.804 61.5C199.804 60.6733 199.637 59.9533 199.304 59.34C198.971 58.7267 198.517 58.26 197.944 57.94C197.384 57.6067 196.764 57.44 196.084 57.44C195.404 57.44 194.784 57.6 194.224 57.92C193.664 58.24 193.217 58.7067 192.884 59.32C192.551 59.9333 192.384 60.6533 192.384 61.48C192.384 62.32 192.551 63.0533 192.884 63.68C193.217 64.2933 193.664 64.7667 194.224 65.1C194.784 65.42 195.404 65.58 196.084 65.58C196.764 65.58 197.384 65.42 197.944 65.1C198.517 64.7667 198.971 64.2933 199.304 63.68C199.637 63.0533 199.804 62.3267 199.804 61.5ZM210.56 55.84C211.893 55.84 212.973 56.2467 213.8 57.06C214.626 57.86 215.04 59.02 215.04 60.54V67H213.24V60.8C213.24 59.7067 212.966 58.8733 212.42 58.3C211.873 57.7133 211.126 57.42 210.18 57.42C209.22 57.42 208.453 57.72 207.88 58.32C207.32 58.92 207.04 59.7933 207.04 60.94V67H205.22V56.04H207.04V57.6C207.4 57.04 207.886 56.6067 208.5 56.3C209.126 55.9933 209.813 55.84 210.56 55.84ZM226.165 52.2V67H224.345V52.2H226.165ZM229.087 61.48C229.087 60.36 229.313 59.38 229.767 58.54C230.22 57.6867 230.84 57.0267 231.627 56.56C232.427 56.0933 233.313 55.86 234.287 55.86C235.247 55.86 236.08 56.0667 236.787 56.48C237.493 56.8933 238.02 57.4133 238.367 58.04V56.04H240.207V67H238.367V64.96C238.007 65.6 237.467 66.1333 236.747 66.56C236.04 66.9733 235.213 67.18 234.267 67.18C233.293 67.18 232.413 66.94 231.627 66.46C230.84 65.98 230.22 65.3067 229.767 64.44C229.313 63.5733 229.087 62.5867 229.087 61.48ZM238.367 61.5C238.367 60.6733 238.2 59.9533 237.867 59.34C237.533 58.7267 237.08 58.26 236.507 57.94C235.947 57.6067 235.327 57.44 234.647 57.44C233.967 57.44 233.347 57.6 232.787 57.92C232.227 58.24 231.78 58.7067 231.447 59.32C231.113 59.9333 230.947 60.6533 230.947 61.48C230.947 62.32 231.113 63.0533 231.447 63.68C231.78 64.2933 232.227 64.7667 232.787 65.1C233.347 65.42 233.967 65.58 234.647 65.58C235.327 65.58 235.947 65.42 236.507 65.1C237.08 64.7667 237.533 64.2933 237.867 63.68C238.2 63.0533 238.367 62.3267 238.367 61.5ZM249.122 55.84C250.456 55.84 251.536 56.2467 252.362 57.06C253.189 57.86 253.602 59.02 253.602 60.54V67H251.802V60.8C251.802 59.7067 251.529 58.8733 250.982 58.3C250.436 57.7133 249.689 57.42 248.742 57.42C247.782 57.42 247.016 57.72 246.442 58.32C245.882 58.92 245.602 59.7933 245.602 60.94V67H243.782V56.04H245.602V57.6C245.962 57.04 246.449 56.6067 247.062 56.3C247.689 55.9933 248.376 55.84 249.122 55.84ZM261.595 55.86C262.542 55.86 263.368 56.0667 264.075 56.48C264.795 56.8933 265.328 57.4133 265.675 58.04V56.04H267.515V67.24C267.515 68.24 267.302 69.1267 266.875 69.9C266.448 70.6867 265.835 71.3 265.035 71.74C264.248 72.18 263.328 72.4 262.275 72.4C260.835 72.4 259.635 72.06 258.675 71.38C257.715 70.7 257.148 69.7733 256.975 68.6H258.775C258.975 69.2667 259.388 69.8 260.015 70.2C260.642 70.6133 261.395 70.82 262.275 70.82C263.275 70.82 264.088 70.5067 264.715 69.88C265.355 69.2533 265.675 68.3733 265.675 67.24V64.94C265.315 65.58 264.782 66.1133 264.075 66.54C263.368 66.9667 262.542 67.18 261.595 67.18C260.622 67.18 259.735 66.94 258.935 66.46C258.148 65.98 257.528 65.3067 257.075 64.44C256.622 63.5733 256.395 62.5867 256.395 61.48C256.395 60.36 256.622 59.38 257.075 58.54C257.528 57.6867 258.148 57.0267 258.935 56.56C259.735 56.0933 260.622 55.86 261.595 55.86ZM265.675 61.5C265.675 60.6733 265.508 59.9533 265.175 59.34C264.842 58.7267 264.388 58.26 263.815 57.94C263.255 57.6067 262.635 57.44 261.955 57.44C261.275 57.44 260.655 57.6 260.095 57.92C259.535 58.24 259.088 58.7067 258.755 59.32C258.422 59.9333 258.255 60.6533 258.255 61.48C258.255 62.32 258.422 63.0533 258.755 63.68C259.088 64.2933 259.535 64.7667 260.095 65.1C260.655 65.42 261.275 65.58 261.955 65.58C262.635 65.58 263.255 65.42 263.815 65.1C264.388 64.7667 264.842 64.2933 265.175 63.68C265.508 63.0533 265.675 62.3267 265.675 61.5ZM274.971 67.18C274.131 67.18 273.377 67.04 272.711 66.76C272.044 66.4667 271.517 66.0667 271.131 65.56C270.744 65.04 270.531 64.4467 270.491 63.78H272.371C272.424 64.3267 272.677 64.7733 273.131 65.12C273.597 65.4667 274.204 65.64 274.951 65.64C275.644 65.64 276.191 65.4867 276.591 65.18C276.991 64.8733 277.191 64.4867 277.191 64.02C277.191 63.54 276.977 63.1867 276.551 62.96C276.124 62.72 275.464 62.4867 274.571 62.26C273.757 62.0467 273.091 61.8333 272.571 61.62C272.064 61.3933 271.624 61.0667 271.251 60.64C270.891 60.2 270.711 59.6267 270.711 58.92C270.711 58.36 270.877 57.8467 271.211 57.38C271.544 56.9133 272.017 56.5467 272.631 56.28C273.244 56 273.944 55.86 274.731 55.86C275.944 55.86 276.924 56.1667 277.671 56.78C278.417 57.3933 278.817 58.2333 278.871 59.3H277.051C277.011 58.7267 276.777 58.2667 276.351 57.92C275.937 57.5733 275.377 57.4 274.671 57.4C274.017 57.4 273.497 57.54 273.111 57.82C272.724 58.1 272.531 58.4667 272.531 58.92C272.531 59.28 272.644 59.58 272.871 59.82C273.111 60.0467 273.404 60.2333 273.751 60.38C274.111 60.5133 274.604 60.6667 275.231 60.84C276.017 61.0533 276.657 61.2667 277.151 61.48C277.644 61.68 278.064 61.9867 278.411 62.4C278.771 62.8133 278.957 63.3533 278.971 64.02C278.971 64.62 278.804 65.16 278.471 65.64C278.137 66.12 277.664 66.5 277.051 66.78C276.451 67.0467 275.757 67.18 274.971 67.18ZM291.76 56.04V67H289.94V65.38C289.593 65.94 289.107 66.38 288.48 66.7C287.867 67.0067 287.187 67.16 286.44 67.16C285.587 67.16 284.82 66.9867 284.14 66.64C283.46 66.28 282.92 65.7467 282.52 65.04C282.133 64.3333 281.94 63.4733 281.94 62.46V56.04H283.74V62.22C283.74 63.3 284.013 64.1333 284.56 64.72C285.107 65.2933 285.853 65.58 286.8 65.58C287.773 65.58 288.54 65.28 289.1 64.68C289.66 64.08 289.94 63.2067 289.94 62.06V56.04H291.76ZM300.673 55.84C302.006 55.84 303.086 56.2467 303.913 57.06C304.74 57.86 305.153 59.02 305.153 60.54V67H303.353V60.8C303.353 59.7067 303.08 58.8733 302.533 58.3C301.986 57.7133 301.24 57.42 300.293 57.42C299.333 57.42 298.566 57.72 297.993 58.32C297.433 58.92 297.153 59.7933 297.153 60.94V67H295.333V56.04H297.153V57.6C297.513 57.04 298 56.6067 298.613 56.3C299.24 55.9933 299.926 55.84 300.673 55.84ZM313.146 55.86C314.093 55.86 314.919 56.0667 315.626 56.48C316.346 56.8933 316.879 57.4133 317.226 58.04V56.04H319.066V67.24C319.066 68.24 318.853 69.1267 318.426 69.9C317.999 70.6867 317.386 71.3 316.586 71.74C315.799 72.18 314.879 72.4 313.826 72.4C312.386 72.4 311.186 72.06 310.226 71.38C309.266 70.7 308.699 69.7733 308.526 68.6H310.326C310.526 69.2667 310.939 69.8 311.566 70.2C312.193 70.6133 312.946 70.82 313.826 70.82C314.826 70.82 315.639 70.5067 316.266 69.88C316.906 69.2533 317.226 68.3733 317.226 67.24V64.94C316.866 65.58 316.333 66.1133 315.626 66.54C314.919 66.9667 314.093 67.18 313.146 67.18C312.173 67.18 311.286 66.94 310.486 66.46C309.699 65.98 309.079 65.3067 308.626 64.44C308.173 63.5733 307.946 62.5867 307.946 61.48C307.946 60.36 308.173 59.38 308.626 58.54C309.079 57.6867 309.699 57.0267 310.486 56.56C311.286 56.0933 312.173 55.86 313.146 55.86ZM317.226 61.5C317.226 60.6733 317.059 59.9533 316.726 59.34C316.393 58.7267 315.939 58.26 315.366 57.94C314.806 57.6067 314.186 57.44 313.506 57.44C312.826 57.44 312.206 57.6 311.646 57.92C311.086 58.24 310.639 58.7067 310.306 59.32C309.973 59.9333 309.806 60.6533 309.806 61.48C309.806 62.32 309.973 63.0533 310.306 63.68C310.639 64.2933 311.086 64.7667 311.646 65.1C312.206 65.42 312.826 65.58 313.506 65.58C314.186 65.58 314.806 65.42 315.366 65.1C315.939 64.7667 316.393 64.2933 316.726 63.68C317.059 63.0533 317.226 62.3267 317.226 61.5ZM327.794 61.48C327.794 60.36 328.02 59.38 328.474 58.54C328.927 57.6867 329.547 57.0267 330.334 56.56C331.134 56.0933 332.027 55.86 333.014 55.86C333.867 55.86 334.66 56.06 335.394 56.46C336.127 56.8467 336.687 57.36 337.074 58V52.2H338.914V67H337.074V64.94C336.714 65.5933 336.18 66.1333 335.474 66.56C334.767 66.9733 333.94 67.18 332.994 67.18C332.02 67.18 331.134 66.94 330.334 66.46C329.547 65.98 328.927 65.3067 328.474 64.44C328.02 63.5733 327.794 62.5867 327.794 61.48ZM337.074 61.5C337.074 60.6733 336.907 59.9533 336.574 59.34C336.24 58.7267 335.787 58.26 335.214 57.94C334.654 57.6067 334.034 57.44 333.354 57.44C332.674 57.44 332.054 57.6 331.494 57.92C330.934 58.24 330.487 58.7067 330.154 59.32C329.82 59.9333 329.654 60.6533 329.654 61.48C329.654 62.32 329.82 63.0533 330.154 63.68C330.487 64.2933 330.934 64.7667 331.494 65.1C332.054 65.42 332.674 65.58 333.354 65.58C334.034 65.58 334.654 65.42 335.214 65.1C335.787 64.7667 336.24 64.2933 336.574 63.68C336.907 63.0533 337.074 62.3267 337.074 61.5ZM341.809 61.48C341.809 60.36 342.036 59.38 342.489 58.54C342.943 57.6867 343.563 57.0267 344.349 56.56C345.149 56.0933 346.036 55.86 347.009 55.86C347.969 55.86 348.803 56.0667 349.509 56.48C350.216 56.8933 350.743 57.4133 351.089 58.04V56.04H352.929V67H351.089V64.96C350.729 65.6 350.189 66.1333 349.469 66.56C348.763 66.9733 347.936 67.18 346.989 67.18C346.016 67.18 345.136 66.94 344.349 66.46C343.563 65.98 342.943 65.3067 342.489 64.44C342.036 63.5733 341.809 62.5867 341.809 61.48ZM351.089 61.5C351.089 60.6733 350.923 59.9533 350.589 59.34C350.256 58.7267 349.803 58.26 349.229 57.94C348.669 57.6067 348.049 57.44 347.369 57.44C346.689 57.44 346.069 57.6 345.509 57.92C344.949 58.24 344.503 58.7067 344.169 59.32C343.836 59.9333 343.669 60.6533 343.669 61.48C343.669 62.32 343.836 63.0533 344.169 63.68C344.503 64.2933 344.949 64.7667 345.509 65.1C346.069 65.42 346.689 65.58 347.369 65.58C348.049 65.58 348.669 65.42 349.229 65.1C349.803 64.7667 350.256 64.2933 350.589 63.68C350.923 63.0533 351.089 62.3267 351.089 61.5ZM358.325 57.82C358.645 57.1933 359.098 56.7067 359.685 56.36C360.285 56.0133 361.012 55.84 361.865 55.84V57.72H361.385C359.345 57.72 358.325 58.8267 358.325 61.04V67H356.505V56.04H358.325V57.82ZM365.406 54.26C365.059 54.26 364.766 54.14 364.526 53.9C364.286 53.66 364.166 53.3667 364.166 53.02C364.166 52.6733 364.286 52.38 364.526 52.14C364.766 51.9 365.059 51.78 365.406 51.78C365.739 51.78 366.019 51.9 366.246 52.14C366.486 52.38 366.606 52.6733 366.606 53.02C366.606 53.3667 366.486 53.66 366.246 53.9C366.019 54.14 365.739 54.26 365.406 54.26ZM366.286 56.04V67H364.466V56.04H366.286ZM377.54 58.06C377.9 57.4333 378.433 56.9133 379.14 56.5C379.86 56.0733 380.693 55.86 381.64 55.86C382.613 55.86 383.493 56.0933 384.28 56.56C385.08 57.0267 385.706 57.6867 386.16 58.54C386.613 59.38 386.84 60.36 386.84 61.48C386.84 62.5867 386.613 63.5733 386.16 64.44C385.706 65.3067 385.08 65.98 384.28 66.46C383.493 66.94 382.613 67.18 381.64 67.18C380.706 67.18 379.88 66.9733 379.16 66.56C378.453 66.1333 377.913 65.6067 377.54 64.98V72.2H375.72V56.04H377.54V58.06ZM384.98 61.48C384.98 60.6533 384.813 59.9333 384.48 59.32C384.146 58.7067 383.693 58.24 383.12 57.92C382.56 57.6 381.94 57.44 381.26 57.44C380.593 57.44 379.973 57.6067 379.4 57.94C378.84 58.26 378.386 58.7333 378.04 59.36C377.706 59.9733 377.54 60.6867 377.54 61.5C377.54 62.3267 377.706 63.0533 378.04 63.68C378.386 64.2933 378.84 64.7667 379.4 65.1C379.973 65.42 380.593 65.58 381.26 65.58C381.94 65.58 382.56 65.42 383.12 65.1C383.693 64.7667 384.146 64.2933 384.48 63.68C384.813 63.0533 384.98 62.32 384.98 61.48ZM399.455 56.04V67H397.635V65.38C397.289 65.94 396.802 66.38 396.175 66.7C395.562 67.0067 394.882 67.16 394.135 67.16C393.282 67.16 392.515 66.9867 391.835 66.64C391.155 66.28 390.615 65.7467 390.215 65.04C389.829 64.3333 389.635 63.4733 389.635 62.46V56.04H391.435V62.22C391.435 63.3 391.709 64.1333 392.255 64.72C392.802 65.2933 393.549 65.58 394.495 65.58C395.469 65.58 396.235 65.28 396.795 64.68C397.355 64.08 397.635 63.2067 397.635 62.06V56.04H399.455ZM404.848 58.08C405.222 57.4267 405.768 56.8933 406.488 56.48C407.208 56.0667 408.028 55.86 408.948 55.86C409.935 55.86 410.822 56.0933 411.608 56.56C412.395 57.0267 413.015 57.6867 413.468 58.54C413.922 59.38 414.148 60.36 414.148 61.48C414.148 62.5867 413.922 63.5733 413.468 64.44C413.015 65.3067 412.388 65.98 411.588 66.46C410.802 66.94 409.922 67.18 408.948 67.18C408.002 67.18 407.168 66.9733 406.448 66.56C405.742 66.1467 405.208 65.62 404.848 64.98V67H403.028V52.2H404.848V58.08ZM412.288 61.48C412.288 60.6533 412.122 59.9333 411.788 59.32C411.455 58.7067 411.002 58.24 410.428 57.92C409.868 57.6 409.248 57.44 408.568 57.44C407.902 57.44 407.282 57.6067 406.708 57.94C406.148 58.26 405.695 58.7333 405.348 59.36C405.015 59.9733 404.848 60.6867 404.848 61.5C404.848 62.3267 405.015 63.0533 405.348 63.68C405.695 64.2933 406.148 64.7667 406.708 65.1C407.282 65.42 407.902 65.58 408.568 65.58C409.248 65.58 409.868 65.42 410.428 65.1C411.002 64.7667 411.455 64.2933 411.788 63.68C412.122 63.0533 412.288 62.32 412.288 61.48ZM418.864 52.2V67H417.044V52.2H418.864ZM423.406 54.26C423.059 54.26 422.766 54.14 422.526 53.9C422.286 53.66 422.166 53.3667 422.166 53.02C422.166 52.6733 422.286 52.38 422.526 52.14C422.766 51.9 423.059 51.78 423.406 51.78C423.739 51.78 424.019 51.9 424.246 52.14C424.486 52.38 424.606 52.6733 424.606 53.02C424.606 53.3667 424.486 53.66 424.246 53.9C424.019 54.14 423.739 54.26 423.406 54.26ZM424.286 56.04V67H422.466V56.04H424.286ZM434.008 67L429.708 62.16V67H427.888V52.2H429.708V60.9L433.928 56.04H436.468L431.308 61.5L436.488 67H434.008Z" fill="black"/>
</svg>
