<svg width="1110" height="120" viewBox="0 0 1110 120" fill="none" xmlns="http://www.w3.org/2000/svg">
<rect width="1110" height="120" fill="#FBFBFF"/>
<path d="M162.91 56.72C162.91 57.94 162.63 59.06 162.07 60.08C161.51 61.08 160.65 61.89 159.49 62.51C158.33 63.13 156.89 63.44 155.17 63.44H151.99V71H146.86V49.94H155.17C156.85 49.94 158.27 50.23 159.43 50.81C160.59 51.39 161.46 52.19 162.04 53.21C162.62 54.23 162.91 55.4 162.91 56.72ZM154.78 59.36C155.76 59.36 156.49 59.13 156.97 58.67C157.45 58.21 157.69 57.56 157.69 56.72C157.69 55.88 157.45 55.23 156.97 54.77C156.49 54.31 155.76 54.08 154.78 54.08H151.99V59.36H154.78ZM181.661 62.36C181.661 62.84 181.631 63.34 181.571 63.86H169.961C170.041 64.9 170.371 65.7 170.951 66.26C171.551 66.8 172.281 67.07 173.141 67.07C174.421 67.07 175.311 66.53 175.811 65.45H181.271C180.991 66.55 180.481 67.54 179.741 68.42C179.021 69.3 178.111 69.99 177.011 70.49C175.911 70.99 174.681 71.24 173.321 71.24C171.681 71.24 170.221 70.89 168.941 70.19C167.661 69.49 166.661 68.49 165.941 67.19C165.221 65.89 164.861 64.37 164.861 62.63C164.861 60.89 165.211 59.37 165.911 58.07C166.631 56.77 167.631 55.77 168.911 55.07C170.191 54.37 171.661 54.02 173.321 54.02C174.941 54.02 176.381 54.36 177.641 55.04C178.901 55.72 179.881 56.69 180.581 57.95C181.301 59.21 181.661 60.68 181.661 62.36ZM176.411 61.01C176.411 60.13 176.111 59.43 175.511 58.91C174.911 58.39 174.161 58.13 173.261 58.13C172.401 58.13 171.671 58.38 171.071 58.88C170.491 59.38 170.131 60.09 169.991 61.01H176.411ZM206.027 54.08C208.107 54.08 209.757 54.71 210.977 55.97C212.217 57.23 212.837 58.98 212.837 61.22V71H207.737V61.91C207.737 60.83 207.447 60 206.867 59.42C206.307 58.82 205.527 58.52 204.527 58.52C203.527 58.52 202.737 58.82 202.157 59.42C201.597 60 201.317 60.83 201.317 61.91V71H196.217V61.91C196.217 60.83 195.927 60 195.347 59.42C194.787 58.82 194.007 58.52 193.007 58.52C192.007 58.52 191.217 58.82 190.637 59.42C190.077 60 189.797 60.83 189.797 61.91V71H184.667V54.26H189.797V56.36C190.317 55.66 190.997 55.11 191.837 54.71C192.677 54.29 193.627 54.08 194.687 54.08C195.947 54.08 197.067 54.35 198.047 54.89C199.047 55.43 199.827 56.2 200.387 57.2C200.967 56.28 201.757 55.53 202.757 54.95C203.757 54.37 204.847 54.08 206.027 54.08ZM215.705 62.6C215.705 60.88 216.025 59.37 216.665 58.07C217.325 56.77 218.215 55.77 219.335 55.07C220.455 54.37 221.705 54.02 223.085 54.02C224.265 54.02 225.295 54.26 226.175 54.74C227.075 55.22 227.765 55.85 228.245 56.63V54.26H233.375V71H228.245V68.63C227.745 69.41 227.045 70.04 226.145 70.52C225.265 71 224.235 71.24 223.055 71.24C221.695 71.24 220.455 70.89 219.335 70.19C218.215 69.47 217.325 68.46 216.665 67.16C216.025 65.84 215.705 64.32 215.705 62.6ZM228.245 62.63C228.245 61.35 227.885 60.34 227.165 59.6C226.465 58.86 225.605 58.49 224.585 58.49C223.565 58.49 222.695 58.86 221.975 59.6C221.275 60.32 220.925 61.32 220.925 62.6C220.925 63.88 221.275 64.9 221.975 65.66C222.695 66.4 223.565 66.77 224.585 66.77C225.605 66.77 226.465 66.4 227.165 65.66C227.885 64.92 228.245 63.91 228.245 62.63ZM247.586 54.08C249.546 54.08 251.106 54.72 252.266 56C253.446 57.26 254.036 59 254.036 61.22V71H248.936V61.91C248.936 60.79 248.646 59.92 248.066 59.3C247.486 58.68 246.706 58.37 245.726 58.37C244.746 58.37 243.966 58.68 243.386 59.3C242.806 59.92 242.516 60.79 242.516 61.91V71H237.386V54.26H242.516V56.48C243.036 55.74 243.736 55.16 244.616 54.74C245.496 54.3 246.486 54.08 247.586 54.08ZM267.231 66.65V71H264.621C262.761 71 261.311 70.55 260.271 69.65C259.231 68.73 258.711 67.24 258.711 65.18V58.52H256.671V54.26H258.711V50.18H263.841V54.26H267.201V58.52H263.841V65.24C263.841 65.74 263.961 66.1 264.201 66.32C264.441 66.54 264.841 66.65 265.401 66.65H267.231ZM269.369 62.6C269.369 60.88 269.689 59.37 270.329 58.07C270.989 56.77 271.879 55.77 272.999 55.07C274.119 54.37 275.369 54.02 276.749 54.02C277.929 54.02 278.959 54.26 279.839 54.74C280.739 55.22 281.429 55.85 281.909 56.63V54.26H287.039V71H281.909V68.63C281.409 69.41 280.709 70.04 279.809 70.52C278.929 71 277.899 71.24 276.719 71.24C275.359 71.24 274.119 70.89 272.999 70.19C271.879 69.47 270.989 68.46 270.329 67.16C269.689 65.84 269.369 64.32 269.369 62.6ZM281.909 62.63C281.909 61.35 281.549 60.34 280.829 59.6C280.129 58.86 279.269 58.49 278.249 58.49C277.229 58.49 276.359 58.86 275.639 59.6C274.939 60.32 274.589 61.32 274.589 62.6C274.589 63.88 274.939 64.9 275.639 65.66C276.359 66.4 277.229 66.77 278.249 66.77C279.269 66.77 280.129 66.4 280.829 65.66C281.549 64.92 281.909 63.91 281.909 62.63ZM307.58 54.26V71H302.45V68.72C301.93 69.46 301.22 70.06 300.32 70.52C299.44 70.96 298.46 71.18 297.38 71.18C296.1 71.18 294.97 70.9 293.99 70.34C293.01 69.76 292.25 68.93 291.71 67.85C291.17 66.77 290.9 65.5 290.9 64.04V54.26H296V63.35C296 64.47 296.29 65.34 296.87 65.96C297.45 66.58 298.23 66.89 299.21 66.89C300.21 66.89 301 66.58 301.58 65.96C302.16 65.34 302.45 64.47 302.45 63.35V54.26H307.58ZM310.545 62.6C310.545 60.88 310.865 59.37 311.505 58.07C312.165 56.77 313.055 55.77 314.175 55.07C315.295 54.37 316.545 54.02 317.925 54.02C319.105 54.02 320.135 54.26 321.015 54.74C321.915 55.22 322.605 55.85 323.085 56.63V54.26H328.215V71H323.085V68.63C322.585 69.41 321.885 70.04 320.985 70.52C320.105 71 319.075 71.24 317.895 71.24C316.535 71.24 315.295 70.89 314.175 70.19C313.055 69.47 312.165 68.46 311.505 67.16C310.865 65.84 310.545 64.32 310.545 62.6ZM323.085 62.63C323.085 61.35 322.725 60.34 322.005 59.6C321.305 58.86 320.445 58.49 319.425 58.49C318.405 58.49 317.535 58.86 316.815 59.6C316.115 60.32 315.765 61.32 315.765 62.6C315.765 63.88 316.115 64.9 316.815 65.66C317.535 66.4 318.405 66.77 319.425 66.77C320.445 66.77 321.305 66.4 322.005 65.66C322.725 64.92 323.085 63.91 323.085 62.63ZM342.426 54.08C344.386 54.08 345.946 54.72 347.106 56C348.286 57.26 348.876 59 348.876 61.22V71H343.776V61.91C343.776 60.79 343.486 59.92 342.906 59.3C342.326 58.68 341.546 58.37 340.566 58.37C339.586 58.37 338.806 58.68 338.226 59.3C337.646 59.92 337.356 60.79 337.356 61.91V71H332.226V54.26H337.356V56.48C337.876 55.74 338.576 55.16 339.456 54.74C340.336 54.3 341.326 54.08 342.426 54.08ZM370.138 71L365.758 63.05H364.528V71H359.398V49.94H368.008C369.668 49.94 371.078 50.23 372.238 50.81C373.418 51.39 374.298 52.19 374.878 53.21C375.458 54.21 375.748 55.33 375.748 56.57C375.748 57.97 375.348 59.22 374.548 60.32C373.768 61.42 372.608 62.2 371.068 62.66L375.928 71H370.138ZM364.528 59.42H367.708C368.648 59.42 369.348 59.19 369.808 58.73C370.288 58.27 370.528 57.62 370.528 56.78C370.528 55.98 370.288 55.35 369.808 54.89C369.348 54.43 368.648 54.2 367.708 54.2H364.528V59.42ZM395.799 54.26V71H390.669V68.72C390.149 69.46 389.439 70.06 388.539 70.52C387.659 70.96 386.679 71.18 385.599 71.18C384.319 71.18 383.189 70.9 382.209 70.34C381.229 69.76 380.469 68.93 379.929 67.85C379.389 66.77 379.119 65.5 379.119 64.04V54.26H384.219V63.35C384.219 64.47 384.509 65.34 385.089 65.96C385.669 66.58 386.449 66.89 387.429 66.89C388.429 66.89 389.219 66.58 389.799 65.96C390.379 65.34 390.669 64.47 390.669 63.35V54.26H395.799ZM421.143 54.08C423.223 54.08 424.873 54.71 426.093 55.97C427.333 57.23 427.953 58.98 427.953 61.22V71H422.853V61.91C422.853 60.83 422.563 60 421.983 59.42C421.423 58.82 420.643 58.52 419.643 58.52C418.643 58.52 417.853 58.82 417.273 59.42C416.713 60 416.433 60.83 416.433 61.91V71H411.333V61.91C411.333 60.83 411.043 60 410.463 59.42C409.903 58.82 409.123 58.52 408.123 58.52C407.123 58.52 406.333 58.82 405.753 59.42C405.193 60 404.913 60.83 404.913 61.91V71H399.783V54.26H404.913V56.36C405.433 55.66 406.113 55.11 406.953 54.71C407.793 54.29 408.743 54.08 409.803 54.08C411.063 54.08 412.183 54.35 413.163 54.89C414.163 55.43 414.943 56.2 415.503 57.2C416.083 56.28 416.873 55.53 417.873 54.95C418.873 54.37 419.963 54.08 421.143 54.08ZM439.461 71.24C437.821 71.24 436.341 70.89 435.021 70.19C433.721 69.49 432.691 68.49 431.931 67.19C431.191 65.89 430.821 64.37 430.821 62.63C430.821 60.91 431.201 59.4 431.961 58.1C432.721 56.78 433.761 55.77 435.081 55.07C436.401 54.37 437.881 54.02 439.521 54.02C441.161 54.02 442.641 54.37 443.961 55.07C445.281 55.77 446.321 56.78 447.081 58.1C447.841 59.4 448.221 60.91 448.221 62.63C448.221 64.35 447.831 65.87 447.051 67.19C446.291 68.49 445.241 69.49 443.901 70.19C442.581 70.89 441.101 71.24 439.461 71.24ZM439.461 66.8C440.441 66.8 441.271 66.44 441.951 65.72C442.651 65 443.001 63.97 443.001 62.63C443.001 61.29 442.661 60.26 441.981 59.54C441.321 58.82 440.501 58.46 439.521 58.46C438.521 58.46 437.691 58.82 437.031 59.54C436.371 60.24 436.041 61.27 436.041 62.63C436.041 63.97 436.361 65 437.001 65.72C437.661 66.44 438.481 66.8 439.461 66.8ZM456.373 57.05C456.973 56.13 457.723 55.41 458.623 54.89C459.523 54.35 460.523 54.08 461.623 54.08V59.51H460.213C458.933 59.51 457.973 59.79 457.333 60.35C456.693 60.89 456.373 61.85 456.373 63.23V71H451.243V54.26H456.373V57.05Z" fill="black"/>
<line x1="668" y1="62.5" x2="618" y2="62.5" stroke="#C1292E" stroke-width="5"/>
<rect x="662.5" y="12.5" width="445" height="95" rx="27.5" fill="white" stroke="#A50000" stroke-width="5"/>
<circle cx="558" cy="60" r="60" fill="#A50000"/>
<circle cx="558" cy="60" r="50" fill="#FFD25F"/>
<path d="M598.5 84.2153H517V84.2551H598.5V84.2153Z" fill="#E0E0E0"/>
<path d="M578.831 85.7314H573.224V85.7712H578.831V85.7314Z" fill="#E0E0E0"/>
<path d="M585.427 85.6147H582.272V85.6545H585.427V85.6147Z" fill="#E0E0E0"/>
<path d="M557.316 85.7114H553.131V85.7512H557.316V85.7114Z" fill="#E0E0E0"/>
<path d="M560.34 86.2949H557.481V86.3347H560.34V86.2949Z" fill="#E0E0E0"/>
<path d="M540.581 85.2954H531.944V85.3351H540.581V85.2954Z" fill="#E0E0E0"/>
<path d="M555.631 76.8829H524.157C523.911 76.8825 523.674 76.7834 523.5 76.6074C523.326 76.4314 523.228 76.1929 523.228 75.9442V31.3197C523.23 31.0724 523.329 30.836 523.503 30.6618C523.677 30.4875 523.912 30.3896 524.157 30.3892H555.631C555.878 30.3892 556.115 30.4881 556.289 30.6641C556.464 30.8402 556.562 31.0789 556.562 31.3279V75.9442C556.562 76.1932 556.464 76.4319 556.289 76.608C556.115 76.784 555.878 76.8829 555.631 76.8829ZM524.157 30.422C523.922 30.4225 523.696 30.5172 523.529 30.6855C523.363 30.8538 523.269 31.0819 523.269 31.3197V75.9442C523.269 76.182 523.363 76.41 523.529 76.5783C523.696 76.7466 523.922 76.8414 524.157 76.8418H555.631C555.867 76.8414 556.093 76.7467 556.26 76.5784C556.427 76.4102 556.521 76.1821 556.521 75.9442V31.3197C556.521 31.0818 556.427 30.8537 556.26 30.6854C556.093 30.5172 555.867 30.4225 555.631 30.422H524.157Z" fill="#E0E0E0"/>
<path d="M590.889 76.8829H559.414C559.167 76.8825 558.931 76.7835 558.756 76.6075C558.582 76.4316 558.484 76.193 558.483 75.9442V31.3197C558.486 31.0723 558.585 30.8359 558.759 30.6617C558.934 30.4875 559.169 30.3896 559.414 30.3892H590.889C591.134 30.39 591.369 30.4882 591.543 30.6624C591.716 30.8365 591.815 31.0727 591.817 31.3197V75.9442C591.817 76.1926 591.719 76.4309 591.545 76.6068C591.372 76.7828 591.136 76.8821 590.889 76.8829ZM559.414 30.422C559.178 30.4225 558.952 30.5172 558.785 30.6854C558.618 30.8537 558.525 31.0818 558.524 31.3197V75.9442C558.525 76.1821 558.618 76.4102 558.785 76.5784C558.952 76.7467 559.178 76.8414 559.414 76.8418H590.889C591.125 76.8414 591.351 76.7467 591.518 76.5784C591.685 76.4102 591.779 76.1821 591.779 75.9442V31.3197C591.779 31.0818 591.685 30.8537 591.518 30.6854C591.351 30.5172 591.125 30.4225 590.889 30.422H559.414Z" fill="#E0E0E0"/>
<path d="M587.747 34.3794H563.183V55.6797H587.747V34.3794Z" fill="#E0E0E0"/>
<path d="M588.293 34.3794H563.729V55.6797H588.293V34.3794Z" fill="#F0F0F0"/>
<path d="M587.313 54.6801V35.3789H564.709V54.6801H587.313Z" fill="#FAFAFA"/>
<path d="M580.089 54.6801V35.3789H578.612V54.6801H580.089Z" fill="#E0E0E0"/>
<path d="M572.321 54.6801V35.3789H570.844V54.6801H572.321Z" fill="#E0E0E0"/>
<path d="M580.609 55.3132V34.6343H579.132V55.3132H580.609Z" fill="#F0F0F0"/>
<path d="M572.839 55.3146V34.6357H571.362V55.3146H572.839Z" fill="#F0F0F0"/>
<path d="M587.313 54.6786V35.3774H586.901V54.6786H587.313Z" fill="#E0E0E0"/>
<path d="M545.906 51.2011C545.906 51.2011 542.917 46.0076 547.065 41.8662C547.065 41.8662 548.148 42.5781 548.131 43.5349C548.115 44.4918 546.971 44.7334 547.217 45.5324C547.463 46.3315 548.541 47.1124 547.833 47.7733C547.126 48.4342 547.947 49.0195 547.9 49.8284C547.853 50.6372 545.906 51.2011 545.906 51.2011Z" fill="#E0E0E0"/>
<path d="M546.376 52.0514C546.376 52.0514 547.589 46.169 542.359 43.5615C542.359 43.5615 541.554 44.5808 541.87 45.4834C542.187 46.386 543.346 46.2512 543.362 47.088C543.378 47.9248 542.601 49.0099 543.478 49.4111C544.355 49.8122 543.76 50.6309 544.058 51.3839C544.356 52.1369 546.376 52.0514 546.376 52.0514Z" fill="#E6E6E6"/>
<path d="M543.714 50.5566C543.714 50.5566 543.766 55.6351 545.779 55.6351C547.792 55.6351 547.843 50.5566 547.843 50.5566H543.714Z" fill="#F0F0F0"/>
<path d="M531.62 53.7246C531.62 53.7246 531.732 55.635 536.03 55.635C540.329 55.635 540.443 53.7246 540.443 53.7246H531.62Z" fill="#E6E6E6"/>
<path d="M576.935 65.2432H574.666C574.383 65.2432 574.154 65.4743 574.154 65.7594V69.544C574.154 69.8291 574.383 70.0602 574.666 70.0602H576.935C577.218 70.0602 577.447 69.8291 577.447 69.544V65.7594C577.447 65.4743 577.218 65.2432 576.935 65.2432Z" fill="#F0F0F0"/>
<path d="M582.953 66.8179H581.426C581.236 66.8179 581.082 66.9732 581.082 67.1648V69.713C581.082 69.9046 581.236 70.0599 581.426 70.0599H582.953C583.143 70.0599 583.297 69.9046 583.297 69.713V67.1648C583.297 66.9732 583.143 66.8179 582.953 66.8179Z" fill="#E6E6E6"/>
<path d="M583.181 66.5039H581.198C581.134 66.5039 581.082 66.5562 581.082 66.6206V66.7522C581.082 66.8166 581.134 66.8689 581.198 66.8689H583.181C583.245 66.8689 583.297 66.8166 583.297 66.7522V66.6206C583.297 66.5562 583.245 66.5039 583.181 66.5039Z" fill="#F0F0F0"/>
<path d="M568.902 67.3804C568.902 67.3804 568.984 70.0602 572.096 70.0602C575.207 70.0602 575.29 67.3804 575.29 67.3804H568.902Z" fill="#E6E6E6"/>
<path d="M561.163 63.8408H565.872V62.9037H561.163V63.8408Z" fill="#E0E0E0"/>
<path d="M589.284 62.9053H565.872V63.8424H589.284V62.9053Z" fill="#F0F0F0"/>
<path d="M561.163 70.9971H565.872V70.06H561.163V70.9971Z" fill="#E0E0E0"/>
<path d="M589.284 70.0601H565.872V70.9972H589.284V70.0601Z" fill="#F0F0F0"/>
<path d="M562.86 63.8408H561.991V84.2139H562.86V63.8408Z" fill="#E0E0E0"/>
<path d="M566.741 63.8408H565.872V84.2139H566.741V63.8408Z" fill="#F0F0F0"/>
<path d="M586.272 63.8408H585.403V84.2139H586.272V63.8408Z" fill="#E0E0E0"/>
<path d="M589.284 63.8408H588.415V84.2139H589.284V63.8408Z" fill="#F0F0F0"/>
<path d="M531.619 56.8271H527.166V82.9824H531.619V56.8271Z" fill="#E6E6E6"/>
<path d="M549.981 82.9805H528.022V84.2151H549.981V82.9805Z" fill="#E6E6E6"/>
<path d="M531.619 82.9805H550.835V56.8253H531.619V82.9805Z" fill="#F0F0F0"/>
<path d="M533.37 73.0981H549.085V66.7094H533.37V73.0981Z" fill="#E6E6E6"/>
<path d="M533.37 80.6509H549.085V74.2621H533.37V80.6509Z" fill="#E6E6E6"/>
<path d="M542.992 67.41H539.463C539.348 67.4095 539.238 67.3633 539.157 67.2814C539.076 67.1995 539.03 67.0885 539.029 66.9727C539.029 66.8565 539.075 66.7451 539.156 66.6628C539.237 66.5806 539.348 66.5341 539.463 66.5337H542.992C543.107 66.5341 543.217 66.5806 543.299 66.6628C543.38 66.7451 543.425 66.8565 543.425 66.9727C543.425 67.0885 543.379 67.1995 543.298 67.2814C543.217 67.3633 543.107 67.4095 542.992 67.41Z" fill="#F0F0F0"/>
<path d="M533.37 65.5439H549.085V59.1552H533.37V65.5439Z" fill="#E6E6E6"/>
<path d="M542.992 59.8572H539.463C539.348 59.8568 539.237 59.8104 539.156 59.7281C539.075 59.6458 539.029 59.5344 539.029 59.4183C539.03 59.3024 539.076 59.1914 539.157 59.1095C539.238 59.0276 539.348 58.9814 539.463 58.981H542.992C543.107 58.9814 543.217 59.0276 543.298 59.1095C543.379 59.1914 543.425 59.3024 543.425 59.4183C543.425 59.5344 543.38 59.6458 543.299 59.7281C543.217 59.8104 543.107 59.8568 542.992 59.8572Z" fill="#F0F0F0"/>
<path d="M542.992 74.9627H539.463C539.348 74.9623 539.238 74.9161 539.157 74.8341C539.076 74.7522 539.03 74.6412 539.029 74.5254C539.029 74.4092 539.075 74.2978 539.156 74.2156C539.237 74.1333 539.348 74.0869 539.463 74.0864H542.992C543.107 74.0869 543.217 74.1333 543.299 74.2156C543.38 74.2978 543.425 74.4092 543.425 74.5254C543.425 74.6412 543.379 74.7522 543.298 74.8341C543.217 74.9161 543.107 74.9623 542.992 74.9627Z" fill="#F0F0F0"/>
<path d="M551.429 55.6353H531.62V56.8272H551.429V55.6353Z" fill="#E6E6E6"/>
<path d="M526.544 56.8257H531.62V55.6337H526.544V56.8257Z" fill="#E0E0E0"/>
<path d="M536.583 35.3789H529.378V43.3591H536.583V35.3789Z" fill="#E6E6E6"/>
<path d="M537.363 35.3789H529.921V43.3591H537.363V35.3789Z" fill="#F0F0F0"/>
<path d="M536.739 42.7294V36.0068H530.544V42.7294H536.739Z" fill="#FAFAFA"/>
<path d="M535.238 41.1002V37.6362H532.046V41.1002H535.238Z" fill="#F0F0F0"/>
<path d="M544.179 33.0229H538.715V38.9432H544.179V33.0229Z" fill="#E6E6E6"/>
<path d="M544.759 33.0229H539.238V38.9432H544.759V33.0229Z" fill="#F0F0F0"/>
<path d="M544.296 38.4762V33.4897H539.701V38.4762H544.296Z" fill="#FAFAFA"/>
<path d="M541.998 34.7212L540.741 36.9176H543.254L541.998 34.7212Z" fill="#F0F0F0"/>
<path d="M557.75 91.6401C575.205 91.6401 589.354 90.8069 589.354 89.779C589.354 88.7512 575.205 87.918 557.75 87.918C540.296 87.918 526.146 88.7512 526.146 89.779C526.146 90.8069 540.296 91.6401 557.75 91.6401Z" fill="#F5F5F5"/>
<path d="M585.427 45.3203H569.437C568.593 45.3203 567.91 46.01 567.91 46.8608V51.2471C567.91 52.0979 568.593 52.7876 569.437 52.7876H585.427C586.271 52.7876 586.955 52.0979 586.955 51.2471V46.8608C586.955 46.01 586.271 45.3203 585.427 45.3203Z" fill="#407BFF"/>
<path d="M582.255 46.5796H569.765C569.617 46.5796 569.497 46.7003 569.497 46.8492V47.1451C569.497 47.2941 569.617 47.4148 569.765 47.4148H582.255C582.403 47.4148 582.523 47.2941 582.523 47.1451V46.8492C582.523 46.7003 582.403 46.5796 582.255 46.5796Z" fill="#407BFF"/>
<path d="M578.299 48.5923H569.765C569.617 48.5923 569.497 48.713 569.497 48.8619V49.1578C569.497 49.3067 569.617 49.4275 569.765 49.4275H578.299C578.447 49.4275 578.567 49.3067 578.567 49.1578V48.8619C578.567 48.713 578.447 48.5923 578.299 48.5923Z" fill="#407BFF"/>
<path d="M576.011 50.6045H569.765C569.617 50.6045 569.497 50.7252 569.497 50.8741V51.17C569.497 51.319 569.617 51.4397 569.765 51.4397H576.011C576.158 51.4397 576.278 51.319 576.278 51.17V50.8741C576.278 50.7252 576.158 50.6045 576.011 50.6045Z" fill="#407BFF"/>
<path d="M583.752 50.6045H577.506C577.358 50.6045 577.238 50.7252 577.238 50.8741V51.17C577.238 51.319 577.358 51.4397 577.506 51.4397H583.752C583.899 51.4397 584.019 51.319 584.019 51.17V50.8741C584.019 50.7252 583.899 50.6045 583.752 50.6045Z" fill="#407BFF"/>
<g opacity="0.5">
<path d="M582.255 46.5796H569.765C569.617 46.5796 569.497 46.7003 569.497 46.8492V47.1451C569.497 47.2941 569.617 47.4148 569.765 47.4148H582.255C582.403 47.4148 582.523 47.2941 582.523 47.1451V46.8492C582.523 46.7003 582.403 46.5796 582.255 46.5796Z" fill="white"/>
<path d="M578.299 48.5918H569.765C569.617 48.5918 569.497 48.7125 569.497 48.8614V49.1574C569.497 49.3063 569.617 49.427 569.765 49.427H578.299C578.447 49.427 578.567 49.3063 578.567 49.1574V48.8614C578.567 48.7125 578.447 48.5918 578.299 48.5918Z" fill="white"/>
<path d="M576.011 50.604H569.765C569.617 50.604 569.497 50.7247 569.497 50.8736V51.1696C569.497 51.3185 569.617 51.4392 569.765 51.4392H576.011C576.158 51.4392 576.278 51.3185 576.278 51.1696V50.8736C576.278 50.7247 576.158 50.604 576.011 50.604Z" fill="white"/>
<path d="M583.752 50.604H577.506C577.358 50.604 577.238 50.7247 577.238 50.8736V51.1696C577.238 51.3185 577.358 51.4392 577.506 51.4392H583.752C583.899 51.4392 584.019 51.3185 584.019 51.1696V50.8736C584.019 50.7247 583.899 50.604 583.752 50.604Z" fill="white"/>
</g>
<path d="M572.619 43.5796H554.469C553.232 43.5796 552.229 44.5909 552.229 45.8385V52.27C552.229 53.5176 553.232 54.529 554.469 54.529H572.619C573.856 54.529 574.858 53.5176 574.858 52.27V45.8385C574.858 44.5909 573.856 43.5796 572.619 43.5796Z" fill="#407BFF"/>
<path d="M573.261 45.4258H554.949C554.733 45.4258 554.557 45.6032 554.557 45.822V46.2544C554.557 46.4732 554.733 46.6506 554.949 46.6506H573.261C573.478 46.6506 573.654 46.4732 573.654 46.2544V45.822C573.654 45.6032 573.478 45.4258 573.261 45.4258Z" fill="#407BFF"/>
<path d="M567.46 48.377H554.949C554.733 48.377 554.557 48.5543 554.557 48.7732V49.2056C554.557 49.4244 554.733 49.6018 554.949 49.6018H567.46C567.677 49.6018 567.853 49.4244 567.853 49.2056V48.7732C567.853 48.5543 567.677 48.377 567.46 48.377Z" fill="#407BFF"/>
<path d="M564.105 51.3281H554.949C554.733 51.3281 554.557 51.5055 554.557 51.7243V52.1567C554.557 52.3756 554.733 52.5529 554.949 52.5529H564.105C564.322 52.5529 564.498 52.3756 564.498 52.1567V51.7243C564.498 51.5055 564.322 51.3281 564.105 51.3281Z" fill="#407BFF"/>
<path d="M573.928 51.3281H566.299C566.082 51.3281 565.906 51.5055 565.906 51.7243V52.1567C565.906 52.3756 566.082 52.5529 566.299 52.5529H573.928C574.145 52.5529 574.321 52.3756 574.321 52.1567V51.7243C574.321 51.5055 574.145 51.3281 573.928 51.3281Z" fill="#407BFF"/>
<g opacity="0.5">
<path d="M573.261 45.4258H554.949C554.733 45.4258 554.557 45.6032 554.557 45.822V46.2544C554.557 46.4732 554.733 46.6506 554.949 46.6506H573.261C573.478 46.6506 573.654 46.4732 573.654 46.2544V45.822C573.654 45.6032 573.478 45.4258 573.261 45.4258Z" fill="white"/>
<path d="M567.46 48.377H554.949C554.733 48.377 554.557 48.5543 554.557 48.7732V49.2056C554.557 49.4244 554.733 49.6018 554.949 49.6018H567.46C567.677 49.6018 567.853 49.4244 567.853 49.2056V48.7732C567.853 48.5543 567.677 48.377 567.46 48.377Z" fill="white"/>
<path d="M564.105 51.3281H554.949C554.733 51.3281 554.557 51.5055 554.557 51.7243V52.1567C554.557 52.3756 554.733 52.5529 554.949 52.5529H564.105C564.322 52.5529 564.498 52.3756 564.498 52.1567V51.7243C564.498 51.5055 564.322 51.3281 564.105 51.3281Z" fill="white"/>
<path d="M573.927 51.3281H566.299C566.082 51.3281 565.906 51.5055 565.906 51.7243V52.1567C565.906 52.3756 566.082 52.5529 566.299 52.5529H573.927C574.144 52.5529 574.32 52.3756 574.32 52.1567V51.7243C574.32 51.5055 574.144 51.3281 573.927 51.3281Z" fill="white"/>
</g>
<path d="M561.334 56.5132H552.593C552.015 56.5132 551.546 56.9857 551.546 57.5687V70.777C551.546 71.3599 552.015 71.8325 552.593 71.8325H561.334C561.912 71.8325 562.381 71.3599 562.381 70.777V57.5687C562.381 56.9857 561.912 56.5132 561.334 56.5132Z" fill="#407BFF"/>
<path opacity="0.4" d="M561.334 56.5132H552.593C552.015 56.5132 551.546 56.9857 551.546 57.5687V70.777C551.546 71.3599 552.015 71.8325 552.593 71.8325H561.334C561.912 71.8325 562.381 71.3599 562.381 70.777V57.5687C562.381 56.9857 561.912 56.5132 561.334 56.5132Z" fill="black"/>
<path d="M560.933 58.1113H552.992C552.886 58.1113 552.8 58.1982 552.8 58.3053V58.5963C552.8 58.7035 552.886 58.7903 552.992 58.7903H560.933C561.039 58.7903 561.126 58.7035 561.126 58.5963V58.3053C561.126 58.1982 561.039 58.1113 560.933 58.1113Z" fill="#FAFAFA"/>
<path d="M558.405 59.7456H552.992C552.886 59.7456 552.8 59.8325 552.8 59.9396V60.2306C552.8 60.3377 552.886 60.4246 552.992 60.4246H558.405C558.511 60.4246 558.597 60.3377 558.597 60.2306V59.9396C558.597 59.8325 558.511 59.7456 558.405 59.7456Z" fill="#FAFAFA"/>
<path d="M560.933 61.3813H552.992C552.886 61.3813 552.8 61.4682 552.8 61.5753V61.8663C552.8 61.9735 552.886 62.0603 552.992 62.0603H560.933C561.039 62.0603 561.126 61.9735 561.126 61.8663V61.5753C561.126 61.4682 561.039 61.3813 560.933 61.3813Z" fill="#FAFAFA"/>
<path d="M555.944 63.0156H552.992C552.886 63.0156 552.8 63.1025 552.8 63.2096V63.5006C552.8 63.6078 552.886 63.6946 552.992 63.6946H555.944C556.05 63.6946 556.136 63.6078 556.136 63.5006V63.2096C556.136 63.1025 556.05 63.0156 555.944 63.0156Z" fill="#FAFAFA"/>
<path d="M560.074 63.0156H557.123C557.016 63.0156 556.93 63.1025 556.93 63.2096V63.5006C556.93 63.6078 557.016 63.6946 557.123 63.6946H560.074C560.181 63.6946 560.267 63.6078 560.267 63.5006V63.2096C560.267 63.1025 560.181 63.0156 560.074 63.0156Z" fill="#FAFAFA"/>
<path d="M560.933 64.6514H552.992C552.886 64.6514 552.8 64.7382 552.8 64.8454V65.1364C552.8 65.2435 552.886 65.3304 552.992 65.3304H560.933C561.039 65.3304 561.126 65.2435 561.126 65.1364V64.8454C561.126 64.7382 561.039 64.6514 560.933 64.6514Z" fill="#FAFAFA"/>
<path d="M560.933 66.2856H552.992C552.886 66.2856 552.8 66.3725 552.8 66.4796V66.7706C552.8 66.8778 552.886 66.9646 552.992 66.9646H560.933C561.039 66.9646 561.126 66.8778 561.126 66.7706V66.4796C561.126 66.3725 561.039 66.2856 560.933 66.2856Z" fill="#FAFAFA"/>
<path d="M559.525 67.9214H552.992C552.886 67.9214 552.8 68.0082 552.8 68.1154V68.4064C552.8 68.5135 552.886 68.6004 552.992 68.6004H559.525C559.631 68.6004 559.717 68.5135 559.717 68.4064V68.1154C559.717 68.0082 559.631 67.9214 559.525 67.9214Z" fill="#FAFAFA"/>
<path d="M556.04 69.5557H552.992C552.886 69.5557 552.8 69.6425 552.8 69.7497V70.0407C552.8 70.1478 552.886 70.2347 552.992 70.2347H556.04C556.146 70.2347 556.232 70.1478 556.232 70.0407V69.7497C556.232 69.6425 556.146 69.5557 556.04 69.5557Z" fill="#FAFAFA"/>
<path d="M563.699 56.4194H551.574L556.935 60.7219L565.155 63.8456V57.8843C565.154 57.4955 565 57.1229 564.727 56.8483C564.455 56.5737 564.085 56.4194 563.699 56.4194Z" fill="#407BFF"/>
<path opacity="0.4" d="M563.699 56.4194H551.574L556.935 60.7219L565.155 63.8456V57.8843C565.154 57.4955 565 57.1229 564.727 56.8483C564.455 56.5737 564.085 56.4194 563.699 56.4194Z" fill="black"/>
<path d="M563.17 58.6357H554.298C554.164 58.6357 554.056 58.7447 554.056 58.8791V59.3328C554.056 59.4672 554.164 59.5761 554.298 59.5761H563.17C563.303 59.5761 563.411 59.4672 563.411 59.3328V58.8791C563.411 58.7447 563.303 58.6357 563.17 58.6357Z" fill="#FAFAFA"/>
<path d="M584.669 68.0658V59.4641C584.669 58.8049 584.14 58.2705 583.486 58.2705H568.678C568.024 58.2705 567.494 58.8049 567.494 59.4641V68.0658C567.494 68.725 568.024 69.2593 568.678 69.2593H583.486C584.14 69.2593 584.669 68.725 584.669 68.0658Z" fill="#407BFF"/>
<path d="M587.374 65.3402V56.7385C587.374 56.0793 586.844 55.5449 586.19 55.5449H571.382C570.728 55.5449 570.198 56.0793 570.198 56.7385V65.3402C570.198 65.9994 570.728 66.5338 571.382 66.5338H586.19C586.844 66.5338 587.374 65.9994 587.374 65.3402Z" fill="#407BFF"/>
<path opacity="0.5" d="M587.374 65.3402V56.7385C587.374 56.0793 586.844 55.5449 586.19 55.5449H571.382C570.728 55.5449 570.198 56.0793 570.198 56.7385V65.3402C570.198 65.9994 570.728 66.5338 571.382 66.5338H586.19C586.844 66.5338 587.374 65.9994 587.374 65.3402Z" fill="white"/>
<path d="M585.871 62.3924V57.0969C585.871 56.8037 585.635 56.5659 585.344 56.5659H580.505C580.214 56.5659 579.978 56.8037 579.978 57.0969V62.3924C579.978 62.6857 580.214 62.9235 580.505 62.9235H585.344C585.635 62.9235 585.871 62.6857 585.871 62.3924Z" fill="#407BFF"/>
<path opacity="0.7" d="M585.871 62.3924V57.0969C585.871 56.8037 585.635 56.5659 585.344 56.5659H580.505C580.214 56.5659 579.978 56.8037 579.978 57.0969V62.3924C579.978 62.6857 580.214 62.9235 580.505 62.9235H585.344C585.635 62.9235 585.871 62.6857 585.871 62.3924Z" fill="white"/>
<path d="M579.056 64.9535V60.896C579.056 60.6708 578.875 60.4883 578.651 60.4883H574.943C574.72 60.4883 574.539 60.6708 574.539 60.896V64.9535C574.539 65.1787 574.72 65.3612 574.943 65.3612H578.651C578.875 65.3612 579.056 65.1787 579.056 64.9535Z" fill="#407BFF"/>
<path opacity="0.3" d="M579.056 64.9535V60.896C579.056 60.6708 578.875 60.4883 578.651 60.4883H574.943C574.72 60.4883 574.539 60.6708 574.539 60.896V64.9535C574.539 65.1787 574.72 65.3612 574.943 65.3612H578.651C578.875 65.3612 579.056 65.1787 579.056 64.9535Z" fill="white"/>
<path d="M576.796 39.2276V37.0361C576.796 36.366 576.258 35.8228 575.593 35.8228H535.8C535.136 35.8228 534.597 36.366 534.597 37.0361V39.2276C534.597 39.8977 535.136 40.4409 535.8 40.4409H575.593C576.258 40.4409 576.796 39.8977 576.796 39.2276Z" fill="#407BFF"/>
<path opacity="0.5" d="M576.796 39.2276V37.0361C576.796 36.366 576.258 35.8228 575.593 35.8228H535.8C535.136 35.8228 534.597 36.366 534.597 37.0361V39.2276C534.597 39.8977 535.136 40.4409 535.8 40.4409H575.593C576.258 40.4409 576.796 39.8977 576.796 39.2276Z" fill="white"/>
<path d="M569.268 41.2138V39.624H557.817V41.2138H569.268Z" fill="#407BFF"/>
<path opacity="0.5" d="M569.268 41.2138V39.624H557.817V41.2138H569.268Z" fill="white"/>
<path d="M580.902 32.4048V30.2133C580.902 29.5432 580.364 29 579.699 29L539.906 29C539.242 29 538.703 29.5432 538.703 30.2133V32.4048C538.703 33.0749 539.242 33.6181 539.906 33.6181H579.699C580.364 33.6181 580.902 33.0749 580.902 32.4048Z" fill="#407BFF"/>
<path d="M538.249 53.2843C538.105 53.6131 537.947 53.9683 537.808 54.3151C537.67 54.662 537.527 55.0188 537.401 55.3739C537.143 56.0662 536.937 56.7767 536.783 57.4997L536.736 57.7627L536.72 57.8614C536.72 57.8893 536.72 57.9255 536.71 57.9584C536.704 58.1184 536.707 58.2787 536.72 58.4384C536.751 58.7853 536.806 59.1569 536.883 59.5284C537.02 60.2732 537.194 61.041 537.372 61.7972L536.535 62.126C536.146 61.4094 535.814 60.6622 535.543 59.8918C535.4 59.4908 535.285 59.0805 535.197 58.6637C535.148 58.433 535.118 58.1988 535.106 57.9633C535.106 57.8975 535.106 57.8351 535.106 57.7644C535.106 57.6937 535.106 57.6148 535.117 57.5687L535.15 57.2399C535.199 56.8164 535.273 56.3964 535.373 55.9822C535.465 55.5712 535.582 55.1717 535.699 54.7771C535.817 54.3826 535.963 53.9946 536.118 53.6131C536.195 53.4224 536.281 53.2334 536.356 53.0443C536.431 52.8552 536.519 52.6744 536.623 52.4722L538.249 53.2843Z" fill="#E4897B"/>
<path d="M537.328 61.5752L537.963 62.2016L536.576 62.8592C536.576 62.8592 536.24 62.2657 536.473 61.7297L537.328 61.5752Z" fill="#E4897B"/>
<path d="M538.477 63.1338L537.305 63.6172L536.578 62.8527L537.963 62.2017L538.477 63.1338Z" fill="#E4897B"/>
<path opacity="0.4" d="M562.218 62.4598C559.911 62.1986 557.734 61.2536 555.96 59.7443C554.186 58.2349 552.896 56.229 552.252 53.98C551.608 51.7311 551.64 49.3401 552.343 47.1094C553.046 44.8787 554.39 42.9084 556.203 41.4475C558.016 39.9866 560.218 39.1009 562.531 38.9021C564.843 38.7034 567.162 39.2006 569.194 40.331C571.227 41.4613 572.881 43.174 573.948 45.2526C575.016 47.3311 575.448 49.6822 575.191 52.0086C575.02 53.5542 574.549 55.0507 573.804 56.4126C573.06 57.7745 572.056 58.975 570.852 59.9456C569.647 60.9162 568.264 61.6378 566.783 62.0692C565.301 62.5006 563.75 62.6333 562.218 62.4598Z" fill="#FAFAFA"/>
<path opacity="0.4" d="M570.756 41.3698L552.907 55.7536C552.832 55.5892 552.759 55.4248 552.691 55.2604C552.243 54.1868 551.957 53.052 551.841 51.8933L567.258 39.4692C568.524 39.8951 569.707 40.538 570.756 41.3698Z" fill="#FAFAFA"/>
<path opacity="0.4" d="M574.875 47.6713L558.094 61.1936C556.5 60.3554 555.118 59.1583 554.056 57.6951L572.379 42.9282C573.56 44.2956 574.414 45.9183 574.875 47.6713Z" fill="#FAFAFA"/>
<path d="M550.315 46.1723L550.161 46.1197C550.429 45.3215 550.766 44.5486 551.168 43.8098L551.31 43.8887C550.913 44.6192 550.58 45.3833 550.315 46.1723ZM552.294 42.3351L552.162 42.2381C553.502 40.4112 555.255 38.9338 557.276 37.929L557.349 38.077C555.351 39.0714 553.618 40.533 552.294 42.34V42.3351ZM570.157 38.3022C569.625 38.0141 569.074 37.762 568.508 37.5476L568.567 37.3931C569.138 37.6125 569.694 37.8695 570.232 38.1625L570.157 38.3022Z" fill="#407BFF"/>
<path opacity="0.3" d="M550.315 46.1723L550.161 46.1197C550.429 45.3215 550.766 44.5486 551.168 43.8098L551.31 43.8887C550.913 44.6192 550.58 45.3833 550.315 46.1723ZM552.294 42.3351L552.162 42.2381C553.502 40.4112 555.255 38.9338 557.276 37.929L557.349 38.077C555.351 39.0714 553.618 40.533 552.294 42.34V42.3351ZM570.157 38.3022C569.625 38.0141 569.074 37.762 568.508 37.5476L568.567 37.3931C569.138 37.6125 569.694 37.8695 570.232 38.1625L570.157 38.3022Z" fill="black"/>
<path d="M575.659 44.6499C574.15 41.4925 571.493 39.0421 568.241 37.8065C564.989 36.571 561.39 36.6451 558.191 38.0135C554.991 39.3819 552.437 41.9396 551.056 45.1565C549.676 48.3733 549.576 52.0026 550.777 55.2918C549.688 55.6765 548.612 56.0892 547.543 56.515C546.001 57.1321 544.473 57.7765 542.959 58.4484C541.447 59.1241 539.941 59.813 538.449 60.533C537.701 60.8865 536.963 61.2597 536.218 61.6214C535.83 61.7894 535.479 62.0323 535.184 62.3366C535.025 62.5051 534.884 62.6909 534.765 62.8906C534.62 63.1269 534.51 63.3833 534.439 63.6518C534.317 64.1356 534.37 64.6477 534.589 65.0955C534.808 65.5433 535.179 65.8972 535.634 66.0932C535.887 66.2002 536.154 66.27 536.426 66.3004C536.657 66.3267 536.889 66.3267 537.119 66.3004C537.537 66.2492 537.942 66.1157 538.309 65.9075C539.047 65.531 539.791 65.1676 540.524 64.7813C541.991 64.0267 543.458 63.2392 544.907 62.4401C546.356 61.6411 547.807 60.8043 549.222 59.9461C550.2 59.3493 551.188 58.7394 552.156 58.1015C554.015 61.0619 556.932 63.1873 560.303 64.0374C563.673 64.8876 567.239 64.3972 570.261 62.6678C573.283 60.9385 575.529 58.1029 576.535 54.7485C577.54 51.3942 577.228 47.7782 575.662 44.6499H575.659ZM568.249 60.3555C566.355 61.2986 564.226 61.6539 562.131 61.3767C560.037 61.0994 558.071 60.2019 556.482 58.7977C554.893 57.3936 553.753 55.5457 553.205 53.4879C552.657 51.4301 552.727 49.2546 553.405 47.2367C554.083 45.2188 555.339 43.4489 557.014 42.151C558.69 40.853 560.709 40.0853 562.817 39.9448C564.925 39.8043 567.026 40.2973 568.856 41.3616C570.687 42.4259 572.163 44.0136 573.098 45.924C573.719 47.1927 574.087 48.5724 574.179 49.9843C574.272 51.3963 574.088 52.8128 573.637 54.1529C573.187 55.493 572.479 56.7306 571.555 57.7948C570.63 58.8591 569.507 59.7292 568.249 60.3555Z" fill="#407BFF"/>
<path opacity="0.3" d="M575.659 44.6499C574.15 41.4925 571.493 39.0421 568.241 37.8065C564.989 36.571 561.39 36.6451 558.191 38.0135C554.991 39.3819 552.437 41.9396 551.056 45.1565C549.676 48.3733 549.576 52.0026 550.777 55.2918C549.688 55.6765 548.612 56.0892 547.543 56.515C546.001 57.1321 544.473 57.7765 542.959 58.4484C541.447 59.1241 539.941 59.813 538.449 60.533C537.701 60.8865 536.963 61.2597 536.218 61.6214C535.83 61.7894 535.479 62.0323 535.184 62.3366C535.025 62.5051 534.884 62.6909 534.765 62.8906C534.62 63.1269 534.51 63.3833 534.439 63.6518C534.317 64.1356 534.37 64.6477 534.589 65.0955C534.808 65.5433 535.179 65.8972 535.634 66.0932C535.887 66.2002 536.154 66.27 536.426 66.3004C536.657 66.3267 536.889 66.3267 537.119 66.3004C537.537 66.2492 537.942 66.1157 538.309 65.9075C539.047 65.531 539.791 65.1676 540.524 64.7813C541.991 64.0267 543.458 63.2392 544.907 62.4401C546.356 61.6411 547.807 60.8043 549.222 59.9461C550.2 59.3493 551.188 58.7394 552.156 58.1015C554.015 61.0619 556.932 63.1873 560.303 64.0374C563.673 64.8876 567.239 64.3972 570.261 62.6678C573.283 60.9385 575.529 58.1029 576.535 54.7485C577.54 51.3942 577.228 47.7782 575.662 44.6499H575.659ZM568.249 60.3555C566.355 61.2986 564.226 61.6539 562.131 61.3767C560.037 61.0994 558.071 60.2019 556.482 58.7977C554.893 57.3936 553.753 55.5457 553.205 53.4879C552.657 51.4301 552.727 49.2546 553.405 47.2367C554.083 45.2188 555.339 43.4489 557.014 42.151C558.69 40.853 560.709 40.0853 562.817 39.9448C564.925 39.8043 567.026 40.2973 568.856 41.3616C570.687 42.4259 572.163 44.0136 573.098 45.924C573.719 47.1927 574.087 48.5724 574.179 49.9843C574.272 51.3963 574.088 52.8128 573.637 54.1529C573.187 55.493 572.479 56.7306 571.555 57.7948C570.63 58.8591 569.507 59.7292 568.249 60.3555Z" fill="black"/>
<path d="M542.754 47.4132C542.754 47.5102 542.804 47.5891 542.868 47.5891C542.932 47.5891 542.982 47.5102 542.982 47.4132C542.982 47.3162 542.932 47.2373 542.868 47.2373C542.804 47.2373 542.754 47.3228 542.754 47.4132Z" fill="#263238"/>
<path d="M542.8 47.5894C542.915 47.8871 543.07 48.1676 543.261 48.4229C543.195 48.4705 543.119 48.5029 543.04 48.518C542.96 48.533 542.878 48.5303 542.8 48.51V47.5894Z" fill="#DE5753"/>
<path d="M542.417 46.8725C542.408 46.8725 542.399 46.8704 542.39 46.8664C542.382 46.8624 542.375 46.8566 542.369 46.8495C542.361 46.8369 542.357 46.8215 542.36 46.8065C542.362 46.7915 542.37 46.7781 542.382 46.7689C542.454 46.714 542.538 46.6774 542.627 46.6622C542.716 46.647 542.807 46.6537 542.893 46.6818C542.9 46.6839 542.907 46.6876 542.914 46.6927C542.92 46.6978 542.925 46.7041 542.928 46.7113C542.932 46.7185 542.934 46.7263 542.935 46.7344C542.935 46.7424 542.934 46.7504 542.931 46.7579C542.928 46.7654 542.924 46.7723 542.918 46.778C542.912 46.7836 542.906 46.7881 542.898 46.791C542.891 46.7939 542.883 46.7952 542.875 46.7947C542.867 46.7943 542.859 46.7923 542.852 46.7886C542.784 46.7676 542.712 46.7633 542.642 46.7762C542.572 46.789 542.506 46.8187 542.449 46.8626C542.44 46.8691 542.428 46.8725 542.417 46.8725Z" fill="#263238"/>
<path d="M539.461 48.145C539.624 49.0279 539.804 50.6473 539.191 51.2375C539.191 51.2375 539.431 52.1335 541.059 52.1335C542.852 52.1335 541.913 51.2375 541.913 51.2375C540.935 51.0007 540.963 50.2708 541.132 49.5836L539.461 48.145Z" fill="#E4897B"/>
<path d="M538.459 51.7028C538.653 51.3987 538.327 50.6605 538.327 50.6605C538.327 50.6605 541.209 49.9289 542.387 51.0518C542.632 51.2836 542.361 51.6255 542.361 51.6255L538.459 51.7028Z" fill="#407BFF"/>
<path opacity="0.1" d="M538.459 51.7028C538.653 51.3987 538.327 50.6605 538.327 50.6605C538.327 50.6605 541.209 49.9289 542.387 51.0518C542.632 51.2836 542.361 51.6255 542.361 51.6255L538.459 51.7028Z" fill="black"/>
<path d="M533.691 85.2463C533.54 85.2463 533.297 84.9915 533.225 84.8961C533.222 84.8915 533.22 84.8861 533.22 84.8805C533.22 84.875 533.222 84.8695 533.225 84.8649C533.228 84.8603 533.231 84.8565 533.236 84.8539C533.241 84.8513 533.246 84.85 533.251 84.8501C533.269 84.8501 533.668 84.8863 533.778 85.0293C533.789 85.0444 533.798 85.0619 533.802 85.0807C533.807 85.0994 533.807 85.1189 533.804 85.1378C533.802 85.1623 533.793 85.1857 533.778 85.2048C533.763 85.224 533.742 85.2379 533.719 85.2447L533.691 85.2463ZM533.313 84.9175C533.432 85.0556 533.623 85.2118 533.704 85.1921C533.704 85.1921 533.737 85.1838 533.747 85.1312C533.749 85.1203 533.748 85.1089 533.746 85.0981C533.743 85.0873 533.737 85.0773 533.73 85.0688C533.609 84.9765 533.464 84.9227 533.313 84.9142V84.9175Z" fill="#407BFF"/>
<path d="M533.331 84.9141C533.302 84.9171 533.272 84.9171 533.243 84.9141C533.238 84.9137 533.233 84.9118 533.229 84.9086C533.225 84.9053 533.222 84.901 533.22 84.896C533.218 84.8914 533.217 84.8864 533.217 84.8812C533.217 84.8761 533.218 84.871 533.22 84.8664C533.232 84.8566 533.471 84.605 533.652 84.605C533.674 84.6045 533.695 84.6087 533.715 84.6172C533.735 84.6257 533.753 84.6383 533.768 84.6543C533.784 84.668 533.795 84.6869 533.799 84.7078C533.804 84.7288 533.801 84.7505 533.791 84.7694C533.744 84.8615 533.494 84.9141 533.331 84.9141ZM533.31 84.8566C533.473 84.8566 533.709 84.8056 533.748 84.7333C533.748 84.7333 533.76 84.7119 533.734 84.6856C533.724 84.6752 533.713 84.667 533.7 84.6616C533.687 84.6562 533.673 84.6537 533.659 84.6543C533.525 84.6853 533.404 84.7557 533.31 84.8566Z" fill="#407BFF"/>
<path d="M544.448 88.9785C544.324 88.9777 544.201 88.9661 544.079 88.944C544.073 88.9428 544.068 88.9396 544.064 88.9348C544.06 88.9299 544.058 88.9239 544.058 88.9177C544.057 88.912 544.058 88.9062 544.06 88.9009C544.062 88.8957 544.066 88.8912 544.071 88.8881C544.089 88.8782 544.506 88.6366 544.707 88.6925C544.725 88.6967 544.743 88.7047 544.758 88.716C544.774 88.7273 544.787 88.7417 544.796 88.7582C544.809 88.7765 544.816 88.7983 544.816 88.8207C544.816 88.8431 544.809 88.8649 544.796 88.8832C544.749 88.9572 544.601 88.9785 544.448 88.9785ZM544.172 88.9013C544.394 88.9341 544.697 88.9325 544.752 88.8536C544.761 88.8437 544.767 88.8256 544.752 88.7911C544.74 88.7706 544.72 88.7559 544.697 88.75C544.57 88.7171 544.317 88.8256 544.172 88.9013Z" fill="#407BFF"/>
<path d="M544.086 88.9455C544.08 88.947 544.075 88.947 544.069 88.9455C544.065 88.9426 544.061 88.9383 544.059 88.9333C544.057 88.9283 544.057 88.9228 544.058 88.9175C544.069 88.7464 544.134 88.5833 544.244 88.4522C544.266 88.433 544.292 88.4187 544.32 88.4105C544.348 88.4022 544.378 88.4002 544.407 88.4046C544.485 88.4046 544.508 88.4522 544.513 88.4835C544.534 88.6199 544.249 88.8813 544.104 88.9471L544.086 88.9455ZM544.377 88.4522C544.342 88.452 544.307 88.4648 544.28 88.4884C544.188 88.5923 544.13 88.7229 544.117 88.8616C544.263 88.7712 544.459 88.5673 544.443 88.4851C544.443 88.4851 544.443 88.4572 544.387 88.4522H544.377Z" fill="#407BFF"/>
<path d="M542.769 88.9157H543.967L544.086 86.1191H542.888L542.769 88.9157Z" fill="#E4897B"/>
<path d="M532.1 84.115L533.101 84.776L535.311 82.8935L534.309 82.231L532.1 84.115Z" fill="#E4897B"/>
<path d="M533.266 84.7135L532.226 83.8536C532.207 83.8384 532.184 83.8301 532.161 83.8301C532.137 83.8301 532.114 83.8384 532.095 83.8536L531.238 84.5326C531.217 84.5493 531.201 84.5704 531.189 84.5944C531.178 84.6185 531.172 84.6448 531.172 84.6715C531.172 84.6982 531.178 84.7246 531.189 84.7487C531.201 84.7727 531.217 84.7938 531.238 84.8105C531.606 85.1048 531.8 85.2297 532.258 85.6078C532.54 85.8396 533.236 86.5499 533.629 86.8705C534.022 87.1911 534.382 86.8458 534.252 86.6798C533.667 85.9317 533.437 85.2922 533.37 84.896C533.359 84.8243 533.321 84.7594 533.266 84.7135Z" fill="#263238"/>
<path d="M543.959 88.7764H542.655C542.631 88.7765 542.608 88.7846 542.589 88.7995C542.57 88.8144 542.557 88.8352 542.552 88.8586L542.315 89.9321C542.31 89.9582 542.31 89.9852 542.316 90.0112C542.321 90.0372 542.333 90.0615 542.35 90.0823C542.367 90.103 542.388 90.1197 542.412 90.131C542.436 90.1423 542.462 90.1479 542.488 90.1475C542.959 90.1393 543.641 90.1113 544.234 90.1113C544.927 90.1113 545.527 90.1491 546.338 90.1491C546.827 90.1491 546.968 89.6477 546.76 89.6033C545.825 89.3962 545.059 89.3748 544.25 88.8701C544.164 88.8121 544.063 88.7797 543.959 88.7764Z" fill="#263238"/>
<path d="M536.831 51.5978C535.792 52.091 535.201 55.3956 535.201 55.3956L537.739 56.4165C538.11 55.5016 538.41 54.5589 538.637 53.597C538.986 52.0746 537.893 51.0881 536.831 51.5978Z" fill="#263238"/>
<path d="M538.177 53.4603C537.549 54.1014 537.262 55.3575 537.137 56.1746L537.745 56.4195C538.106 55.5306 538.4 54.6156 538.625 53.6822C538.571 53.3337 538.438 53.1939 538.177 53.4603Z" fill="#203048"/>
<path d="M543.755 51.5747C543.755 51.5747 545.029 53.028 543.827 62.0144H537.422C537.378 61.028 537.996 56.1862 537.047 51.5138C537.755 51.3754 538.471 51.2842 539.191 51.2409C540.097 51.1866 541.006 51.1866 541.913 51.2409C542.535 51.304 543.15 51.4156 543.755 51.5747Z" fill="#263238"/>
<path d="M544.34 55.0634L543.261 53.1875C543.053 54.0627 542.968 54.9632 543.008 55.8624C543.038 56.5068 543.623 58.894 544.149 59.2425C544.289 57.8541 544.353 56.4589 544.34 55.0634Z" fill="#203048"/>
<path d="M544.49 52.8584C544.653 53.6574 544.816 54.4761 544.99 55.2784C545.165 56.0807 545.346 56.8863 545.556 57.664C545.61 57.8563 545.66 58.0536 545.719 58.2377L545.763 58.3791L545.784 58.4498V58.4416C545.773 58.4268 545.76 58.4252 545.769 58.4416C545.836 58.5154 545.922 58.5694 546.017 58.5978C546.171 58.6556 546.33 58.7002 546.492 58.731C547.262 58.8541 548.042 58.9053 548.822 58.8838L548.977 59.7782C548.759 59.8489 548.555 59.8999 548.34 59.9508C548.125 60.0018 547.913 60.0445 547.696 60.0774C547.248 60.1527 546.793 60.1836 546.338 60.1695C546.086 60.1626 545.834 60.1296 545.589 60.0709C545.276 60.0019 544.982 59.8644 544.728 59.6681C544.562 59.5329 544.425 59.3651 544.325 59.1748C544.299 59.1255 544.276 59.0696 544.255 59.0219L544.226 58.9447L544.166 58.7803C544.082 58.5715 544.014 58.366 543.939 58.1605C543.664 57.3384 543.434 56.5082 543.232 55.6796C543.029 54.851 542.855 54.024 542.71 53.1741L544.49 52.8584Z" fill="#E4897B"/>
<path d="M542.156 52.4556C541.818 53.5587 543.186 56.8485 543.186 56.8485L545.91 56.158C545.91 56.158 545.805 54.4482 545.184 53.0918C544.249 51.0466 542.56 51.1321 542.156 52.4556Z" fill="#263238"/>
<path d="M548.8 58.8841L550.156 58.8496L549.504 60.2734C549.504 60.2734 548.951 60.3473 548.498 59.596L548.021 59.0206L548.57 58.9104C548.645 58.8944 548.722 58.8856 548.8 58.8841Z" fill="#E4897B"/>
<path d="M551.012 59.1143L550.236 60.2947L549.504 60.2734L550.156 58.8496L551.012 59.1143Z" fill="#E4897B"/>
<path d="M544.086 86.1191L544.024 87.561H542.826L542.888 86.1191H544.086Z" fill="#CE6F64"/>
<path d="M534.309 82.231L535.311 82.8935L534.17 83.8635L533.169 83.2026L534.309 82.231Z" fill="#CE6F64"/>
<path d="M539.536 47.2046C539.608 48.3998 539.59 49.1051 540.188 49.7183C541.088 50.6439 542.554 50.0964 542.837 48.8963C543.093 47.8211 542.933 46.0455 541.773 45.5687C541.517 45.4645 541.239 45.4275 540.964 45.4614C540.69 45.4953 540.429 45.5988 540.206 45.7624C539.982 45.9259 539.804 46.144 539.686 46.3963C539.569 46.6485 539.518 46.9267 539.536 47.2046Z" fill="#E4897B"/>
<path d="M538.141 46.9943C538.436 48.0843 539.131 49.3403 540.029 49.4209C541.144 49.5195 541.647 48.3572 541.794 47.157C542.462 46.695 542.112 46.187 542.782 46.1229C543.642 46.0407 543.367 44.4526 542.234 44.1977C542.234 44.1977 542.614 44.9129 541.817 44.5512C541.059 44.1878 540.217 44.0406 539.382 44.1254C539.382 44.1254 540.399 44.6383 539.404 44.8669C538.41 45.0954 538.113 45.7135 538.571 46.0867C538.571 46.0884 537.947 46.2775 538.141 46.9943Z" fill="#263238"/>
<path d="M541.114 47.4038C541.136 47.7009 541.255 47.9824 541.452 48.2045C541.712 48.4955 541.985 48.3146 542.03 47.9611C542.073 47.6438 541.986 47.1095 541.667 46.9484C541.347 46.7873 541.093 47.0454 541.114 47.4038Z" fill="#E4897B"/>
<path d="M541.554 62.0143C541.554 62.0143 542.721 70.5387 541.802 73.9551C540.345 79.364 534.773 83.9295 534.773 83.9295L532.884 82.6801C532.884 82.6801 537.629 78.8248 538.209 74.2954C538.731 70.2297 537.422 65.3123 537.422 62.0127L541.554 62.0143Z" fill="#407BFF"/>
<path opacity="0.1" d="M541.554 62.0143C541.554 62.0143 542.721 70.5387 541.802 73.9551C540.345 79.364 534.773 83.9295 534.773 83.9295L532.884 82.6801C532.884 82.6801 537.629 78.8248 538.209 74.2954C538.731 70.2297 537.422 65.3123 537.422 62.0127L541.554 62.0143Z" fill="black"/>
<path d="M542.037 66.8873C541.726 66.5283 541.384 66.1982 541.015 65.9009C541.214 68.6678 541.377 72.7664 541.196 75.6781C541.439 75.1199 541.642 74.5446 541.802 73.9567C542.25 72.288 542.203 69.406 542.037 66.8873Z" fill="#407BFF"/>
<path opacity="0.3" d="M542.037 66.8873C541.726 66.5283 541.384 66.1982 541.015 65.9009C541.214 68.6678 541.377 72.7664 541.196 75.6781C541.439 75.1199 541.642 74.5446 541.802 73.9567C542.25 72.288 542.203 69.406 542.037 66.8873Z" fill="black"/>
<path d="M535.535 83.5034C535.543 83.5034 534.803 83.9966 534.803 83.9966L532.739 82.6321L533.391 82.0879L535.535 83.5034Z" fill="#407BFF"/>
<path opacity="0.3" d="M535.535 83.5034C535.543 83.5034 534.803 83.9966 534.803 83.9966L532.739 82.6321L533.391 82.0879L535.535 83.5034Z" fill="black"/>
<path d="M543.827 62.0142C543.827 62.0142 545.629 69.7248 545.756 73.4091C545.9 77.5389 544.47 87.2816 544.47 87.2816H542.441C542.441 87.2816 542.192 77.4633 542.102 73.7017C542.003 69.5998 539.616 62.0142 539.616 62.0142H543.827Z" fill="#407BFF"/>
<path opacity="0.1" d="M543.827 62.0142C543.827 62.0142 545.629 69.7248 545.756 73.4091C545.9 77.5389 544.47 87.2816 544.47 87.2816H542.441C542.441 87.2816 542.192 77.4633 542.102 73.7017C542.003 69.5998 539.616 62.0142 539.616 62.0142H543.827Z" fill="black"/>
<path d="M544.86 86.4678C544.87 86.4678 544.746 87.3161 544.746 87.3161H542.278L542.211 86.5582L544.86 86.4678Z" fill="#407BFF"/>
<path opacity="0.3" d="M544.86 86.4678C544.87 86.4678 544.746 87.3161 544.746 87.3161H542.278L542.211 86.5582L544.86 86.4678Z" fill="black"/>
<path d="M575.028 54.604C575.166 54.7355 575.276 54.8473 575.39 54.9723C575.504 55.0972 575.611 55.2189 575.716 55.3455C575.928 55.597 576.127 55.8617 576.319 56.128C576.703 56.6623 577.045 57.2263 577.341 57.8148L577.401 57.9349C577.431 57.9929 577.455 58.0534 577.475 58.1157C577.514 58.236 577.538 58.3608 577.546 58.4873C577.557 58.7102 577.527 58.9331 577.457 59.1449C577.338 59.4966 577.161 59.8256 576.933 60.1182C576.524 60.6487 576.041 61.1171 575.499 61.509L575.093 61.0388C575.284 60.8136 575.483 60.5719 575.66 60.3302C575.841 60.0961 576.005 59.8488 576.149 59.5904C576.285 59.365 576.385 59.1199 576.446 58.8637C576.467 58.7721 576.471 58.6773 576.457 58.5843C576.452 58.553 576.442 58.5226 576.428 58.4938C576.422 58.4812 576.415 58.4691 576.407 58.4577L576.355 58.3689C576.04 57.8519 575.699 57.352 575.333 56.8712C575.152 56.6295 574.958 56.3977 574.762 56.1691C574.666 56.0541 574.567 55.9423 574.467 55.8305C574.368 55.7187 574.26 55.6069 574.174 55.5197L575.028 54.604Z" fill="#E4897B"/>
<path d="M575.25 60.9008L574.032 60.7002L574.67 61.7754C574.67 61.7754 575.454 61.7475 575.677 61.2822L575.25 60.9008Z" fill="#E4897B"/>
<path d="M573.132 61.1967L573.713 62.0697L574.669 61.7754L574.032 60.7002L573.132 61.1967Z" fill="#E4897B"/>
<path d="M575.191 88.9631C575.108 88.9702 575.025 88.9475 574.958 88.899C574.937 88.8795 574.922 88.855 574.914 88.8279C574.906 88.8009 574.904 88.7721 574.91 88.7444C574.912 88.7268 574.918 88.7098 574.928 88.6953C574.938 88.6808 574.952 88.6694 574.968 88.6622C575.109 88.5981 575.481 88.8381 575.523 88.8661C575.528 88.8691 575.532 88.8736 575.534 88.8789C575.536 88.8843 575.536 88.8901 575.535 88.8957C575.534 88.9013 575.532 88.9066 575.528 88.9107C575.524 88.9149 575.519 88.9177 575.514 88.9187C575.408 88.9457 575.3 88.9606 575.191 88.9631ZM575.028 88.7082C575.016 88.7064 575.004 88.7064 574.992 88.7082C574.985 88.7116 574.979 88.7169 574.974 88.7236C574.97 88.7303 574.968 88.7381 574.968 88.7461C574.963 88.7644 574.964 88.7836 574.969 88.8017C574.974 88.8198 574.984 88.8363 574.997 88.8496C575.059 88.9055 575.219 88.9137 575.432 88.871C575.31 88.7895 575.172 88.7341 575.028 88.7082Z" fill="#407BFF"/>
<path d="M575.517 88.9174H575.502C575.387 88.85 575.163 88.5886 575.191 88.4455C575.196 88.423 575.209 88.4028 575.226 88.388C575.244 88.3731 575.266 88.3645 575.289 88.3633C575.311 88.3601 575.333 88.362 575.355 88.3689C575.376 88.3757 575.395 88.3873 575.411 88.4028C575.545 88.5212 575.546 88.8763 575.546 88.896C575.546 88.901 575.545 88.9058 575.542 88.9101C575.54 88.9144 575.536 88.918 575.532 88.9207L575.517 88.9174ZM575.308 88.4242H575.295C575.26 88.4242 575.251 88.4439 575.248 88.4587C575.232 88.5425 575.37 88.7431 575.486 88.8368C575.489 88.6989 575.45 88.5635 575.374 88.4488C575.364 88.4396 575.352 88.4327 575.34 88.4284C575.327 88.4242 575.314 88.4227 575.3 88.4242H575.308Z" fill="#407BFF"/>
<path d="M569.636 88.9634C569.532 88.9734 569.428 88.9466 569.341 88.8878C569.321 88.8703 569.306 88.8483 569.297 88.8237C569.288 88.7991 569.284 88.7726 569.287 88.7464C569.288 88.7304 569.293 88.7149 569.302 88.7014C569.31 88.6879 569.322 88.6768 569.336 88.6691C569.488 88.5836 569.973 88.8335 570.029 88.8647C570.034 88.8681 570.038 88.8727 570.041 88.8782C570.043 88.8838 570.044 88.8899 570.043 88.896C570.043 88.9017 570.04 88.907 570.036 88.9112C570.032 88.9153 570.026 88.918 570.021 88.919C569.894 88.9461 569.765 88.961 569.636 88.9634ZM569.419 88.7086C569.401 88.7073 569.382 88.7113 569.365 88.7201C569.36 88.7229 569.355 88.7273 569.351 88.7328C569.348 88.7383 569.346 88.7448 569.346 88.7513C569.343 88.7684 569.345 88.7859 569.351 88.8022C569.356 88.8185 569.366 88.8332 569.378 88.845C569.453 88.9124 569.654 88.9239 569.924 88.8779C569.767 88.7931 569.596 88.7359 569.419 88.7086Z" fill="#407BFF"/>
<path d="M570.016 88.9171H570.003C569.858 88.8513 569.569 88.5883 569.592 88.4453C569.592 88.4124 569.621 88.3713 569.701 88.3631C569.73 88.3599 569.76 88.3628 569.788 88.3715C569.816 88.3803 569.842 88.3948 569.864 88.414C570.018 88.5423 570.047 88.8744 570.047 88.8892C570.048 88.8942 570.047 88.8993 570.045 88.9039C570.043 88.9085 570.04 88.9125 570.035 88.9155C570.029 88.9181 570.022 88.9187 570.016 88.9171ZM569.724 88.4239H569.706C569.654 88.4239 569.651 88.4502 569.649 88.4568C569.636 88.5406 569.832 88.7494 569.975 88.8398C569.961 88.6993 569.904 88.5666 569.812 88.4601C569.787 88.4388 569.757 88.4261 569.724 88.4239Z" fill="#407BFF"/>
<path d="M571.942 50.8247C571.895 51.5678 571.768 53.0771 572.334 53.4946C572.334 53.4946 572.231 54.2558 570.896 54.4334C569.429 54.6258 570.099 53.7906 570.099 53.7906C570.876 53.4914 570.777 52.8946 570.565 52.3487L571.942 50.8247Z" fill="#E4897B"/>
<path d="M568.906 49.5107C568.898 49.5108 568.89 49.509 568.882 49.5056C568.875 49.5022 568.869 49.4972 568.863 49.491C568.817 49.4352 568.758 49.3913 568.691 49.3627C568.625 49.3342 568.552 49.3218 568.48 49.3266C568.473 49.328 568.465 49.3278 568.457 49.3261C568.45 49.3243 568.443 49.3211 568.436 49.3164C568.43 49.3118 568.425 49.306 568.421 49.2992C568.417 49.2925 568.414 49.285 568.414 49.2773C568.412 49.2618 568.416 49.2462 568.425 49.2339C568.435 49.2216 568.449 49.2136 568.464 49.2115C568.556 49.2037 568.649 49.2184 568.734 49.2545C568.819 49.2906 568.894 49.3469 568.953 49.4187C568.96 49.4272 568.965 49.4377 568.966 49.4487C568.968 49.4598 568.966 49.471 568.961 49.4811C568.957 49.4913 568.949 49.4999 568.94 49.506C568.931 49.5121 568.92 49.5155 568.909 49.5157L568.906 49.5107Z" fill="#263238"/>
<path d="M568.651 50.2393C568.594 50.4751 568.504 50.7018 568.386 50.9133C568.44 50.9429 568.5 50.9599 568.562 50.9633C568.624 50.9668 568.685 50.9564 568.743 50.933L568.651 50.2393Z" fill="#DE5753"/>
<path d="M568.717 50.0585C568.73 50.1571 568.689 50.2426 568.625 50.2525C568.562 50.2623 568.498 50.1867 568.487 50.0881C568.475 49.9894 568.515 49.9039 568.578 49.8957C568.642 49.8875 568.705 49.9533 568.717 50.0585Z" fill="#263238"/>
<path d="M568.607 49.8968L568.365 49.8594C568.365 49.8594 568.508 50.0268 568.607 49.8968Z" fill="#263238"/>
<path d="M571.359 88.891H570.136L570.055 86.0386H571.277L571.359 88.891Z" fill="#E4897B"/>
<path d="M576.909 88.891H575.687L575.294 86.0386H576.516L576.909 88.891Z" fill="#E4897B"/>
<path d="M575.611 88.7529H576.984C577.007 88.7527 577.03 88.7611 577.048 88.7765C577.065 88.792 577.077 88.8134 577.08 88.8368L577.243 89.9334C577.246 89.961 577.243 89.989 577.235 90.0154C577.226 90.0419 577.212 90.0663 577.194 90.0869C577.175 90.1075 577.153 90.124 577.128 90.1352C577.102 90.1465 577.075 90.1522 577.047 90.152C576.57 90.1438 576.338 90.1159 575.735 90.1159C575.364 90.1159 574.821 90.1537 574.309 90.1537C573.797 90.1537 573.77 89.6424 573.983 89.5963C574.94 89.3892 575.091 89.1031 575.413 88.8286C575.469 88.7817 575.539 88.755 575.611 88.7529Z" fill="#263238"/>
<path d="M570.096 88.7529H571.466C571.49 88.7527 571.513 88.761 571.531 88.7764C571.549 88.7918 571.561 88.8133 571.564 88.8368L571.727 89.9334C571.73 89.961 571.727 89.989 571.719 90.0154C571.71 90.0419 571.696 90.0663 571.678 90.0869C571.66 90.1075 571.637 90.124 571.612 90.1352C571.586 90.1465 571.559 90.1522 571.532 90.152C571.054 90.1438 570.823 90.1159 570.219 90.1159C569.848 90.1159 569.078 90.1537 568.567 90.1537C568.055 90.1537 568.027 89.6424 568.241 89.5963C569.197 89.3892 569.574 89.1031 569.897 88.8286C569.953 88.7817 570.023 88.755 570.096 88.7529Z" fill="#263238"/>
<path d="M570.055 86.0386L570.097 87.51H571.32L571.277 86.0386H570.055Z" fill="#CE6F64"/>
<path d="M576.516 86.0386H575.294L575.497 87.51H576.718L576.516 86.0386Z" fill="#CE6F64"/>
<path d="M571.959 49.2857C572.042 50.5056 572.102 51.0202 571.577 51.7222C570.787 52.776 569.284 52.6133 568.841 51.4427C568.441 50.3889 568.373 48.5722 569.484 47.9343C569.729 47.7929 570.005 47.7169 570.287 47.7135C570.569 47.7101 570.847 47.7793 571.095 47.9147C571.343 48.0501 571.552 48.2471 571.703 48.487C571.855 48.727 571.942 49.0019 571.959 49.2857Z" fill="#E4897B"/>
<path d="M572.663 50.4185C573.341 50.7999 573.845 49.8595 573.845 49.8595C573.845 49.8595 572.629 49.9927 572.738 49.2627C572.881 48.2943 572.193 47.1172 570.469 47.2685C570.373 47.2767 570.281 47.2882 570.192 47.303C570.011 47.2167 569.807 47.1944 569.612 47.2397C569.418 47.2851 569.244 47.3954 569.119 47.5529C568.63 47.594 567.97 48.1826 568.418 48.9602C568.45 48.8708 568.498 48.7887 568.562 48.7185C568.599 49.1739 568.994 49.8973 569.486 49.945C569.592 50.5681 569.181 51.2898 569.323 51.9409C569.533 52.8796 571.103 53.0917 571.103 53.0917C571.049 52.9745 571.029 52.8442 571.045 52.7159C571.061 52.5876 571.113 52.4665 571.194 52.3667C572.26 52.8599 572.963 52.3782 572.963 52.3782C572.236 52.1053 572.456 51.6186 572.456 51.6186C572.707 51.731 572.991 51.7409 573.249 51.6462C573.507 51.5514 573.719 51.3595 573.84 51.1106C573.598 51.1222 573.359 51.063 573.15 50.9401C572.941 50.8173 572.772 50.6361 572.663 50.4185Z" fill="#263238"/>
<path d="M569.911 50.1325C569.914 50.2495 569.894 50.366 569.852 50.4752C569.81 50.5844 569.747 50.6842 569.667 50.7687C569.452 50.9939 569.188 50.8361 569.116 50.5484C569.052 50.2886 569.088 49.8595 569.369 49.7412C569.43 49.7167 569.497 49.7082 569.563 49.7164C569.629 49.7246 569.691 49.7493 569.745 49.7882C569.799 49.827 569.843 49.8789 569.872 49.939C569.901 49.9992 569.914 50.0657 569.911 50.1325Z" fill="#E4897B"/>
<path d="M570.927 61.4976C570.927 61.4976 571.237 69.6126 571.973 74.3771C572.567 78.2275 575.202 87.2237 575.202 87.2237H576.868C576.868 87.2237 575.494 78.5349 575.193 74.7289C574.43 65.0964 576.41 63.0282 574.541 61.0225L570.927 61.4976Z" fill="#263238"/>
<path d="M572.319 64.0641C572.319 64.0641 571.566 63.9326 571.126 65.3794C571.289 68.12 571.567 71.7567 571.973 74.3773C572.063 74.9609 572.2 75.6646 572.368 76.4356C572.05 71.806 572.319 64.0641 572.319 64.0641Z" fill="#161F33"/>
<path d="M569.628 61.6686C569.628 61.6686 568.256 70.6468 568.335 74.4034C568.419 78.3114 569.838 87.227 569.838 87.227H571.489C571.489 87.227 571.229 78.5432 571.374 74.7059C571.537 70.5218 573.23 61.1968 573.23 61.1968L569.628 61.6686Z" fill="#263238"/>
<path d="M577.11 87.3029H574.894L574.722 86.5532L577.093 86.5697L577.11 87.3029Z" fill="#407BFF"/>
<path opacity="0.2" d="M577.11 87.3029H574.894L574.722 86.5532L577.093 86.5697L577.11 87.3029Z" fill="black"/>
<path d="M574.457 53.4962C575.095 53.5587 576.063 55.3852 576.063 55.3852L574.454 56.6297C574.454 56.6297 573.123 55.451 573.281 54.7884C573.445 54.0995 573.846 53.4386 574.457 53.4962Z" fill="#407BFF"/>
<path opacity="0.1" d="M574.457 53.4962C575.095 53.5587 576.063 55.3852 576.063 55.3852L574.454 56.6297C574.454 56.6297 573.123 55.451 573.281 54.7884C573.445 54.0995 573.846 53.4386 574.457 53.4962Z" fill="black"/>
<path d="M573.977 54.282C573.814 54.2378 573.646 54.219 573.478 54.2261C573.392 54.4058 573.326 54.5943 573.281 54.7883C573.118 55.446 574.454 56.6297 574.454 56.6297L574.573 56.5376L573.977 54.282Z" fill="#407BFF"/>
<path opacity="0.3" d="M573.977 54.282C573.814 54.2378 573.646 54.219 573.478 54.2261C573.392 54.4058 573.326 54.5943 573.281 54.7883C573.118 55.446 574.454 56.6297 574.454 56.6297L574.573 56.5376L573.977 54.282Z" fill="black"/>
<path d="M569.082 56.0362C568.617 57.2215 568.128 58.4266 567.739 59.6153C567.713 59.6909 567.691 59.7632 567.669 59.8372L567.613 60.0197C567.598 60.0735 567.598 60.1304 567.613 60.1841C567.705 60.3897 567.851 60.5659 568.035 60.6938C568.523 61.0465 569.054 61.3333 569.615 61.547L569.468 62.1521C568.778 62.0603 568.11 61.8407 567.499 61.5043C567.123 61.3016 566.817 60.9886 566.62 60.6066C566.508 60.3625 566.469 60.0904 566.508 59.8241C566.512 59.7915 566.517 59.7591 566.524 59.7271L566.541 59.658L566.568 59.5331C566.588 59.4492 566.607 59.3687 566.629 59.2865C566.792 58.6289 567 58.0041 567.22 57.3843C567.44 56.7645 567.67 56.1529 567.929 55.543L569.082 56.0362Z" fill="#E4897B"/>
<path d="M568.092 54.3725C568.092 54.3725 567.541 54.6536 569.628 61.6688L574.547 61.021C574.202 59.012 574.039 57.7675 574.458 53.4962C573.752 53.4453 573.044 53.4453 572.339 53.4962C571.588 53.5403 570.841 53.6392 570.104 53.7922C569.16 54.0042 568.092 54.3725 568.092 54.3725Z" fill="#407BFF"/>
<path opacity="0.1" d="M568.092 54.3725C568.092 54.3725 567.541 54.6536 569.628 61.6688L574.547 61.021C574.202 59.012 574.039 57.7675 574.458 53.4962C573.752 53.4453 573.044 53.4453 572.339 53.4962C571.588 53.5403 570.841 53.6392 570.104 53.7922C569.16 54.0042 568.092 54.3725 568.092 54.3725Z" fill="black"/>
<path d="M574.583 60.7202L574.865 61.1328C574.886 61.1657 574.85 61.2052 574.795 61.2134L569.636 61.894C569.592 61.894 569.551 61.8825 569.545 61.8546L569.444 61.4156C569.435 61.386 569.471 61.3548 569.52 61.3482L574.501 60.6906C574.516 60.6882 574.532 60.6896 574.546 60.6948C574.56 60.7 574.573 60.7087 574.583 60.7202Z" fill="#407BFF"/>
<path opacity="0.2" d="M574.583 60.7202L574.865 61.1328C574.886 61.1657 574.85 61.2052 574.795 61.2134L569.636 61.894C569.592 61.894 569.551 61.8825 569.545 61.8546L569.444 61.4156C569.435 61.386 569.471 61.3548 569.52 61.3482L574.501 60.6906C574.516 60.6882 574.532 60.6896 574.546 60.6948C574.56 60.7 574.573 60.7087 574.583 60.7202Z" fill="black"/>
<path d="M573.987 61.3694L574.12 61.3513C574.146 61.3513 574.164 61.3316 574.161 61.3151L574.024 60.7463C574.019 60.7366 574.011 60.729 574 60.7248C573.99 60.7206 573.979 60.72 573.969 60.7233L573.835 60.7397C573.807 60.7397 573.789 60.7594 573.794 60.7775L573.931 61.3447C573.934 61.3628 573.961 61.3727 573.987 61.3694Z" fill="#263238"/>
<path d="M570.753 61.7902L570.886 61.7721C570.912 61.7721 570.932 61.7524 570.927 61.7359L570.79 61.1671C570.785 61.1575 570.777 61.1499 570.767 61.1454C570.757 61.141 570.745 61.1399 570.735 61.1424L570.601 61.1605C570.575 61.1605 570.555 61.1802 570.56 61.1967L570.697 61.7655C570.701 61.7902 570.727 61.8 570.753 61.7902Z" fill="#263238"/>
<path d="M568.322 56.7527C568.458 57.3873 568.648 58.1912 568.927 59.2089L568.987 56.6294L568.322 56.7527Z" fill="#407BFF"/>
<path opacity="0.3" d="M568.322 56.7527C568.458 57.3873 568.648 58.1912 568.927 59.2089L568.987 56.6294L568.322 56.7527Z" fill="black"/>
<path d="M568.092 54.3723C567.481 54.6205 566.951 56.7298 566.951 56.7298L569.054 57.7623C569.054 57.7623 570.07 55.1828 569.615 54.6797C569.16 54.1766 568.797 54.0879 568.092 54.3723Z" fill="#407BFF"/>
<path opacity="0.1" d="M568.092 54.3723C567.481 54.6205 566.951 56.7298 566.951 56.7298L569.054 57.7623C569.054 57.7623 570.07 55.1828 569.615 54.6797C569.16 54.1766 568.797 54.0879 568.092 54.3723Z" fill="black"/>
<path d="M571.771 87.3029H569.556L569.383 86.5532L571.849 86.5697L571.771 87.3029Z" fill="#407BFF"/>
<path opacity="0.2" d="M571.771 87.3029H569.556L569.383 86.5532L571.849 86.5697L571.771 87.3029Z" fill="black"/>
<path d="M569.649 61.3434L569.471 61.2694C569.428 61.2515 569.38 61.2455 569.333 61.2521C569.287 61.2588 569.243 61.2777 569.205 61.3071C569.168 61.3365 569.14 61.3753 569.122 61.4194C569.105 61.4636 569.099 61.5117 569.106 61.5587L569.235 62.4153C569.241 62.4581 569.257 62.4991 569.28 62.5352C569.304 62.5713 569.336 62.6015 569.372 62.6239C569.409 62.6462 569.451 62.66 569.493 62.6643C569.536 62.6686 569.579 62.6633 569.62 62.6487C569.684 62.6251 569.745 62.5912 569.799 62.5484C569.858 62.4991 569.905 62.4365 569.935 62.3657C569.966 62.2949 569.979 62.2178 569.975 62.1407L569.957 61.7856C569.954 61.6896 569.923 61.5967 569.868 61.5181C569.814 61.4396 569.737 61.3788 569.649 61.3434Z" fill="#E4897B"/>
<path d="M766.1 67L760.36 60.64V67H758.54V53.06H760.36V59.52L766.12 53.06H768.42L762.1 60.04L768.48 67H766.1ZM770.333 61.48C770.333 60.36 770.559 59.38 771.013 58.54C771.466 57.6867 772.086 57.0267 772.873 56.56C773.673 56.0933 774.559 55.86 775.533 55.86C776.493 55.86 777.326 56.0667 778.033 56.48C778.739 56.8933 779.266 57.4133 779.613 58.04V56.04H781.453V67H779.613V64.96C779.253 65.6 778.713 66.1333 777.993 66.56C777.286 66.9733 776.459 67.18 775.513 67.18C774.539 67.18 773.659 66.94 772.873 66.46C772.086 65.98 771.466 65.3067 771.013 64.44C770.559 63.5733 770.333 62.5867 770.333 61.48ZM779.613 61.5C779.613 60.6733 779.446 59.9533 779.113 59.34C778.779 58.7267 778.326 58.26 777.753 57.94C777.193 57.6067 776.573 57.44 775.893 57.44C775.213 57.44 774.593 57.6 774.033 57.92C773.473 58.24 773.026 58.7067 772.693 59.32C772.359 59.9333 772.193 60.6533 772.193 61.48C772.193 62.32 772.359 63.0533 772.693 63.68C773.026 64.2933 773.473 64.7667 774.033 65.1C774.593 65.42 775.213 65.58 775.893 65.58C776.573 65.58 777.193 65.42 777.753 65.1C778.326 64.7667 778.779 64.2933 779.113 63.68C779.446 63.0533 779.613 62.3267 779.613 61.5ZM790.368 55.84C791.702 55.84 792.782 56.2467 793.608 57.06C794.435 57.86 794.848 59.02 794.848 60.54V67H793.048V60.8C793.048 59.7067 792.775 58.8733 792.228 58.3C791.682 57.7133 790.935 57.42 789.988 57.42C789.028 57.42 788.262 57.72 787.688 58.32C787.128 58.92 786.848 59.7933 786.848 60.94V67H785.028V56.04H786.848V57.6C787.208 57.04 787.695 56.6067 788.308 56.3C788.935 55.9933 789.622 55.84 790.368 55.84ZM797.641 61.48C797.641 60.36 797.868 59.38 798.321 58.54C798.775 57.6867 799.395 57.0267 800.181 56.56C800.981 56.0933 801.868 55.86 802.841 55.86C803.801 55.86 804.635 56.0667 805.341 56.48C806.048 56.8933 806.575 57.4133 806.921 58.04V56.04H808.761V67H806.921V64.96C806.561 65.6 806.021 66.1333 805.301 66.56C804.595 66.9733 803.768 67.18 802.821 67.18C801.848 67.18 800.968 66.94 800.181 66.46C799.395 65.98 798.775 65.3067 798.321 64.44C797.868 63.5733 797.641 62.5867 797.641 61.48ZM806.921 61.5C806.921 60.6733 806.755 59.9533 806.421 59.34C806.088 58.7267 805.635 58.26 805.061 57.94C804.501 57.6067 803.881 57.44 803.201 57.44C802.521 57.44 801.901 57.6 801.341 57.92C800.781 58.24 800.335 58.7067 800.001 59.32C799.668 59.9333 799.501 60.6533 799.501 61.48C799.501 62.32 799.668 63.0533 800.001 63.68C800.335 64.2933 800.781 64.7667 801.341 65.1C801.901 65.42 802.521 65.58 803.201 65.58C803.881 65.58 804.501 65.42 805.061 65.1C805.635 64.7667 806.088 64.2933 806.421 63.68C806.755 63.0533 806.921 62.3267 806.921 61.5ZM814.157 52.2V67H812.337V52.2H814.157ZM825.411 58.06C825.771 57.4333 826.304 56.9133 827.011 56.5C827.731 56.0733 828.564 55.86 829.511 55.86C830.484 55.86 831.364 56.0933 832.151 56.56C832.951 57.0267 833.577 57.6867 834.031 58.54C834.484 59.38 834.711 60.36 834.711 61.48C834.711 62.5867 834.484 63.5733 834.031 64.44C833.577 65.3067 832.951 65.98 832.151 66.46C831.364 66.94 830.484 67.18 829.511 67.18C828.577 67.18 827.751 66.9733 827.031 66.56C826.324 66.1333 825.784 65.6067 825.411 64.98V72.2H823.591V56.04H825.411V58.06ZM832.851 61.48C832.851 60.6533 832.684 59.9333 832.351 59.32C832.017 58.7067 831.564 58.24 830.991 57.92C830.431 57.6 829.811 57.44 829.131 57.44C828.464 57.44 827.844 57.6067 827.271 57.94C826.711 58.26 826.257 58.7333 825.911 59.36C825.577 59.9733 825.411 60.6867 825.411 61.5C825.411 62.3267 825.577 63.0533 825.911 63.68C826.257 64.2933 826.711 64.7667 827.271 65.1C827.844 65.42 828.464 65.58 829.131 65.58C829.811 65.58 830.431 65.42 830.991 65.1C831.564 64.7667 832.017 64.2933 832.351 63.68C832.684 63.0533 832.851 62.32 832.851 61.48ZM847.606 61.1C847.606 61.4467 847.586 61.8133 847.546 62.2H838.786C838.853 63.28 839.22 64.1267 839.886 64.74C840.566 65.34 841.386 65.64 842.346 65.64C843.133 65.64 843.786 65.46 844.306 65.1C844.84 64.7267 845.213 64.2333 845.426 63.62H847.386C847.093 64.6733 846.506 65.5333 845.626 66.2C844.746 66.8533 843.653 67.18 842.346 67.18C841.306 67.18 840.373 66.9467 839.546 66.48C838.733 66.0133 838.093 65.3533 837.626 64.5C837.16 63.6333 836.926 62.6333 836.926 61.5C836.926 60.3667 837.153 59.3733 837.606 58.52C838.06 57.6667 838.693 57.0133 839.506 56.56C840.333 56.0933 841.28 55.86 842.346 55.86C843.386 55.86 844.306 56.0867 845.106 56.54C845.906 56.9933 846.52 57.62 846.946 58.42C847.386 59.2067 847.606 60.1 847.606 61.1ZM845.726 60.72C845.726 60.0267 845.573 59.4333 845.266 58.94C844.96 58.4333 844.54 58.0533 844.006 57.8C843.486 57.5333 842.906 57.4 842.266 57.4C841.346 57.4 840.56 57.6933 839.906 58.28C839.266 58.8667 838.9 59.68 838.806 60.72H845.726ZM863.689 55.84C864.542 55.84 865.302 56.02 865.969 56.38C866.635 56.7267 867.162 57.2533 867.549 57.96C867.935 58.6667 868.129 59.5267 868.129 60.54V67H866.329V60.8C866.329 59.7067 866.055 58.8733 865.509 58.3C864.975 57.7133 864.249 57.42 863.329 57.42C862.382 57.42 861.629 57.7267 861.069 58.34C860.509 58.94 860.229 59.8133 860.229 60.96V67H858.429V60.8C858.429 59.7067 858.155 58.8733 857.609 58.3C857.075 57.7133 856.349 57.42 855.429 57.42C854.482 57.42 853.729 57.7267 853.169 58.34C852.609 58.94 852.329 59.8133 852.329 60.96V67H850.509V56.04H852.329V57.62C852.689 57.0467 853.169 56.6067 853.769 56.3C854.382 55.9933 855.055 55.84 855.789 55.84C856.709 55.84 857.522 56.0467 858.229 56.46C858.935 56.8733 859.462 57.48 859.809 58.28C860.115 57.5067 860.622 56.9067 861.329 56.48C862.035 56.0533 862.822 55.84 863.689 55.84ZM870.934 61.48C870.934 60.36 871.161 59.38 871.614 58.54C872.068 57.6867 872.688 57.0267 873.474 56.56C874.274 56.0933 875.161 55.86 876.134 55.86C877.094 55.86 877.928 56.0667 878.634 56.48C879.341 56.8933 879.868 57.4133 880.214 58.04V56.04H882.054V67H880.214V64.96C879.854 65.6 879.314 66.1333 878.594 66.56C877.888 66.9733 877.061 67.18 876.114 67.18C875.141 67.18 874.261 66.94 873.474 66.46C872.688 65.98 872.068 65.3067 871.614 64.44C871.161 63.5733 870.934 62.5867 870.934 61.48ZM880.214 61.5C880.214 60.6733 880.048 59.9533 879.714 59.34C879.381 58.7267 878.928 58.26 878.354 57.94C877.794 57.6067 877.174 57.44 876.494 57.44C875.814 57.44 875.194 57.6 874.634 57.92C874.074 58.24 873.628 58.7067 873.294 59.32C872.961 59.9333 872.794 60.6533 872.794 61.48C872.794 62.32 872.961 63.0533 873.294 63.68C873.628 64.2933 874.074 64.7667 874.634 65.1C875.194 65.42 875.814 65.58 876.494 65.58C877.174 65.58 877.794 65.42 878.354 65.1C878.928 64.7667 879.381 64.2933 879.714 63.68C880.048 63.0533 880.214 62.3267 880.214 61.5ZM890.97 55.84C892.303 55.84 893.383 56.2467 894.21 57.06C895.037 57.86 895.45 59.02 895.45 60.54V67H893.65V60.8C893.65 59.7067 893.377 58.8733 892.83 58.3C892.283 57.7133 891.537 57.42 890.59 57.42C889.63 57.42 888.863 57.72 888.29 58.32C887.73 58.92 887.45 59.7933 887.45 60.94V67H885.63V56.04H887.45V57.6C887.81 57.04 888.297 56.6067 888.91 56.3C889.537 55.9933 890.223 55.84 890.97 55.84ZM901.143 57.54V64C901.143 64.5333 901.256 64.9133 901.483 65.14C901.709 65.3533 902.103 65.46 902.663 65.46H904.003V67H902.363C901.349 67 900.589 66.7667 900.083 66.3C899.576 65.8333 899.323 65.0667 899.323 64V57.54H897.903V56.04H899.323V53.28H901.143V56.04H904.003V57.54H901.143ZM906.028 61.48C906.028 60.36 906.255 59.38 906.708 58.54C907.161 57.6867 907.781 57.0267 908.568 56.56C909.368 56.0933 910.255 55.86 911.228 55.86C912.188 55.86 913.021 56.0667 913.728 56.48C914.435 56.8933 914.961 57.4133 915.308 58.04V56.04H917.148V67H915.308V64.96C914.948 65.6 914.408 66.1333 913.688 66.56C912.981 66.9733 912.155 67.18 911.208 67.18C910.235 67.18 909.355 66.94 908.568 66.46C907.781 65.98 907.161 65.3067 906.708 64.44C906.255 63.5733 906.028 62.5867 906.028 61.48ZM915.308 61.5C915.308 60.6733 915.141 59.9533 914.808 59.34C914.475 58.7267 914.021 58.26 913.448 57.94C912.888 57.6067 912.268 57.44 911.588 57.44C910.908 57.44 910.288 57.6 909.728 57.92C909.168 58.24 908.721 58.7067 908.388 59.32C908.055 59.9333 907.888 60.6533 907.888 61.48C907.888 62.32 908.055 63.0533 908.388 63.68C908.721 64.2933 909.168 64.7667 909.728 65.1C910.288 65.42 910.908 65.58 911.588 65.58C912.268 65.58 912.888 65.42 913.448 65.1C914.021 64.7667 914.475 64.2933 914.808 63.68C915.141 63.0533 915.308 62.3267 915.308 61.5ZM930.444 56.04V67H928.624V65.38C928.277 65.94 927.79 66.38 927.164 66.7C926.55 67.0067 925.87 67.16 925.124 67.16C924.27 67.16 923.504 66.9867 922.824 66.64C922.144 66.28 921.604 65.7467 921.204 65.04C920.817 64.3333 920.624 63.4733 920.624 62.46V56.04H922.424V62.22C922.424 63.3 922.697 64.1333 923.244 64.72C923.79 65.2933 924.537 65.58 925.484 65.58C926.457 65.58 927.224 65.28 927.784 64.68C928.344 64.08 928.624 63.2067 928.624 62.06V56.04H930.444ZM933.337 61.48C933.337 60.36 933.563 59.38 934.017 58.54C934.47 57.6867 935.09 57.0267 935.877 56.56C936.677 56.0933 937.563 55.86 938.537 55.86C939.497 55.86 940.33 56.0667 941.037 56.48C941.743 56.8933 942.27 57.4133 942.617 58.04V56.04H944.457V67H942.617V64.96C942.257 65.6 941.717 66.1333 940.997 66.56C940.29 66.9733 939.463 67.18 938.517 67.18C937.543 67.18 936.663 66.94 935.877 66.46C935.09 65.98 934.47 65.3067 934.017 64.44C933.563 63.5733 933.337 62.5867 933.337 61.48ZM942.617 61.5C942.617 60.6733 942.45 59.9533 942.117 59.34C941.783 58.7267 941.33 58.26 940.757 57.94C940.197 57.6067 939.577 57.44 938.897 57.44C938.217 57.44 937.597 57.6 937.037 57.92C936.477 58.24 936.03 58.7067 935.697 59.32C935.363 59.9333 935.197 60.6533 935.197 61.48C935.197 62.32 935.363 63.0533 935.697 63.68C936.03 64.2933 936.477 64.7667 937.037 65.1C937.597 65.42 938.217 65.58 938.897 65.58C939.577 65.58 940.197 65.42 940.757 65.1C941.33 64.7667 941.783 64.2933 942.117 63.68C942.45 63.0533 942.617 62.3267 942.617 61.5ZM953.372 55.84C954.706 55.84 955.786 56.2467 956.612 57.06C957.439 57.86 957.852 59.02 957.852 60.54V67H956.052V60.8C956.052 59.7067 955.779 58.8733 955.232 58.3C954.686 57.7133 953.939 57.42 952.992 57.42C952.032 57.42 951.266 57.72 950.692 58.32C950.132 58.92 949.852 59.7933 949.852 60.94V67H948.032V56.04H949.852V57.6C950.212 57.04 950.699 56.6067 951.312 56.3C951.939 55.9933 952.626 55.84 953.372 55.84ZM968.977 57.82C969.297 57.1933 969.751 56.7067 970.337 56.36C970.937 56.0133 971.664 55.84 972.517 55.84V57.72H972.037C969.997 57.72 968.977 58.8267 968.977 61.04V67H967.157V56.04H968.977V57.82ZM984.838 56.04V67H983.018V65.38C982.671 65.94 982.185 66.38 981.558 66.7C980.945 67.0067 980.265 67.16 979.518 67.16C978.665 67.16 977.898 66.9867 977.218 66.64C976.538 66.28 975.998 65.7467 975.598 65.04C975.211 64.3333 975.018 63.4733 975.018 62.46V56.04H976.818V62.22C976.818 63.3 977.091 64.1333 977.638 64.72C978.185 65.2933 978.931 65.58 979.878 65.58C980.851 65.58 981.618 65.28 982.178 64.68C982.738 64.08 983.018 63.2067 983.018 62.06V56.04H984.838ZM1001.59 55.84C1002.44 55.84 1003.2 56.02 1003.87 56.38C1004.54 56.7267 1005.06 57.2533 1005.45 57.96C1005.84 58.6667 1006.03 59.5267 1006.03 60.54V67H1004.23V60.8C1004.23 59.7067 1003.96 58.8733 1003.41 58.3C1002.88 57.7133 1002.15 57.42 1001.23 57.42C1000.28 57.42 999.531 57.7267 998.971 58.34C998.411 58.94 998.131 59.8133 998.131 60.96V67H996.331V60.8C996.331 59.7067 996.058 58.8733 995.511 58.3C994.978 57.7133 994.251 57.42 993.331 57.42C992.384 57.42 991.631 57.7267 991.071 58.34C990.511 58.94 990.231 59.8133 990.231 60.96V67H988.411V56.04H990.231V57.62C990.591 57.0467 991.071 56.6067 991.671 56.3C992.284 55.9933 992.958 55.84 993.691 55.84C994.611 55.84 995.424 56.0467 996.131 56.46C996.838 56.8733 997.364 57.48 997.711 58.28C998.018 57.5067 998.524 56.9067 999.231 56.48C999.938 56.0533 1000.72 55.84 1001.59 55.84ZM1014.3 67.18C1013.27 67.18 1012.34 66.9467 1011.5 66.48C1010.67 66.0133 1010.02 65.3533 1009.54 64.5C1009.07 63.6333 1008.84 62.6333 1008.84 61.5C1008.84 60.38 1009.08 59.3933 1009.56 58.54C1010.05 57.6733 1010.72 57.0133 1011.56 56.56C1012.4 56.0933 1013.34 55.86 1014.38 55.86C1015.42 55.86 1016.36 56.0933 1017.2 56.56C1018.04 57.0133 1018.7 57.6667 1019.18 58.52C1019.67 59.3733 1019.92 60.3667 1019.92 61.5C1019.92 62.6333 1019.66 63.6333 1019.16 64.5C1018.66 65.3533 1017.99 66.0133 1017.14 66.48C1016.28 66.9467 1015.34 67.18 1014.3 67.18ZM1014.3 65.58C1014.95 65.58 1015.56 65.4267 1016.14 65.12C1016.71 64.8133 1017.17 64.3533 1017.52 63.74C1017.88 63.1267 1018.06 62.38 1018.06 61.5C1018.06 60.62 1017.88 59.8733 1017.54 59.26C1017.19 58.6467 1016.74 58.1933 1016.18 57.9C1015.62 57.5933 1015.01 57.44 1014.36 57.44C1013.69 57.44 1013.08 57.5933 1012.52 57.9C1011.97 58.1933 1011.53 58.6467 1011.2 59.26C1010.86 59.8733 1010.7 60.62 1010.7 61.5C1010.7 62.3933 1010.86 63.1467 1011.18 63.76C1011.51 64.3733 1011.95 64.8333 1012.5 65.14C1013.04 65.4333 1013.64 65.58 1014.3 65.58ZM1024.63 57.82C1024.95 57.1933 1025.4 56.7067 1025.99 56.36C1026.59 56.0133 1027.32 55.84 1028.17 55.84V57.72H1027.69C1025.65 57.72 1024.63 58.8267 1024.63 61.04V67H1022.81V56.04H1024.63V57.82Z" fill="black"/>
</svg>
